<svg width="33" height="33" viewBox="0 0 33 33" fill="none" xmlns="http://www.w3.org/2000/svg">
<path d="M5.68134 23C6.01134 23 6.33234 23.121 6.64434 23.331C8.01234 15.225 27.0063 15.083 28.3993 23.041C30.0653 23.453 31.4793 27.419 32.1473 33H1.14734C1.94034 27.101 3.66934 23 5.68134 23Z" fill="#292F33"/>
<path d="M5.68234 20.688C9.60534 9.533 5.14734 0 16.1473 0C27.1473 0 24.8833 8.173 29.3403 19.125C30.4593 21.875 27.8973 25.033 27.8973 25.033C27.8973 25.033 25.2853 20.277 23.1473 19.187C22.5563 22.464 21.3973 26.125 21.3973 26.125C21.3973 26.125 18.8163 23.16 15.8103 20.538C14.9313 21.547 13.7453 22.721 12.1473 24C11.7983 22.952 11.2043 21.661 10.5793 20.424C9.11134 22.662 7.39734 25.375 7.39734 25.375C7.39734 25.375 4.89034 22.94 5.68234 20.688Z" fill="#E1E8ED"/>
<path d="M10.1464 2C5.78635 5.059 4.60435 4.16 2.33435 5.562C0.209351 6.874 0.334351 10.5 2.20935 13.624C2.78835 10.963 1.70935 10.475 9.14735 10.475C14.1474 10.475 17.0753 10.764 16.1474 9.475C15.2204 8.186 6.12035 9.934 10.1464 2Z" fill="#FFCC4D"/>
<path d="M15.1743 4.51705C15.1743 5.33704 14.5113 6.00004 13.6913 6.00004C12.8713 6.00004 12.2073 5.33704 12.2073 4.51705C12.2073 4.36005 12.2383 4.21204 12.2833 4.07104H15.0993C15.1433 4.21204 15.1743 4.36005 15.1743 4.51705Z" fill="#292F33"/>
</svg>
