<svg width="36" height="27" viewBox="0 0 36 27" fill="none" xmlns="http://www.w3.org/2000/svg">
<path d="M22.6322 17.0005C22.6322 23.3525 19.6322 27.0005 17.6322 27.0005C15.6322 27.0005 12.6322 23.3525 12.6322 17.0005C12.6322 10.6485 14.8712 10.0005 17.6322 10.0005C20.3942 10.0005 22.6322 10.6485 22.6322 17.0005Z" fill="#66757F"/>
<path d="M17.6322 11.0005C19.8413 11.0005 21.6322 9.20963 21.6322 7.00049C21.6322 4.79135 19.8413 3.00049 17.6322 3.00049C15.4231 3.00049 13.6322 4.79135 13.6322 7.00049C13.6322 9.20963 15.4231 11.0005 17.6322 11.0005Z" fill="#66757F"/>
<path d="M13.6322 7.00049C11.6322 2.00049 14.6322 0.000488281 14.6322 0.000488281C14.6322 0.000488281 16.6322 1.00049 16.6322 4.00049C16.6322 7.00049 13.6322 7.00049 13.6322 7.00049Z" fill="#66757F"/>
<path d="M14.3002 5.90446C13.5242 3.44746 14.1812 2.00846 14.7032 1.32446C15.1182 1.77346 15.6322 2.60846 15.6322 4.00046C15.6322 5.26846 14.8932 5.73446 14.3002 5.90446Z" fill="#546066"/>
<path d="M21.6322 7.00049C23.6322 2.00049 20.6322 0.000488281 20.6322 0.000488281C20.6322 0.000488281 18.6322 1.00049 18.6322 4.00049C18.6322 7.00049 21.6322 7.00049 21.6322 7.00049ZM15.6482 10.0005C14.0282 11.1575 5.64819 12.0005 6.64819 5.00049C6.79019 4.01049 5.64819 4.00049 4.64819 5.00049C1.64819 8.00049 -1.35181 12.8345 0.64819 25.0005C3.64819 20.0005 6.64819 21.0005 7.64819 26.0005C10.6482 22.0005 13.6482 24.0005 15.6482 26.0005C18.6482 23.0005 15.6482 10.0005 15.6482 10.0005ZM19.5852 10.0005C21.2052 11.1575 29.5852 12.0005 28.5852 5.00049C28.4432 4.01049 29.5852 4.00049 30.5852 5.00049C33.5852 8.00049 36.5852 12.8345 34.5852 25.0005C31.5852 20.0005 28.5852 21.0005 27.5852 26.0005C24.5852 22.0005 21.5852 24.0005 19.5852 26.0005C16.5852 23.0005 19.5852 10.0005 19.5852 10.0005Z" fill="#66757F"/>
<path d="M15.6322 8.00049C16.1845 8.00049 16.6322 7.55277 16.6322 7.00049C16.6322 6.4482 16.1845 6.00049 15.6322 6.00049C15.0799 6.00049 14.6322 6.4482 14.6322 7.00049C14.6322 7.55277 15.0799 8.00049 15.6322 8.00049Z" fill="#292F33"/>
<path d="M19.6322 8.00049C20.1845 8.00049 20.6322 7.55277 20.6322 7.00049C20.6322 6.4482 20.1845 6.00049 19.6322 6.00049C19.0799 6.00049 18.6322 6.4482 18.6322 7.00049C18.6322 7.55277 19.0799 8.00049 19.6322 8.00049Z" fill="#292F33"/>
<path d="M20.9642 5.90446C21.7392 3.44746 21.0822 2.00846 20.5612 1.32446C20.1462 1.77346 19.6322 2.60846 19.6322 4.00046C19.6322 5.26846 20.3712 5.73446 20.9642 5.90446Z" fill="#546066"/>
<path d="M7.6282 22.9105C8.5202 20.2195 8.2012 16.9225 6.6322 13.0005C5.1452 9.28151 5.3172 6.67151 5.5032 5.57751C5.4542 5.61851 5.4072 5.65551 5.3552 5.70751C2.6492 8.41451 0.109197 12.5315 1.2922 22.4365C2.5682 21.0575 3.7042 20.7135 4.5202 20.7135C5.7852 20.7135 6.8532 21.4965 7.6282 22.9105Z" fill="#99AAB5"/>
<path d="M6.46417 9.25051C6.44517 9.22052 6.42317 9.19252 6.40417 9.16352C6.63217 12.0005 8.03217 13.0015 8.63217 16.0005C9.22018 18.9405 9.10818 21.5195 8.72018 23.5645C9.55918 22.9935 10.4462 22.6905 11.3762 22.6905C12.6402 22.6905 13.9242 23.2285 15.2712 24.3175C13.6322 15.0005 8.63217 13.0005 6.46417 9.25051ZM27.6362 22.9105C26.7432 20.2195 27.0642 16.9225 28.6322 13.0005C30.1192 9.28151 29.9472 6.67151 29.7612 5.57751C29.8102 5.61851 29.8582 5.65551 29.9092 5.70751C32.6152 8.41451 35.1552 12.5315 33.9722 22.4365C32.6972 21.0575 31.5602 20.7135 30.7452 20.7135C29.4792 20.7135 28.4112 21.4965 27.6362 22.9105Z" fill="#99AAB5"/>
<path d="M28.8002 9.25053L28.8612 9.16353C28.6322 12.0005 27.2322 13.0015 26.6322 16.0005C26.0442 18.9405 26.1552 21.5195 26.5442 23.5645C25.7042 22.9935 24.8182 22.6905 23.8882 22.6905C22.6242 22.6905 21.3402 23.2285 19.9932 24.3175C21.6322 15.0005 26.6322 13.0005 28.8002 9.25053ZM18.3202 9.10653C17.9422 9.48453 17.3222 9.48453 16.9452 9.10653L16.3752 8.53553C15.9972 8.15753 16.1252 7.84753 16.6602 7.84753H18.6052C19.1402 7.84753 19.2692 8.15653 18.8902 8.53553L18.3202 9.10653Z" fill="#99AAB5"/>
</svg>
