<svg width="36" height="36" viewBox="0 0 36 36" fill="none" xmlns="http://www.w3.org/2000/svg">
<path d="M13.1982 29.8335C13.8242 23.1255 8.78119 22.2915 6.78119 23.7505C5.68419 24.5505 5.42819 26.0735 6.30219 25.2715C7.84419 23.8555 8.38519 24.8965 7.21919 25.6465C6.05319 26.3965 5.84419 27.7915 7.13619 26.8345C8.42819 25.8765 8.78219 26.5005 7.78219 27.7295C7.17719 28.4735 7.82419 29.1675 8.94919 27.6675C9.88719 26.4165 12.1492 26.3735 11.6112 30.6575C11.3892 32.4135 13.0642 31.2655 13.1982 29.8335ZM21.1392 8.81153C20.5562 5.31153 20.0142 3.56353 16.5142 2.97953C13.0142 2.39553 10.0972 4.72953 10.0972 4.72953C10.0972 4.72953 10.6802 1.22953 12.4302 0.0625339C13.1162 -0.395466 13.5972 1.81253 14.1802 1.81253C14.7632 1.81253 15.3472 0.0625339 17.0972 0.0625339C17.6802 0.0625339 17.6802 1.81253 18.2642 1.81253C18.8472 1.81253 20.5072 1.23553 20.5972 1.81253C20.7232 2.62453 20.4302 3.54153 20.8892 3.91653C21.3482 4.29153 22.4422 3.76853 22.7902 4.40553C23.1392 5.04153 22.1802 5.95853 22.2642 6.37553C22.3482 6.79253 22.9832 6.95853 22.7902 7.75053C22.5972 8.54253 22.1402 8.58353 22.0982 9.16753C22.0562 9.75153 22.9832 10.2485 22.7902 10.8535C22.5982 11.4595 22.1392 11.5415 21.9312 12.3125C21.7232 13.0835 22.4722 12.9615 22.2642 13.7515C22.0562 14.5415 21.3062 14.7425 21.0562 15.5175C20.8062 16.2915 21.7222 16.4585 21.2642 17.2085C20.8062 17.9585 19.9732 18.0835 19.9312 18.5415C19.8892 18.9995 20.1402 19.3595 19.9732 20.0965C19.8062 20.8325 18.8472 20.4585 18.7642 21.0415C18.6812 21.6245 18.9732 21.9165 18.9732 22.6245C18.9732 23.3325 18.2642 23.4585 18.3482 24.1665C18.4322 24.8745 19.0982 24.3335 19.5152 25.1665C19.9322 25.9995 19.2662 26.7495 19.7242 27.2495C20.1822 27.7495 20.8072 26.5825 21.4322 26.9995C22.0572 27.4165 22.1092 28.2495 22.7912 28.3745C23.4732 28.4995 23.6822 27.0825 24.1822 27.1245C24.6822 27.1665 25.8072 27.8335 26.3902 27.5415C26.9732 27.2495 26.9312 26.0825 27.3902 25.5825C27.8492 25.0825 28.4322 25.5415 28.8482 24.9995C29.2642 24.4575 28.7032 23.8245 28.7862 23.0325C28.8692 22.2405 29.6402 21.7915 29.5982 21.1665C29.5562 20.5415 28.9312 20.5415 28.6812 19.8745C28.4312 19.2075 29.1392 18.6245 28.8892 17.9995C28.6392 17.3745 27.5572 17.1665 27.5982 16.5415C27.6392 15.9165 28.0572 15.2085 27.8482 14.4995C27.6392 13.7905 26.7642 13.3335 26.8062 12.7925C26.8482 12.2515 27.3052 11.5425 27.3892 11.1465C27.4732 10.7505 26.6402 10.3345 26.7232 9.66753C26.8062 9.00053 27.3472 9.04653 27.5552 8.44453C27.7632 7.84253 26.8062 7.54353 27.3062 6.77253C27.8062 6.00153 28.0572 6.50253 28.4732 6.08453C28.8892 5.66753 28.4722 4.75053 28.8892 4.54253C29.3062 4.33453 30.1392 4.50053 30.5562 4.20953C30.9732 3.91853 30.9732 3.50153 31.4312 3.33453C31.8892 3.16753 32.4732 3.87653 32.8482 3.87653C33.2232 3.87653 33.8892 3.16853 34.3892 3.33453C34.8892 3.50153 35.9732 4.66753 35.3062 5.02253C34.6392 5.37753 29.5552 5.62753 29.5142 7.96053C29.4732 10.2935 32.3072 20.8775 31.4732 23.5435C30.6392 26.2095 27.1822 31.8775 23.2232 30.7935C19.2642 29.7095 14.5562 27.2925 15.6812 23.5845C16.8062 19.8755 20.4302 12.2885 21.1392 8.81153Z" fill="#3E721D"/>
<path d="M21.7642 7.89754C21.7642 11.8755 19.3822 16.0415 15.9312 15.4635C10.6082 14.5735 10.3252 12.8765 9.51416 13.9175C6.59716 17.6605 4.87016 13.4325 4.20716 12.7315C4.04016 12.5555 0.76416 11.5905 0.76416 9.74454C0.76416 8.54754 2.51416 7.32654 3.68116 8.51354C5.40316 8.47054 11.8482 2.35754 15.9312 2.35754C20.0142 2.35654 21.7642 5.43554 21.7642 7.89754Z" fill="#77B255"/>
<path d="M15.3472 7.06251C15.3472 7.70651 14.8242 8.22951 14.1802 8.22951C13.5362 8.22951 13.0132 7.70651 13.0132 7.06251C13.0132 6.41851 13.5362 5.89551 14.1802 5.89551C14.8252 5.89651 15.3472 6.41851 15.3472 7.06251Z" fill="#292F33"/>
<path d="M3.68115 10.2715C3.68115 10.7545 3.28915 10.5635 2.80615 10.5635C2.32315 10.5635 1.93115 10.7545 1.93115 10.2715C1.93115 9.78848 2.32315 9.39648 2.80615 9.39648C3.28915 9.39648 3.68115 9.78848 3.68115 10.2715Z" fill="#3E721D"/>
<path d="M11.8472 11.1445C11.8472 11.7895 11.4552 11.7275 10.9722 11.7275C10.4892 11.7275 10.0972 11.7885 10.0972 11.1445C10.0972 10.5005 10.4892 8.81152 10.9722 8.81152C11.4552 8.81152 11.8472 10.5005 11.8472 11.1445ZM9.51416 11.7275C9.51416 12.3725 9.12216 12.3105 8.63916 12.3105C8.15616 12.3115 7.76416 12.3725 7.76416 11.7275C7.76416 11.0835 8.15616 9.39452 8.63916 9.39452C9.12216 9.39452 9.51416 11.0835 9.51416 11.7275Z" fill="white"/>
<path d="M11.7652 11.1525C8.67015 11.5945 5.55015 12.3765 4.20715 12.7315C4.37415 12.9085 4.61015 13.3105 4.91615 13.7525C6.38815 13.3725 9.16915 12.7015 11.9312 12.3085C12.2502 12.2625 12.4712 11.9665 12.4262 11.6475C12.3792 11.3275 12.0822 11.1055 11.7652 11.1525Z" fill="#3E721D"/>
<path d="M21.7101 8.93752C21.7101 13.3125 19.9961 17.1385 18.7641 20.1075C17.4311 23.3195 17.7641 29.1075 22.7641 29.1075C27.7641 29.1075 29.2751 25.9165 29.7641 24.1075C31.1221 19.0865 27.7641 16.1075 27.7641 11.1075C27.7641 2.10752 35.7641 4.10752 35.7641 5.10752C35.7641 6.10752 28.8301 6.48152 32.7641 14.1075C36.6981 21.7335 36.7641 36.0005 22.7641 36.0005C8.76414 36.0005 8.76414 27.1075 10.7641 23.1075C12.1801 20.2755 14.7641 16.0005 11.2641 14.0625C8.98214 12.7995 21.7101 8.93752 21.7101 8.93752Z" fill="#77B255"/>
<path d="M12.0992 7.77148C11.8432 7.77148 11.5872 7.67348 11.3922 7.47848C11.0012 7.08748 11.0012 6.45548 11.3922 6.06448C11.4752 5.98148 13.4732 4.02148 16.7662 4.02148C17.3182 4.02148 17.7662 4.46948 17.7662 5.02148C17.7662 5.57348 17.3182 6.02148 16.7662 6.02148C14.3312 6.02148 12.8212 7.46348 12.8062 7.47848C12.6112 7.67348 12.3552 7.77148 12.0992 7.77148Z" fill="#3E721D"/>
<path d="M11.4722 25.3336C12.0992 18.6256 6.05518 17.7916 4.05518 19.2506C2.95818 20.0506 2.70218 21.5736 3.57618 20.7716C5.11818 19.3556 5.65918 20.3966 4.49318 21.1466C3.32618 21.8966 3.11818 23.2926 4.41018 22.3346C5.70218 21.3766 6.05618 22.0006 5.05618 23.2296C4.45118 23.9736 5.09818 24.6676 6.22318 23.1676C7.16118 21.9166 10.4232 21.8736 9.88518 26.1576C9.66318 27.9136 11.3392 26.7656 11.4722 25.3336Z" fill="#5C913B"/>
</svg>
