<svg width="37" height="27" viewBox="0 0 37 27" fill="none" xmlns="http://www.w3.org/2000/svg">
<path d="M25.573 25.0235C22.823 25.0235 23.573 19.0235 23.573 19.0235C23.573 17.9195 26.219 17.0235 27.323 17.0235C28.427 17.0235 30.573 16.9195 30.573 18.0235C30.573 18.0235 28.323 25.0235 25.573 25.0235Z" fill="#292F33"/>
<path d="M28.573 26.0235C25.823 26.0235 26.573 20.0235 26.573 20.0235C26.573 18.9195 29.219 18.0235 30.323 18.0235C31.427 18.0235 33.573 17.9195 33.573 19.0235C33.573 19.0235 31.323 26.0235 28.573 26.0235Z" fill="#66757F"/>
<path d="M14.573 25.0235C11.823 25.0235 10.573 19.0235 10.573 19.0235C10.573 17.9195 13.219 17.0235 14.323 17.0235C15.427 17.0235 17.573 16.9195 17.573 18.0235C17.573 18.0235 17.323 25.0235 14.573 25.0235Z" fill="#292F33"/>
<path d="M17.573 26.0235C14.823 26.0235 13.573 20.0235 13.573 20.0235C13.573 18.9195 16.219 18.0235 17.323 18.0235C18.427 18.0235 20.573 17.9195 20.573 19.0235C20.573 19.0235 20.323 26.0235 17.573 26.0235Z" fill="#66757F"/>
<path d="M36.323 11.4075C36.323 19.1895 31.828 22.8155 21.804 22.8155C11.781 22.8155 8.323 19.1895 8.323 11.4075C8.323 3.62449 11.781 0.000488281 21.804 0.000488281C31.828 0.000488281 36.323 3.62449 36.323 11.4075Z" fill="#E1E8ED"/>
<path d="M17.573 7.69044C17.573 17.0234 12.918 19.0234 8.615 19.0234C4.311 19.0234 1.573 12.3834 1.573 7.69044C1.573 2.99644 4.311 2.02344 8.615 2.02344C12.918 2.02344 17.573 2.99644 17.573 7.69044Z" fill="#99AAB5"/>
<path d="M5.073 12.0234C5.90143 12.0234 6.573 11.3519 6.573 10.5234C6.573 9.69501 5.90143 9.02344 5.073 9.02344C4.24457 9.02344 3.573 9.69501 3.573 10.5234C3.573 11.3519 4.24457 12.0234 5.073 12.0234Z" fill="#292F33"/>
<path d="M16.323 2.7735C14.573 6.0235 14.195 5.3795 9.195 7.3795C6.118 8.6105 0.572998 8.2735 0.572998 3.5235C0.572998 1.5905 4.26 1.0235 7.573 1.0235C10.887 1.0235 17.982 -0.308504 16.323 2.7735Z" fill="#E1E8ED"/>
<path d="M16.573 3.71945C19.926 6.14645 22.003 9.85845 20.297 14.8085C18.93 18.7755 13.481 17.9235 10.681 15.9355C7.88202 13.9475 8.03802 11.1435 8.94802 9.64445C9.85702 8.14745 13.106 8.41545 14.972 9.74145C15.906 10.4045 15.259 11.3005 14.251 10.8095C11.959 9.69145 11.214 12.2525 13.005 13.6915C14.271 14.7075 16.28 14.7405 16.66 12.6815C17.331 9.05145 13.155 6.40745 9.19502 7.37945C11.573 6.02345 13.734 1.66445 16.573 3.71945Z" fill="#FFCC4D"/>
</svg>
