<svg width="35" height="36" viewBox="0 0 35 36" fill="none" xmlns="http://www.w3.org/2000/svg">
<path d="M4.42129 15.6775C4.42129 11.6775 -0.578706 12.6775 0.421294 16.6775C1.42129 20.6775 3.42129 21.6775 3.42129 21.6775L4.42129 15.6775ZM30.4213 15.6775C30.4213 11.6775 35.4213 12.6775 34.4213 16.6775C33.4213 20.6775 31.4213 21.6775 31.4213 21.6775L30.4213 15.6775Z" fill="#31373D"/>
<path d="M32.0713 21.4135C32.0713 32.3055 27.3803 35.5005 17.4213 35.5005C7.46326 35.5005 2.77026 32.3055 2.77026 21.4135C2.77026 10.5215 7.46326 0.000488281 17.4213 0.000488281C27.3803 0.000488281 32.0713 10.5215 32.0713 21.4135Z" fill="#31373D"/>
<path d="M26.9883 22.6775C28.4783 18.2195 29.0763 15.3655 26.5453 15.3655H8.29727C5.76527 15.3655 6.36427 18.2195 7.85327 22.6775C2.92527 33.8785 16.5873 34.5005 17.4213 34.5005C18.2553 34.5005 31.7243 33.4415 26.9883 22.6775Z" fill="#66757F"/>
<path d="M14.4213 17.6805C14.4213 18.7855 13.5253 19.6805 12.4213 19.6805C11.3173 19.6805 10.4213 18.7855 10.4213 17.6805C10.4213 16.5765 11.3173 16.6805 12.4213 16.6805C13.5253 16.6805 14.4213 16.5755 14.4213 17.6805ZM24.4213 17.6805C24.4213 18.7855 23.5253 19.6805 22.4213 19.6805C21.3173 19.6805 20.4213 18.7855 20.4213 17.6805C20.4213 16.5765 21.3173 16.6805 22.4213 16.6805C23.5253 16.6805 24.4213 16.5755 24.4213 17.6805Z" fill="#31373D"/>
<path d="M14.9933 24.3325C15.782 24.3325 16.4213 23.8848 16.4213 23.3325C16.4213 22.7802 15.782 22.3325 14.9933 22.3325C14.2046 22.3325 13.5653 22.7802 13.5653 23.3325C13.5653 23.8848 14.2046 24.3325 14.9933 24.3325Z" fill="#31373D"/>
<path d="M21.2773 23.3325C21.2773 23.8855 20.6383 24.3325 19.8493 24.3325C19.0593 24.3325 18.4203 23.8855 18.4203 23.3325C18.4203 22.7795 19.0593 22.3325 19.8493 22.3325C20.6393 22.3325 21.2773 22.7805 21.2773 23.3325Z" fill="#31373D"/>
<path d="M20.4413 20.7174C18.4763 20.4574 17.4213 21.5514 17.4213 21.5514C17.4213 21.5514 16.3663 20.4574 14.4003 20.7174C11.2443 21.1344 11.1153 24.0044 12.4613 23.8224C13.2273 23.7184 12.5963 22.8844 14.1743 22.2664C15.7533 21.6504 17.4213 22.9264 17.4213 22.9264C17.4213 22.9264 19.0883 21.6504 20.6673 22.2674C22.2463 22.8844 21.6143 23.7194 22.3813 23.8234C23.7273 24.0044 23.5993 21.1344 20.4413 20.7174Z" fill="#99AAB5"/>
<path d="M24.2563 29.6985C23.0473 30.0215 21.0523 30.2945 17.4213 30.2945C13.7903 30.2945 11.7963 30.0225 10.5863 29.6985C7.38132 28.8445 8.66332 27.9635 10.5863 28.2215C12.5093 28.4805 14.2173 28.6365 17.4213 28.6365C20.6263 28.6365 22.3353 28.4805 24.2563 28.2215C26.1793 27.9635 27.4603 28.8445 24.2563 29.6985Z" fill="#31373D"/>
<path d="M3.67432 16.3025C5.07732 15.0775 2.59632 12.5365 1.47832 13.7585C1.13732 14.1315 2.39932 13.5705 2.81432 14.8445C3.12232 15.7865 2.81532 17.0525 3.67432 16.3025ZM31.1673 16.3025C29.7653 15.0775 32.2453 12.5365 33.3633 13.7585C33.7043 14.1315 32.4423 13.5705 32.0263 14.8445C31.7203 15.7865 32.0263 17.0525 31.1673 16.3025Z" fill="#66757F"/>
</svg>
