<svg width="34" height="34" viewBox="0 0 34 34" fill="none" xmlns="http://www.w3.org/2000/svg">
<path d="M31.0974 12.2159C31.0974 12.2159 34.5424 3.40387 32.7484 0.217866C32.1444 -0.855134 24.7484 2.21587 22.0254 5.65987C22.0254 5.65987 19.4394 4.79987 16.7494 4.79987C14.0594 4.79987 11.4734 5.65987 11.4734 5.65987C8.75043 2.21587 1.35443 -0.855134 0.750431 0.217866C-1.04357 3.40387 2.40143 12.2159 2.40143 12.2159C1.50443 13.9379 1.16843 16.5609 0.846431 19.3759C0.492431 22.4619 1.19643 24.9219 1.50443 25.4649C1.85443 26.0819 3.62743 28.0699 5.98843 29.7709C9.57543 32.3539 14.9554 33.2159 16.7494 33.2159C18.5434 33.2159 23.9234 32.3549 27.5104 29.7709C29.8714 28.0699 31.6444 26.0819 31.9944 25.4649C32.3024 24.9219 33.0064 22.4619 32.6534 19.3759C32.3294 16.5619 31.9944 13.9379 31.0974 12.2159Z" fill="#FFCC4D"/>
<path d="M1.10845 1.18783C1.30845 0.588833 6.45645 3.36083 7.62645 6.59183C7.62645 6.59183 3.81845 9.21583 3.09845 11.2158C3.09845 11.2158 0.108446 4.18783 1.10845 1.18783Z" fill="#F18F26"/>
<path d="M4.72943 5.47781C4.72943 4.06381 10.1864 8.21081 9.18643 9.21081C8.18643 10.2108 7.93143 9.93081 6.93143 10.9308C5.93143 11.9308 4.72943 6.47781 4.72943 5.47781Z" fill="#FFCC4D"/>
<path d="M32.3904 1.18783C32.1904 0.588833 27.0424 3.36083 25.8724 6.59183C25.8724 6.59183 29.6804 9.21583 30.4004 11.2158C30.4004 11.2158 33.3904 4.18783 32.3904 1.18783Z" fill="#F18F26"/>
<path d="M28.7694 5.47781C28.7694 4.06381 23.3124 8.21081 24.3124 9.21081C25.3124 10.2108 25.5674 9.93081 26.5674 10.9308C27.5674 11.9308 28.7694 6.47781 28.7694 5.47781Z" fill="#FFCC4D"/>
<path d="M12.7504 18.2179C12.7504 19.3229 11.8544 20.2169 10.7504 20.2169C9.64643 20.2169 8.75043 19.3229 8.75043 18.2179C8.75043 17.1139 9.64643 16.2189 10.7504 16.2189C11.8544 16.2189 12.7504 17.1149 12.7504 18.2179ZM24.7484 18.2179C24.7484 19.3229 23.8524 20.2169 22.7484 20.2169C21.6434 20.2169 20.7484 19.3229 20.7484 18.2179C20.7484 17.1139 21.6434 16.2189 22.7484 16.2189C23.8534 16.2189 24.7484 17.1149 24.7484 18.2179Z" fill="#292F33"/>
<path d="M0.950424 28.6748C0.802424 28.6748 0.656424 28.6098 0.557424 28.4848C0.386424 28.2678 0.423424 27.9538 0.640424 27.7828C0.802424 27.6558 4.66042 24.6628 11.2884 25.1778C11.5634 25.1988 11.7694 25.4388 11.7484 25.7138C11.7274 25.9888 11.4914 26.2148 11.2114 26.1738C4.97842 25.6998 1.29642 28.5398 1.26042 28.5688C1.16742 28.6388 1.05842 28.6748 0.950424 28.6748ZM9.81842 24.0118C9.76942 24.0118 9.71842 24.0048 9.66942 23.9898C4.87942 22.4928 0.932424 23.6428 0.892424 23.6538C0.627424 23.7348 0.349424 23.5838 0.269424 23.3188C0.190424 23.0538 0.340424 22.7758 0.604424 22.6968C0.777424 22.6448 4.89042 21.4498 9.96642 23.0348C10.2304 23.1178 10.3774 23.3978 10.2944 23.6618C10.2284 23.8748 10.0314 24.0118 9.81842 24.0118ZM32.5484 28.6748C32.6964 28.6748 32.8424 28.6098 32.9414 28.4848C33.1124 28.2678 33.0754 27.9538 32.8584 27.7828C32.6964 27.6558 28.8384 24.6628 22.2104 25.1778C21.9354 25.1988 21.7294 25.4388 21.7504 25.7138C21.7724 25.9888 22.0074 26.2148 22.2874 26.1738C28.5204 25.6998 32.2024 28.5398 32.2384 28.5688C32.3314 28.6388 32.4404 28.6748 32.5484 28.6748ZM23.6804 24.0118C23.7294 24.0118 23.7804 24.0048 23.8294 23.9898C28.6194 22.4928 32.5664 23.6428 32.6064 23.6538C32.8714 23.7348 33.1494 23.5838 33.2294 23.3188C33.3084 23.0538 33.1584 22.7758 32.8944 22.6968C32.7214 22.6448 28.6084 21.4498 23.5324 23.0348C23.2684 23.1178 23.1214 23.3978 23.2044 23.6618C23.2704 23.8748 23.4674 24.0118 23.6804 24.0118Z" fill="#FEE7B8"/>
<path d="M23.4854 29.1148C23.3884 28.8568 23.1014 28.7228 22.8424 28.8208C22.2904 29.0268 21.7664 29.1318 21.2834 29.1318C20.1314 29.1318 19.7224 28.8258 19.2504 28.4728C18.7994 28.1348 18.2944 27.7578 17.2604 27.6698V25.3308C17.2604 25.0548 17.0364 24.8308 16.7604 24.8308C16.4844 24.8308 16.2604 25.0548 16.2604 25.3308V27.7038C15.4504 27.8188 14.9144 28.1428 14.4444 28.4468C13.8764 28.8138 13.3854 29.1318 12.3614 29.1318C11.8794 29.1318 11.3554 29.0278 10.8034 28.8208C10.5454 28.7258 10.2564 28.8558 10.1604 29.1148C10.0634 29.3738 10.1954 29.6618 10.4534 29.7588C11.1174 30.0058 11.7594 30.1318 12.3604 30.1318C13.6794 30.1318 14.3744 29.6828 14.9874 29.2868C15.5114 28.9478 15.9674 28.6558 16.8354 28.6518C17.8274 28.6598 18.1934 28.9298 18.6504 29.2728C19.1884 29.6758 19.7974 30.1318 21.2834 30.1318C21.8844 30.1318 22.5274 30.0058 23.1914 29.7588C23.4504 29.6618 23.5824 29.3738 23.4854 29.1148Z" fill="#67757F"/>
<path d="M18.1494 23.0239H15.3494C14.7094 23.0239 14.1864 23.5469 14.1864 24.1869C14.1864 24.8259 14.7094 25.3499 15.3494 25.3499H15.5864V25.6949C15.5864 26.3339 16.1094 26.8579 16.7494 26.8579C17.3894 26.8579 17.9124 26.3349 17.9124 25.6949V25.3499H18.1494C18.7884 25.3499 19.3124 24.8269 19.3124 24.1869C19.3124 23.5469 18.7884 23.0239 18.1494 23.0239Z" fill="#E75A70"/>
<path d="M16.7715 15.3709C16.4955 15.3709 16.2715 15.1469 16.2715 14.8709V6.58691C16.2715 6.31091 16.4955 6.08691 16.7715 6.08691C17.0475 6.08691 17.2715 6.31091 17.2715 6.58691V14.8709C17.2715 15.1479 17.0485 15.3709 16.7715 15.3709ZM19.7495 13.7889C19.4735 13.7889 19.2495 13.5649 19.2495 13.2889C19.2495 10.4069 20.4815 8.07891 20.5345 7.98091C20.6645 7.73691 20.9695 7.64691 21.2115 7.77691C21.4545 7.90691 21.5455 8.20991 21.4155 8.45391C21.4035 8.47491 20.2495 10.6669 20.2495 13.2889C20.2495 13.5649 20.0255 13.7889 19.7495 13.7889ZM13.7495 13.7889C13.4735 13.7889 13.2495 13.5649 13.2495 13.2889C13.2495 10.6659 12.0945 8.47491 12.0825 8.45391C11.9525 8.20991 12.0445 7.90791 12.2875 7.77691C12.5295 7.64591 12.8325 7.73791 12.9635 7.98091C13.0165 8.07891 14.2485 10.4069 14.2485 13.2889C14.2495 13.5649 14.0255 13.7889 13.7495 13.7889Z" fill="#F18F26"/>
</svg>
