<svg width="37" height="32" viewBox="0 0 37 32" fill="none" xmlns="http://www.w3.org/2000/svg">
<path d="M15.4752 32.0005C15.3472 32.0005 15.2192 31.9515 15.1212 31.8545C14.9262 31.6595 14.9262 31.3425 15.1212 31.1475L16.9752 29.2935V27.5005C16.9752 27.2245 17.1992 27.0005 17.4752 27.0005C17.7512 27.0005 17.9752 27.2245 17.9752 27.5005V29.7075L15.8292 31.8535C15.7312 31.9515 15.6032 32.0005 15.4752 32.0005Z" fill="#292F33"/>
<path d="M17.4752 30.0005H14.4752C14.1992 30.0005 13.9752 29.7765 13.9752 29.5005C13.9752 29.2245 14.1992 29.0005 14.4752 29.0005H17.4752C17.7512 29.0005 17.9752 29.2245 17.9752 29.5005C17.9752 29.7765 17.7512 30.0005 17.4752 30.0005ZM22.4752 32.0005C22.3472 32.0005 22.2192 31.9515 22.1212 31.8545L19.9752 29.7075V27.5005C19.9752 27.2245 20.1992 27.0005 20.4752 27.0005C20.7512 27.0005 20.9752 27.2245 20.9752 27.5005V29.2935L22.8292 31.1475C23.0242 31.3425 23.0242 31.6595 22.8292 31.8545C22.7312 31.9515 22.6032 32.0005 22.4752 32.0005Z" fill="#292F33"/>
<path d="M23.4752 30.0005H20.4752C20.1992 30.0005 19.9752 29.7765 19.9752 29.5005C19.9752 29.2245 20.1992 29.0005 20.4752 29.0005H23.4752C23.7512 29.0005 23.9752 29.2245 23.9752 29.5005C23.9752 29.7765 23.7512 30.0005 23.4752 30.0005Z" fill="#292F33"/>
<path d="M36.9752 21.9095C36.9752 25.7275 34.9762 27.0005 18.9752 27.0005C2.97422 27.0005 0.97522 25.7275 0.97522 21.9095C0.97522 9.25749 9.03422 0.000488281 18.9752 0.000488281C28.9162 0.000488281 36.9752 9.25749 36.9752 21.9095Z" fill="#A6D388"/>
<path d="M18.9752 25.0005C18.7662 25.0005 18.5712 24.8675 18.5012 24.6585C18.4142 24.3965 18.5552 24.1135 18.8172 24.0255L35.3172 18.5255C35.5802 18.4395 35.8622 18.5805 35.9502 18.8415C36.0372 19.1035 35.8952 19.3865 35.6342 19.4745L19.1342 24.9745C19.0802 24.9925 19.0272 25.0005 18.9752 25.0005ZM18.9752 22.0005C18.8202 22.0005 18.6672 21.9295 18.5702 21.7935C18.4082 21.5695 18.4582 21.2575 18.6812 21.0955L33.1812 10.5955C33.4032 10.4325 33.7172 10.4835 33.8792 10.7065C34.0412 10.9295 33.9902 11.2435 33.7672 11.4045L19.2672 21.9045C19.1802 21.9695 19.0772 22.0005 18.9752 22.0005ZM18.9752 18.0005C18.8842 18.0005 18.7922 17.9765 18.7092 17.9235C18.4762 17.7775 18.4052 17.4675 18.5522 17.2345L27.0522 3.73451C27.1992 3.50051 27.5102 3.43351 27.7412 3.57751C27.9752 3.72451 28.0452 4.03351 27.8982 4.26751L19.3982 17.7675C19.3032 17.9175 19.1412 18.0005 18.9752 18.0005Z" fill="#77B255"/>
<path d="M33.4752 25.0005C34.5798 25.0005 35.4752 24.1051 35.4752 23.0005C35.4752 21.8959 34.5798 21.0005 33.4752 21.0005C32.3707 21.0005 31.4752 21.8959 31.4752 23.0005C31.4752 24.1051 32.3707 25.0005 33.4752 25.0005Z" fill="#55ACEE"/>
<path d="M33.4752 18.0005C34.5798 18.0005 35.4752 17.1051 35.4752 16.0005C35.4752 14.8959 34.5798 14.0005 33.4752 14.0005C32.3707 14.0005 31.4752 14.8959 31.4752 16.0005C31.4752 17.1051 32.3707 18.0005 33.4752 18.0005Z" fill="#55ACEE"/>
<path d="M29.4752 11.0005C30.5798 11.0005 31.4752 10.1051 31.4752 9.00049C31.4752 7.89592 30.5798 7.00049 29.4752 7.00049C28.3707 7.00049 27.4752 7.89592 27.4752 9.00049C27.4752 10.1051 28.3707 11.0005 29.4752 11.0005Z" fill="#55ACEE"/>
<path d="M22.4752 6.00049C23.5798 6.00049 24.4752 5.10506 24.4752 4.00049C24.4752 2.89592 23.5798 2.00049 22.4752 2.00049C21.3707 2.00049 20.4752 2.89592 20.4752 4.00049C20.4752 5.10506 21.3707 6.00049 22.4752 6.00049Z" fill="#55ACEE"/>
<path d="M28.9752 26.0005C29.8036 26.0005 30.4752 25.3289 30.4752 24.5005C30.4752 23.6721 29.8036 23.0005 28.9752 23.0005C28.1468 23.0005 27.4752 23.6721 27.4752 24.5005C27.4752 25.3289 28.1468 26.0005 28.9752 26.0005Z" fill="#55ACEE"/>
<path d="M28.9752 20.0005C29.8036 20.0005 30.4752 19.3289 30.4752 18.5005C30.4752 17.6721 29.8036 17.0005 28.9752 17.0005C28.1468 17.0005 27.4752 17.6721 27.4752 18.5005C27.4752 19.3289 28.1468 20.0005 28.9752 20.0005Z" fill="#55ACEE"/>
<path d="M25.9752 14.0005C26.8036 14.0005 27.4752 13.3289 27.4752 12.5005C27.4752 11.6721 26.8036 11.0005 25.9752 11.0005C25.1468 11.0005 24.4752 11.6721 24.4752 12.5005C24.4752 13.3289 25.1468 14.0005 25.9752 14.0005Z" fill="#55ACEE"/>
<path d="M25.4752 26.0005C26.0275 26.0005 26.4752 25.5528 26.4752 25.0005C26.4752 24.4482 26.0275 24.0005 25.4752 24.0005C24.9229 24.0005 24.4752 24.4482 24.4752 25.0005C24.4752 25.5528 24.9229 26.0005 25.4752 26.0005Z" fill="#55ACEE"/>
<path d="M25.4752 21.0005C26.0275 21.0005 26.4752 20.5528 26.4752 20.0005C26.4752 19.4482 26.0275 19.0005 25.4752 19.0005C24.9229 19.0005 24.4752 19.4482 24.4752 20.0005C24.4752 20.5528 24.9229 21.0005 25.4752 21.0005Z" fill="#55ACEE"/>
<path d="M22.4752 17.0005C23.0275 17.0005 23.4752 16.5528 23.4752 16.0005C23.4752 15.4482 23.0275 15.0005 22.4752 15.0005C21.9229 15.0005 21.4752 15.4482 21.4752 16.0005C21.4752 16.5528 21.9229 17.0005 22.4752 17.0005Z" fill="#55ACEE"/>
<path d="M18.4752 25.0005C18.4232 25.0005 18.3702 24.9925 18.3172 24.9755L1.81722 19.4755C1.55522 19.3875 1.41422 19.1045 1.50122 18.8425C1.58822 18.5805 1.87022 18.4375 2.13322 18.5265L18.6332 24.0265C18.8952 24.1145 19.0362 24.3975 18.9492 24.6595C18.8792 24.8675 18.6842 25.0005 18.4752 25.0005ZM18.4752 22.0005C18.3732 22.0005 18.2712 21.9695 18.1822 21.9055L3.68222 11.4055C3.45822 11.2435 3.40922 10.9305 3.57122 10.7075C3.73222 10.4835 4.04522 10.4335 4.26922 10.5965L18.7692 21.0965C18.9932 21.2585 19.0422 21.5715 18.8802 21.7945C18.7822 21.9295 18.6292 22.0005 18.4752 22.0005ZM18.4752 18.0005C18.3092 18.0005 18.1462 17.9175 18.0512 17.7675L9.55122 4.26746C9.40522 4.03346 9.47522 3.72446 9.70822 3.57746C9.94422 3.43146 10.2512 3.50046 10.3982 3.73346L18.8982 17.2335C19.0452 17.4665 18.9752 17.7765 18.7412 17.9225C18.6592 17.9765 18.5662 18.0005 18.4752 18.0005Z" fill="#77B255"/>
<path d="M18.4752 20.0005C18.1992 20.0005 17.9752 19.7765 17.9752 19.5005V1.50049C17.9752 1.22449 18.1992 1.00049 18.4752 1.00049C18.7512 1.00049 18.9752 1.22449 18.9752 1.50049V19.5005C18.9752 19.7765 18.7512 20.0005 18.4752 20.0005Z" fill="#77B255"/>
<path d="M15.9752 12.0005C14.9752 10.0005 15.9752 8.00049 15.9752 8.00049C15.9752 8.00049 15.9752 9.00049 16.9752 10.0005C16.9752 7.00049 17.9752 7.00049 17.9752 7.00049C17.9752 7.00049 17.9752 9.00049 18.9752 10.0005C19.9752 11.0005 15.9752 12.0005 15.9752 12.0005ZM23.9722 25.0005C23.5392 23.0005 22.2472 21.9395 21.4132 20.5005C20.7422 19.3445 19.2792 16.7505 21.2812 13.8825C21.8132 13.1205 19.3962 12.0515 18.9762 12.0055V12.0015L18.9612 12.0035L18.9462 12.0015V12.0055C18.5262 12.0515 16.1092 13.1205 16.6412 13.8825C18.6432 16.7505 17.1792 19.3445 16.5092 20.5005C15.6752 21.9395 14.3832 23.0005 13.9502 25.0005C13.5882 26.6685 16.1972 28.9815 18.9472 28.9985L18.9622 28.9995L18.9752 29.0005V28.9985C21.7252 28.9815 24.3332 26.6685 23.9722 25.0005Z" fill="#226699"/>
<path d="M19.9752 12.0005C22.9752 12.0005 25.9752 14.0005 25.9752 14.0005C25.9752 14.0005 22.9752 15.0005 19.9752 14.0005C16.9752 13.0005 19.9752 12.0005 19.9752 12.0005Z" fill="#292F33"/>
<path d="M18.9752 15.0005C20.6321 15.0005 21.9752 13.6573 21.9752 12.0005C21.9752 10.3436 20.6321 9.00049 18.9752 9.00049C17.3184 9.00049 15.9752 10.3436 15.9752 12.0005C15.9752 13.6573 17.3184 15.0005 18.9752 15.0005Z" fill="#226699"/>
<path d="M19.9752 13.0005C20.5275 13.0005 20.9752 12.5528 20.9752 12.0005C20.9752 11.4482 20.5275 11.0005 19.9752 11.0005C19.4229 11.0005 18.9752 11.4482 18.9752 12.0005C18.9752 12.5528 19.4229 13.0005 19.9752 13.0005Z" fill="#292F33"/>
<path d="M3.97522 25.0005C5.07979 25.0005 5.97522 24.1051 5.97522 23.0005C5.97522 21.8959 5.07979 21.0005 3.97522 21.0005C2.87065 21.0005 1.97522 21.8959 1.97522 23.0005C1.97522 24.1051 2.87065 25.0005 3.97522 25.0005Z" fill="#55ACEE"/>
<path d="M3.97522 18.0005C5.07979 18.0005 5.97522 17.1051 5.97522 16.0005C5.97522 14.8959 5.07979 14.0005 3.97522 14.0005C2.87065 14.0005 1.97522 14.8959 1.97522 16.0005C1.97522 17.1051 2.87065 18.0005 3.97522 18.0005Z" fill="#55ACEE"/>
<path d="M7.97522 11.0005C9.07979 11.0005 9.97522 10.1051 9.97522 9.00049C9.97522 7.89592 9.07979 7.00049 7.97522 7.00049C6.87065 7.00049 5.97522 7.89592 5.97522 9.00049C5.97522 10.1051 6.87065 11.0005 7.97522 11.0005Z" fill="#55ACEE"/>
<path d="M14.9752 6.00049C16.0798 6.00049 16.9752 5.10506 16.9752 4.00049C16.9752 2.89592 16.0798 2.00049 14.9752 2.00049C13.8707 2.00049 12.9752 2.89592 12.9752 4.00049C12.9752 5.10506 13.8707 6.00049 14.9752 6.00049Z" fill="#55ACEE"/>
<path d="M8.47522 26.0005C9.30365 26.0005 9.97522 25.3289 9.97522 24.5005C9.97522 23.6721 9.30365 23.0005 8.47522 23.0005C7.64679 23.0005 6.97522 23.6721 6.97522 24.5005C6.97522 25.3289 7.64679 26.0005 8.47522 26.0005Z" fill="#55ACEE"/>
<path d="M8.47522 20.0005C9.30365 20.0005 9.97522 19.3289 9.97522 18.5005C9.97522 17.6721 9.30365 17.0005 8.47522 17.0005C7.64679 17.0005 6.97522 17.6721 6.97522 18.5005C6.97522 19.3289 7.64679 20.0005 8.47522 20.0005Z" fill="#55ACEE"/>
<path d="M11.4752 14.0005C12.3036 14.0005 12.9752 13.3289 12.9752 12.5005C12.9752 11.6721 12.3036 11.0005 11.4752 11.0005C10.6468 11.0005 9.97522 11.6721 9.97522 12.5005C9.97522 13.3289 10.6468 14.0005 11.4752 14.0005Z" fill="#55ACEE"/>
<path d="M11.9752 26.0005C12.5275 26.0005 12.9752 25.5528 12.9752 25.0005C12.9752 24.4482 12.5275 24.0005 11.9752 24.0005C11.4229 24.0005 10.9752 24.4482 10.9752 25.0005C10.9752 25.5528 11.4229 26.0005 11.9752 26.0005Z" fill="#55ACEE"/>
<path d="M11.9752 21.0005C12.5275 21.0005 12.9752 20.5528 12.9752 20.0005C12.9752 19.4482 12.5275 19.0005 11.9752 19.0005C11.4229 19.0005 10.9752 19.4482 10.9752 20.0005C10.9752 20.5528 11.4229 21.0005 11.9752 21.0005Z" fill="#55ACEE"/>
<path d="M14.9752 17.0005C15.5275 17.0005 15.9752 16.5528 15.9752 16.0005C15.9752 15.4482 15.5275 15.0005 14.9752 15.0005C14.4229 15.0005 13.9752 15.4482 13.9752 16.0005C13.9752 16.5528 14.4229 17.0005 14.9752 17.0005Z" fill="#55ACEE"/>
</svg>
