<svg width="37" height="36" viewBox="0 0 37 36" fill="none" xmlns="http://www.w3.org/2000/svg">
<path d="M6.507 22.7243C8.54378 22.1785 9.56285 19.3771 8.78315 16.467C8.00346 13.5569 5.72025 11.6402 3.68347 12.186C1.64668 12.7317 0.627614 15.5332 1.40731 18.4432C2.18701 21.3533 4.47022 23.27 6.507 22.7243Z" fill="#D79E84"/>
<path d="M34.7834 18.4431C35.5631 15.5331 34.544 12.7316 32.5072 12.1859C30.4705 11.6402 28.1873 13.5569 27.4076 16.4669C26.6279 19.377 27.6469 22.1785 29.6837 22.7242C31.7205 23.2699 34.0037 21.3532 34.7834 18.4431Z" fill="#D79E84"/>
<path d="M19.0635 36H17.0275C10.3095 36 3.79547 30.848 3.79547 23.636C3.79547 19.515 5.32247 17.454 5.32247 17.454C5.32247 17.454 4.81347 15.393 4.81347 13.333C4.81347 7.152 11.3275 2 18.0455 2C24.7635 2 31.2775 8.182 31.2775 13.333C31.2775 15.394 30.7685 17.454 30.7685 17.454C30.7685 17.454 32.2955 19.515 32.2955 23.636C32.2955 30.848 25.7815 36 19.0635 36Z" fill="#BF6952"/>
<path d="M30.0455 16.042C30.0455 12.153 26.8705 9 22.9545 9C21.0475 9 19.3195 9.752 18.0455 10.968C16.7715 9.752 15.0435 9 13.1365 9C9.22047 9 6.04547 12.153 6.04547 16.042C6.04547 18.401 7.21747 20.483 9.01047 21.761C8.50747 22.999 8.22747 24.361 8.22747 25.792C8.22747 31.476 12.6235 35 18.0455 35C23.4675 35 27.8635 31.476 27.8635 25.792C27.8635 24.361 27.5835 22.999 27.0805 21.761C28.8735 20.483 30.0455 18.4 30.0455 16.042Z" fill="#D79E84"/>
<path d="M13.0455 20.25C14.2881 20.25 15.2955 18.7949 15.2955 17C15.2955 15.2051 14.2881 13.75 13.0455 13.75C11.8028 13.75 10.7955 15.2051 10.7955 17C10.7955 18.7949 11.8028 20.25 13.0455 20.25Z" fill="#292F33"/>
<path d="M23.0455 20.25C24.2881 20.25 25.2955 18.7949 25.2955 17C25.2955 15.2051 24.2881 13.75 23.0455 13.75C21.8028 13.75 20.7955 15.2051 20.7955 17C20.7955 18.7949 21.8028 20.25 23.0455 20.25Z" fill="#292F33"/>
<path d="M18.0455 32.7271C20.8835 32.7271 23.2995 31.2221 24.2075 29.1171C24.5825 28.2461 23.9455 27.2731 22.9975 27.2731H13.0935C12.1455 27.2731 11.5085 28.2471 11.8835 29.1171C12.7915 31.2221 15.2075 32.7271 18.0455 32.7271Z" fill="#642116"/>
<path d="M16.2955 24C16.8478 24 17.2955 23.5523 17.2955 23C17.2955 22.4477 16.8478 22 16.2955 22C15.7432 22 15.2955 22.4477 15.2955 23C15.2955 23.5523 15.7432 24 16.2955 24Z" fill="#642116"/>
<path d="M19.7955 24C20.3478 24 20.7955 23.5523 20.7955 23C20.7955 22.4477 20.3478 22 19.7955 22C19.2432 22 18.7955 22.4477 18.7955 23C18.7955 23.5523 19.2432 24 19.7955 24Z" fill="#642116"/>
<path d="M22.7055 0.175048C22.7055 0.175048 17.2505 -0.915952 15.0695 2.35705C12.8885 5.63005 19.4335 3.44805 19.4335 3.44805C19.4335 3.44805 20.5235 0.175048 22.7055 0.175048Z" fill="#BF6952"/>
</svg>
