<svg width="37" height="36" viewBox="0 0 37 36" fill="none" xmlns="http://www.w3.org/2000/svg">
<path d="M16.2614 14.9437C14.8034 12.6107 15.5944 7.23566 16.2614 5.98566C16.9284 4.73566 15.7194 3.52766 14.7614 5.52766C13.8034 7.52766 13.7654 8.52766 11.5994 7.98566C9.43343 7.44366 10.5114 4.69366 11.2204 2.36066C11.9494 -0.0393379 10.3034 0.401662 9.55343 1.90266C8.80343 3.40266 8.29943 7.59566 6.65243 7.88666C5.00543 8.17766 0.553426 8.48566 3.80143 2.23566C5.10843 -0.278338 3.06343 -0.795338 1.97043 1.31966C0.651426 3.86766 -0.113574 7.11066 0.511426 8.48566C1.62443 10.9337 3.99443 11.4357 7.49443 10.7697C10.9944 10.1037 13.5954 10.1357 13.5954 11.9027C13.5954 13.7747 13.8034 15.3607 14.6374 15.5277C15.4714 15.6947 16.2614 14.9437 16.2614 14.9437ZM20.3184 14.9437C21.7764 12.6107 20.9854 7.23566 20.3184 5.98566C19.6514 4.73566 20.8604 3.52766 21.8184 5.52766C22.7764 7.52766 22.8144 8.52766 24.9804 7.98566C27.1464 7.44366 26.0684 4.69366 25.3594 2.36066C24.6304 -0.0393379 26.2764 0.401662 27.0264 1.90266C27.7764 3.40366 28.2804 7.59566 29.9274 7.88666C31.5744 8.17866 36.0264 8.48566 32.7784 2.23566C31.4714 -0.278338 33.5154 -0.795338 34.6094 1.31966C35.9274 3.86866 36.6934 7.11166 36.0684 8.48666C34.9554 10.9347 32.5864 11.4367 29.0864 10.7707C25.5864 10.1047 22.9844 10.1367 22.9844 11.9037C22.9844 13.7757 22.7764 15.3617 21.9434 15.5287C21.1104 15.6957 20.3184 14.9437 20.3184 14.9437Z" fill="#662113"/>
<path d="M14.1494 15.3557C14.7454 17.7477 14.3094 19.7777 11.9184 20.3727C9.52641 20.9687 5.57441 20.9317 3.96041 19.0697C1.66641 16.4237 1.42941 12.6787 2.77141 12.3447C4.11141 12.0107 13.5544 12.9647 14.1494 15.3557ZM22.4324 15.3557C21.8364 17.7477 22.2724 19.7777 24.6634 20.3727C27.0554 20.9687 31.0084 20.9317 32.6214 19.0697C34.9164 16.4237 35.1524 12.6787 33.8104 12.3447C32.4704 12.0107 23.0274 12.9647 22.4324 15.3557Z" fill="#C1694F"/>
<path d="M2.7704 12.3446C1.8274 12.5796 1.6684 14.5016 2.4534 16.5426L5.8274 12.4086C4.3704 12.2626 3.1844 12.2416 2.7704 12.3446ZM33.8114 12.3446C33.3924 12.2406 32.1794 12.2616 30.6934 12.4136L34.1384 16.5196C34.9124 14.4876 34.7514 12.5786 33.8114 12.3446Z" fill="#272B2B"/>
<path d="M12.3424 15.8577C13.2134 17.2507 11.7894 18.0867 10.3964 18.9567C9.00241 19.8277 5.7884 18.7537 4.9174 17.3607C4.0464 15.9667 3.73141 14.2297 4.24141 13.9107C4.75141 13.5927 11.4714 14.4637 12.3424 15.8577ZM24.2384 15.8577C23.3674 17.2507 24.7914 18.0867 26.1834 18.9567C27.5774 19.8277 30.7914 18.7537 31.6624 17.3607C32.5334 15.9667 32.8474 14.2297 32.3384 13.9107C31.8284 13.5927 25.1094 14.4637 24.2384 15.8577Z" fill="#E6AAAA"/>
<path d="M18.2904 13.9857H18.2884C8.01742 13.9867 9.58542 17.9447 10.6854 24.5267C11.7854 31.1107 13.0864 35.7827 18.2904 35.7827C23.4934 35.7827 24.7924 31.1107 25.8944 24.5267C26.9934 17.9447 28.5604 13.9867 18.2904 13.9857Z" fill="#C1694F"/>
<path d="M12.1164 22.7116C12.1164 22.7116 11.3664 21.4126 12.6654 20.6626C13.9644 19.9126 14.7144 21.2116 14.7144 21.2116L15.4644 22.5106C15.4644 22.5106 16.2144 23.8096 14.9154 24.5596C13.6164 25.3096 12.8664 24.0106 12.8664 24.0106L12.1164 22.7116ZM21.8664 21.2116C21.8664 21.2116 22.6164 19.9126 23.9154 20.6626C25.2144 21.4126 24.4644 22.7116 24.4644 22.7116L23.7144 24.0106C23.7144 24.0106 22.9644 25.3096 21.6654 24.5596C20.3664 23.8096 21.1164 22.5106 21.1164 22.5106L21.8664 21.2116ZM15.5164 34.1266C14.5914 33.9386 17.3664 30.5306 18.2904 30.5306C19.2144 30.5306 21.9894 33.9376 21.0644 34.1266C20.1404 34.3146 16.4404 34.3146 15.5164 34.1266Z" fill="#272B2B"/>
</svg>
