<svg width="36" height="34" viewBox="0 0 36 34" fill="none" xmlns="http://www.w3.org/2000/svg">
<path d="M15.2294 24.8796V30.8796C15.2294 30.8796 15.2294 33.8796 18.2294 33.8796C21.2294 33.8796 21.2294 30.8796 21.2294 30.8796V24.8796H15.2294Z" fill="#DD2E44"/>
<path d="M15.2294 30.8796L15.2304 30.9166C16.2714 30.8816 17.2464 30.6426 17.8624 29.6306C18.0334 29.3496 18.4254 29.3496 18.5974 29.6306C19.2134 30.6416 20.1884 30.8816 21.2294 30.9166V24.8796H15.2294V30.8796Z" fill="#BE1931"/>
<path d="M32.1833 19.4986C32.1833 25.7746 27.1833 25.7746 27.1833 25.7746H9.18335C9.18335 25.7746 4.18335 25.7746 4.18335 19.4986C4.18335 12.7746 9.18335 0.879639 18.1833 0.879639C27.1833 0.879639 32.1833 13.7746 32.1833 19.4986Z" fill="#D99E82"/>
<path d="M18.2294 17.8796C11.2294 17.8796 8.22937 21.4066 8.22937 24.2746C8.22937 27.3116 10.6914 29.7746 13.7294 29.7746C15.3344 29.7746 16.7714 29.1106 17.7784 27.0076C17.9634 26.6216 18.4944 26.6216 18.6794 27.0076C19.6864 29.1106 21.1244 29.7746 22.7284 29.7746C25.7664 29.7746 28.2284 27.3116 28.2284 24.2746C28.2294 21.4066 25.2294 17.8796 18.2294 17.8796Z" fill="#F4C7B5"/>
<path d="M15.2294 20.7746C14.2294 21.7746 17.2294 24.7746 18.2294 24.7746C19.2294 24.7746 22.2294 21.7746 21.2294 20.7746C20.2294 19.7746 16.2294 19.7746 15.2294 20.7746ZM13.2294 16.8796C12.1294 16.8796 11.2294 15.9796 11.2294 14.8796V12.8796C11.2294 11.7796 12.1294 10.8796 13.2294 10.8796C14.3294 10.8796 15.2294 11.7796 15.2294 12.8796V14.8796C15.2294 15.9796 14.3294 16.8796 13.2294 16.8796ZM23.2294 16.8796C22.1294 16.8796 21.2294 15.9796 21.2294 14.8796V12.8796C21.2294 11.7796 22.1294 10.8796 23.2294 10.8796C24.3294 10.8796 25.2294 11.7796 25.2294 12.8796V14.8796C25.2294 15.9796 24.3294 16.8796 23.2294 16.8796Z" fill="#292F33"/>
<path d="M15.2293 1.4877C14.1703 0.0786957 11.9103 -1.2393 3.05734 2.0797C-1.08666 3.6337 0.93734 15.6837 4.16434 16.4647C5.27034 16.4647 8.59034 16.4647 8.59034 7.6127C8.59034 7.3927 8.58834 7.1897 8.58534 6.9877C10.5793 4.1777 12.7293 2.7367 15.2293 1.4877ZM33.4013 2.0797C24.5483 -1.2393 22.2883 0.0786957 21.2293 1.4877C23.7293 2.7377 25.8793 4.1787 27.8733 6.9887C27.8703 7.1897 27.8683 7.3927 27.8683 7.6137C27.8683 16.4657 31.1873 16.4657 32.2943 16.4657C35.5213 15.6837 37.5453 3.6337 33.4013 2.0797Z" fill="#662113"/>
<path d="M23.7294 23.8796C24.0055 23.8796 24.2294 23.6558 24.2294 23.3796C24.2294 23.1035 24.0055 22.8796 23.7294 22.8796C23.4532 22.8796 23.2294 23.1035 23.2294 23.3796C23.2294 23.6558 23.4532 23.8796 23.7294 23.8796Z" fill="#D99E82"/>
<path d="M11.7294 23.8796C12.0055 23.8796 12.2294 23.6558 12.2294 23.3796C12.2294 23.1035 12.0055 22.8796 11.7294 22.8796C11.4532 22.8796 11.2294 23.1035 11.2294 23.3796C11.2294 23.6558 11.4532 23.8796 11.7294 23.8796Z" fill="#D99E82"/>
<path d="M25.7294 25.8796C26.0055 25.8796 26.2294 25.6558 26.2294 25.3796C26.2294 25.1035 26.0055 24.8796 25.7294 24.8796C25.4532 24.8796 25.2294 25.1035 25.2294 25.3796C25.2294 25.6558 25.4532 25.8796 25.7294 25.8796Z" fill="#D99E82"/>
<path d="M10.7294 25.8796C11.0055 25.8796 11.2294 25.6558 11.2294 25.3796C11.2294 25.1035 11.0055 24.8796 10.7294 24.8796C10.4532 24.8796 10.2294 25.1035 10.2294 25.3796C10.2294 25.6558 10.4532 25.8796 10.7294 25.8796Z" fill="#D99E82"/>
<path d="M23.2294 26.8796C23.7817 26.8796 24.2294 26.4319 24.2294 25.8796C24.2294 25.3274 23.7817 24.8796 23.2294 24.8796C22.6771 24.8796 22.2294 25.3274 22.2294 25.8796C22.2294 26.4319 22.6771 26.8796 23.2294 26.8796Z" fill="#D99E82"/>
<path d="M13.2294 26.8796C13.7817 26.8796 14.2294 26.4319 14.2294 25.8796C14.2294 25.3274 13.7817 24.8796 13.2294 24.8796C12.6771 24.8796 12.2294 25.3274 12.2294 25.8796C12.2294 26.4319 12.6771 26.8796 13.2294 26.8796Z" fill="#D99E82"/>
<path d="M10.1123 5.11164C9.85332 4.43864 9.47831 3.71464 8.93631 3.17264C8.54531 2.78164 7.91331 2.78164 7.52231 3.17264C7.13131 3.56364 7.13131 4.19564 7.52231 4.58664C8.09231 5.15664 8.58831 6.52064 8.59031 6.93264C8.73531 6.52864 9.42932 5.78264 10.1123 5.11164ZM26.3293 5.11164C26.5883 4.43964 26.9633 3.71464 27.5053 3.17264C27.8963 2.78164 28.5283 2.78164 28.9193 3.17264C29.3103 3.56364 29.3103 4.19564 28.9193 4.58664C28.3493 5.15664 27.8533 6.52064 27.8513 6.93264C27.7063 6.52864 27.0123 5.78264 26.3293 5.11164Z" fill="#380F09"/>
</svg>
