<svg width="26" height="35" viewBox="0 0 26 35" fill="none" xmlns="http://www.w3.org/2000/svg">
<path d="M2.31631 10.2505C-3.40669 19.3335 3.2743 28.2505 3.2743 28.2505C3.2743 28.2505 6.1483 27.8085 10.1493 23.0505C14.1493 18.2925 2.31631 10.2505 2.31631 10.2505ZM23.6583 10.2505C29.3813 19.3335 22.7003 28.2505 22.7003 28.2505C22.7003 28.2505 19.8263 27.8085 15.8253 23.0505C11.8243 18.2925 23.6583 10.2505 23.6583 10.2505Z" fill="#662113"/>
<path d="M10.2023 30.8075C10.0793 30.5785 9.88529 30.4235 9.67129 30.3115C7.63929 28.1395 9.08229 25.5945 9.08229 25.5945C9.08229 24.8915 10.3533 23.0505 9.08229 23.0505L7.81029 24.3225C6.53829 25.5935 6.53829 29.4115 6.53829 29.4115H3.99429C3.29129 29.4115 2.72229 29.9795 2.72229 30.6835C2.72229 31.3845 3.29129 31.9545 3.99429 31.9545H5.40229L5.12029 32.1075C4.50229 32.4415 4.27229 33.2125 4.60629 33.8335C4.94029 34.4495 5.71229 34.6815 6.33029 34.3475L9.68729 32.5315C10.3063 32.1975 10.5333 31.4265 10.2023 30.8075ZM15.7983 30.8075C15.9213 30.5785 16.1153 30.4235 16.3283 30.3115C18.3613 28.1395 16.9173 25.5945 16.9173 25.5945C16.9173 24.8915 15.6463 23.0505 16.9173 23.0505L18.1893 24.3225C19.4623 25.5935 19.4623 29.4115 19.4623 29.4115H22.0063C22.7103 29.4115 23.2773 29.9795 23.2773 30.6835C23.2773 31.3845 22.7113 31.9545 22.0063 31.9545H20.5983L20.8793 32.1075C21.4993 32.4415 21.7273 33.2125 21.3943 33.8335C21.0583 34.4495 20.2893 34.6815 19.6683 34.3475L16.3123 32.5315C15.6933 32.1975 15.4653 31.4265 15.7983 30.8075Z" fill="#FFAC33"/>
<path d="M23.2773 10.5425C26.1683 4.45049 23.2773 0.000488281 23.2773 0.000488281C23.2773 0.000488281 17.4963 0.959488 16.5333 2.87549C15.3143 5.29949 23.2773 10.5425 23.2773 10.5425Z" fill="#662113"/>
<path d="M24.5613 11.9885C24.5613 22.2855 21.4093 32.5835 12.9993 32.5835C4.59028 32.5835 1.43628 22.2855 1.43628 11.9885C1.43628 1.6905 6.61328 1.3335 12.9993 1.3335C19.3863 1.3335 24.5613 1.6905 24.5613 11.9885Z" fill="#662113"/>
<path d="M22.6653 16.9885C22.6653 27.2855 14.8913 31.5835 12.9993 31.5835C11.1073 31.5835 3.33331 27.2855 3.33331 16.9885C3.33331 6.69051 22.6653 6.69051 22.6653 16.9885Z" fill="#C1694F"/>
<path d="M2.72129 10.5425C-0.16971 4.45049 2.72129 0.000488281 2.72129 0.000488281C2.72129 0.000488281 8.50329 0.959488 9.46729 2.87549C10.6853 5.29949 2.72129 10.5425 2.72129 10.5425Z" fill="#662113"/>
<path d="M9.92833 3.62349C5.70133 2.03949 2.72133 0.000488281 2.72133 0.000488281C2.72133 0.000488281 0.645327 3.22149 1.79333 7.92649C2.23933 10.0635 3.73333 12.1215 5.69733 12.5885C8.33433 13.2155 12.9993 12.5395 12.9993 8.62549C12.9993 5.93049 11.9253 4.37349 9.92833 3.62349ZM16.0703 3.62349C20.2973 2.03949 23.2763 0.000488281 23.2763 0.000488281C23.2763 0.000488281 25.3523 3.22149 24.2043 7.92649C23.7593 10.0635 22.2653 12.1215 20.3023 12.5885C17.6643 13.2155 12.9993 12.5395 12.9993 8.62549C12.9993 5.93049 14.0733 4.37349 16.0703 3.62349Z" fill="#C1694F"/>
<path d="M11.0823 7.66747C11.0823 9.78447 9.36632 11.5005 7.24932 11.5005C5.13232 11.5005 3.41632 9.78447 3.41632 7.66747C3.41632 5.55047 5.13332 3.83447 7.24932 3.83447C9.36632 3.83347 11.0823 5.55047 11.0823 7.66747ZM22.5823 7.66747C22.5823 9.78447 20.8663 11.5005 18.7493 11.5005C16.6323 11.5005 14.9163 9.78447 14.9163 7.66747C14.9163 5.55047 16.6323 3.83447 18.7493 3.83447C20.8663 3.83447 22.5823 5.55047 22.5823 7.66747Z" fill="#FFD983"/>
<path d="M9.16628 7.66749C9.16628 8.72649 8.30828 9.58449 7.24928 9.58449C6.19028 9.58449 5.33228 8.72649 5.33228 7.66749C5.33228 6.60949 6.19028 5.75049 7.24928 5.75049C8.30828 5.75049 9.16628 6.60849 9.16628 7.66749ZM20.6663 7.66749C20.6663 8.72649 19.8083 9.58449 18.7493 9.58449C17.6903 9.58449 16.8323 8.72649 16.8323 7.66749C16.8323 6.60949 17.6903 5.75049 18.7493 5.75049C19.8083 5.75049 20.6663 6.60849 20.6663 7.66749Z" fill="#292F33"/>
<path d="M15.8743 11.9795C15.8743 14.3615 12.9993 15.3335 12.9993 15.3335C12.9993 15.3335 10.1243 14.3605 10.1243 11.9795C10.1243 9.59849 12.9993 8.62549 12.9993 8.62549C12.9993 8.62549 15.8743 9.59749 15.8743 11.9795Z" fill="#FFCC4D"/>
<path d="M15.8743 11.9795C15.8743 14.3615 12.9993 15.3335 12.9993 15.3335C12.9993 15.3335 10.1243 14.3605 10.1243 11.9795C11.3223 13.1775 12.9993 13.4175 12.9993 13.4175C12.9993 13.4175 14.6763 13.1775 15.8743 11.9795Z" fill="#F4900C"/>
</svg>
