<svg width="37" height="33" viewBox="0 0 37 33" fill="none" xmlns="http://www.w3.org/2000/svg">
<path d="M34.742 12.5733C33.878 5.27333 29.013 2.12633 20.812 2.12633C20.421 2.12633 20.049 2.14333 19.673 2.15733C19.66 2.14733 19.651 2.13633 19.638 2.12633C14.944 -1.39467 4.38 -0.220672 2.034 3.30033C-1.221 8.18333 0.860004 25.6003 2.034 27.9463C3.207 30.2963 6.728 31.4673 7.902 30.2963C9.076 29.1203 7.902 29.1203 6.729 26.7753C5.879 25.0743 6.263 20.9163 6.984 18.3043C7.012 18.4723 7.052 18.6263 7.084 18.7903C7.474 21.6613 9.077 26.2023 9.077 28.5343C9.077 32.0983 11.179 32.6413 13.771 32.6413C16.364 32.6413 18.466 32.0983 18.466 28.5343C18.466 28.2943 18.458 28.0713 18.454 27.8393C19.211 27.9033 19.989 27.9463 20.813 27.9463C21.31 27.9463 21.79 27.9303 22.261 27.9073C22.257 28.1163 22.248 28.3173 22.248 28.5343C22.248 32.0983 24.351 32.6413 26.942 32.6413C29.535 32.6413 31.637 32.0983 31.637 28.5343C31.637 26.7333 32.829 23.9093 33.676 21.5523C33.835 21.1983 33.967 20.8203 34.096 20.4353C34.214 21.7423 34.289 23.1413 34.289 24.6413C34.289 25.1943 34.736 25.6413 35.289 25.6413C35.842 25.6413 36.289 25.1943 36.289 24.6413C36.289 19.4883 35.518 15.3933 34.742 12.5733Z" fill="#99AAB5"/>
<path d="M19.639 2.12634C19.639 2.12634 23.289 7.64134 20.289 12.6413C17.289 17.6413 12.451 17.6413 9.28898 17.6413C7.28898 17.6413 8.28898 19.6413 9.28898 19.6413C10.703 19.6413 17.684 20.8523 21.289 13.6413C24.289 7.64134 19.639 2.12634 19.639 2.12634Z" fill="#66757F"/>
<path d="M6.789 12.6414C7.61743 12.6414 8.289 11.9698 8.289 11.1414C8.289 10.3129 7.61743 9.64136 6.789 9.64136C5.96057 9.64136 5.289 10.3129 5.289 11.1414C5.289 11.9698 5.96057 12.6414 6.789 12.6414Z" fill="#292F33"/>
</svg>
