<svg width="36" height="36" viewBox="0 0 36 36" fill="none" xmlns="http://www.w3.org/2000/svg">
<path d="M32.167 10.9585C32.167 10.9585 34.482 10.9825 35.678 12.1355C35.342 7.16449 33.574 3.88649 29.734 2.00549C26.593 0.886488 23.668 3.45849 23.668 3.45849C23.668 3.45849 24.53 1.46849 25.858 0.712488C23.631 0.236488 20.988 0.000488281 17.842 0.000488281C14.706 0.000488281 12.057 0.227488 9.836 0.701488C11.177 1.44649 12.051 3.45949 12.051 3.45949C12.051 3.45949 9.036 0.803488 5.842 2.05349C2.063 3.94949 0.323 7.22349 0 12.1745C1.183 10.9845 3.55 10.9595 3.55 10.9595C3.55 10.9595 -0.263 13.2675 0.124 16.6145C0.511 19.5615 1.518 22.5815 3.003 25.3365C2.881 22.1505 5.759 20.0005 5.759 20.0005C5.759 20.0005 3.267 25.9605 5.178 28.7385C7.113 31.2805 9.491 33.3795 12.154 34.6545C11.199 33.0095 12.018 31.6105 12.051 31.7095C12.093 31.8345 12.51 34.8215 14.188 35.4525C15.366 35.8085 16.588 36.0005 17.842 36.0005C19.134 36.0005 20.392 35.7935 21.603 35.4175C23.217 34.7265 23.627 31.8325 23.667 31.7095C23.699 31.6115 24.51 32.9965 23.577 34.6305C26.283 33.3215 28.695 31.1675 30.641 28.5575C32.34 25.7115 29.958 20.0005 29.958 20.0005C29.958 20.0005 32.808 22.1305 32.715 25.2885C34.271 22.3825 35.3 19.1845 35.626 16.0885C35.591 13.0275 32.167 10.9585 32.167 10.9585Z" fill="#662113"/>
<path d="M13.701 9.49544C14.297 11.8874 13.861 13.9174 11.47 14.5124C9.07798 15.1084 5.10698 14.5994 4.51198 12.2084C3.91598 9.81644 4.98098 6.81844 6.32198 6.48444C7.66298 6.15044 13.106 7.10444 13.701 9.49544ZM22.805 27.9274C22.805 30.6674 20.583 32.8904 17.842 32.8904C15.101 32.8904 12.879 30.6674 12.879 27.9274C12.879 25.1864 15.102 22.9634 17.842 22.9634C20.583 22.9634 22.805 25.1854 22.805 27.9274Z" fill="#FFCC4D"/>
<path d="M21.151 27.9274C21.151 29.7544 19.67 31.2364 17.842 31.2364C16.014 31.2364 14.533 29.7554 14.533 27.9274C14.533 26.1004 16.014 24.6174 17.842 24.6174C19.67 24.6174 21.151 26.1004 21.151 27.9274Z" fill="#DD2E44"/>
<path d="M10.894 8.99745C11.765 10.3905 11.341 12.2265 9.94803 13.0975C8.55403 13.9685 7.34003 13.8945 6.46903 12.5015C5.59803 11.1075 6.28303 8.37045 6.79303 8.05145C7.30303 7.73245 10.023 7.60345 10.894 8.99745Z" fill="#E6AAAA"/>
<path d="M21.983 9.49544C21.387 11.8874 21.824 13.9174 24.215 14.5124C26.607 15.1084 30.578 14.5994 31.174 12.2084C31.77 9.81644 30.704 6.81844 29.363 6.48444C28.021 6.15044 22.577 7.10444 21.983 9.49544Z" fill="#FFCC4D"/>
<path d="M24.79 8.99745C23.919 10.3905 24.343 12.2265 25.735 13.0975C27.129 13.9685 28.343 13.8945 29.214 12.5015C30.085 11.1075 29.399 8.37045 28.89 8.05145C28.38 7.73245 25.661 7.60345 24.79 8.99745Z" fill="#E6AAAA"/>
<path d="M17.842 7.12549H17.84C5.009 7.12649 6.967 12.0835 8.342 18.6675C9.717 25.2505 10.226 27.0005 10.226 27.0005H25.454C25.454 27.0005 25.964 25.2505 27.339 18.6675C28.714 12.0835 30.671 7.12649 17.842 7.12549Z" fill="#FFCC4D"/>
<path d="M11.842 16.0005C11.842 16.0005 11.842 14.5005 13.342 14.5005C14.842 14.5005 14.842 16.0005 14.842 16.0005V17.5005C14.842 17.5005 14.842 19.0005 13.342 19.0005C11.842 19.0005 11.842 17.5005 11.842 17.5005V16.0005ZM20.842 16.0005C20.842 16.0005 20.842 14.5005 22.342 14.5005C23.842 14.5005 23.842 16.0005 23.842 16.0005V17.5005C23.842 17.5005 23.842 19.0005 22.342 19.0005C20.842 19.0005 20.842 17.5005 20.842 17.5005V16.0005Z" fill="#272B2B"/>
<path d="M20.01 21.5215C18.412 21.5215 18.625 22.3695 17.842 23.6345C17.059 22.3685 17.271 21.5215 15.674 21.5215C8.80897 21.5215 8.83697 21.8965 8.80897 24.3495C8.75097 29.3355 11.611 30.4815 14.066 30.4095C15.663 30.3615 17.06 29.5295 17.843 28.2785C18.626 29.5295 20.022 30.3615 21.619 30.4095C24.074 30.4815 26.934 29.3365 26.876 24.3495C26.847 21.8965 26.875 21.5215 20.01 21.5215Z" fill="#FFE8B6"/>
<path d="M14.424 21.4115C13.284 21.6445 16.703 25.8425 17.842 25.8425C18.981 25.8425 22.401 21.6445 21.261 21.4115C20.121 21.1795 15.563 21.1795 14.424 21.4115Z" fill="#272B2B"/>
<path d="M11.342 25.0005C11.6181 25.0005 11.842 24.7766 11.842 24.5005C11.842 24.2243 11.6181 24.0005 11.342 24.0005C11.0658 24.0005 10.842 24.2243 10.842 24.5005C10.842 24.7766 11.0658 25.0005 11.342 25.0005Z" fill="#D99E82"/>
<path d="M10.342 27.0005C10.6181 27.0005 10.842 26.7766 10.842 26.5005C10.842 26.2243 10.6181 26.0005 10.342 26.0005C10.0658 26.0005 9.84198 26.2243 9.84198 26.5005C9.84198 26.7766 10.0658 27.0005 10.342 27.0005Z" fill="#D99E82"/>
<path d="M12.342 28.0005C12.6181 28.0005 12.842 27.7766 12.842 27.5005C12.842 27.2243 12.6181 27.0005 12.342 27.0005C12.0658 27.0005 11.842 27.2243 11.842 27.5005C11.842 27.7766 12.0658 28.0005 12.342 28.0005Z" fill="#D99E82"/>
<path d="M24.342 25.0005C24.6181 25.0005 24.842 24.7766 24.842 24.5005C24.842 24.2243 24.6181 24.0005 24.342 24.0005C24.0658 24.0005 23.842 24.2243 23.842 24.5005C23.842 24.7766 24.0658 25.0005 24.342 25.0005Z" fill="#D99E82"/>
<path d="M25.342 27.0005C25.6181 27.0005 25.842 26.7766 25.842 26.5005C25.842 26.2243 25.6181 26.0005 25.342 26.0005C25.0658 26.0005 24.842 26.2243 24.842 26.5005C24.842 26.7766 25.0658 27.0005 25.342 27.0005Z" fill="#D99E82"/>
<path d="M23.342 28.0005C23.6181 28.0005 23.842 27.7766 23.842 27.5005C23.842 27.2243 23.6181 27.0005 23.342 27.0005C23.0658 27.0005 22.842 27.2243 22.842 27.5005C22.842 27.7766 23.0658 28.0005 23.342 28.0005Z" fill="#D99E82"/>
</svg>
