<svg width="37" height="36" viewBox="0 0 37 36" fill="none" xmlns="http://www.w3.org/2000/svg">
<path d="M4.29504 7.40865C4.29504 7.40865 0.295044 9.40865 0.295044 18.4087C0.295044 18.4087 6.29504 17.4087 7.29504 15.4087C7.29504 15.4087 9.29504 3.15865 4.29504 7.40865ZM32.29 7.45165C32.29 7.45165 36.29 9.45165 36.29 18.4516C36.29 18.4516 30.29 17.4527 29.29 15.4527C29.29 15.4527 27.29 3.20165 32.29 7.45165Z" fill="#99AAB5"/>
<path d="M1.29505 0.408652C0.285053 1.39865 2.29505 8.40865 6.29505 9.40865C10.2951 10.4087 10.2951 4.40865 9.29505 4.40865C5.29505 4.40865 3.33705 -1.59135 1.29505 0.408652ZM35.5921 0.408652C36.6031 1.39865 34.5921 8.40865 30.5921 9.40865C26.5921 10.4087 26.5921 4.40865 27.5921 4.40865C31.5921 4.40865 33.5511 -1.59135 35.5921 0.408652Z" fill="#FFE8B6"/>
<path d="M22.271 30.4087H14.32C8.78304 30.4087 4.29504 25.9207 4.29504 20.3847V11.4337C4.29504 5.89669 8.78304 1.40869 14.32 1.40869H22.271C27.807 1.40869 32.295 5.89669 32.295 11.4337V20.3847C32.295 25.9207 27.807 30.4087 22.271 30.4087Z" fill="#CCD6DD"/>
<path d="M35.295 27.4087C35.295 32.9307 30.817 35.4087 25.295 35.4087H11.295C5.77204 35.4087 1.29504 32.9307 1.29504 27.4087C1.29504 21.8867 5.77204 17.4087 11.295 17.4087H25.295C30.817 17.4087 35.295 21.8867 35.295 27.4087Z" fill="#E6AAAA"/>
<path d="M9.79504 28.4087C10.6235 28.4087 11.295 27.0655 11.295 25.4087C11.295 23.7518 10.6235 22.4087 9.79504 22.4087C8.96662 22.4087 8.29504 23.7518 8.29504 25.4087C8.29504 27.0655 8.96662 28.4087 9.79504 28.4087Z" fill="#C1694F"/>
<path d="M26.795 28.4087C27.6235 28.4087 28.295 27.0655 28.295 25.4087C28.295 23.7518 27.6235 22.4087 26.795 22.4087C25.9666 22.4087 25.295 23.7518 25.295 25.4087C25.295 27.0655 25.9666 28.4087 26.795 28.4087Z" fill="#C1694F"/>
<path d="M11.295 11.4087C11.295 11.4087 11.295 9.40869 13.295 9.40869C15.295 9.40869 15.295 11.4087 15.295 11.4087V13.4087C15.295 13.4087 15.295 15.4087 13.295 15.4087C11.295 15.4087 11.295 13.4087 11.295 13.4087V11.4087ZM21.295 11.4087C21.295 11.4087 21.295 9.40869 23.295 9.40869C25.295 9.40869 25.295 11.4087 25.295 11.4087V13.4087C25.295 13.4087 25.295 15.4087 23.295 15.4087C21.295 15.4087 21.295 13.4087 21.295 13.4087V11.4087Z" fill="#272B2B"/>
</svg>
