<svg width="36" height="35" viewBox="0 0 36 35" fill="none" xmlns="http://www.w3.org/2000/svg">
<path d="M8.49506 17.0005C13.1895 17.0005 16.9951 13.1949 16.9951 8.50049C16.9951 3.80607 13.1895 0.000488281 8.49506 0.000488281C3.80064 0.000488281 -0.00494385 3.80607 -0.00494385 8.50049C-0.00494385 13.1949 3.80064 17.0005 8.49506 17.0005Z" fill="#FFCC4D"/>
<path d="M27.4951 17.0005C32.1895 17.0005 35.9951 13.1949 35.9951 8.50049C35.9951 3.80607 32.1895 0.000488281 27.4951 0.000488281C22.8006 0.000488281 18.9951 3.80607 18.9951 8.50049C18.9951 13.1949 22.8006 17.0005 27.4951 17.0005Z" fill="#FFCC4D"/>
<path d="M13.907 4.8545C12.643 3.2335 10.678 2.1875 8.46404 2.1875C4.65104 2.1875 1.55804 5.2805 1.55804 9.0935C1.55804 11.8665 3.19604 14.2505 5.55404 15.3495C6.26304 11.1545 9.53704 6.6775 13.907 4.8545ZM27.526 2.1885C25.312 2.1885 23.346 3.2345 22.083 4.8555C26.452 6.6785 29.726 11.1555 30.437 15.3515C32.794 14.2525 34.433 11.8685 34.433 9.0955C34.433 5.2805 31.34 2.1885 27.526 2.1885Z" fill="#EA596E"/>
<path d="M33.9951 21.5934C31.9951 11.5484 22.6621 15.0934 17.9951 15.0934C13.3281 15.0934 3.99508 11.5474 1.99508 21.5934C0.700078 28.0974 5.78908 31.4724 11.0271 32.9804C12.6771 34.2124 15.1851 35.0004 17.9951 35.0004C20.8051 35.0004 23.3131 34.2124 24.9641 32.9794C30.2011 31.4714 35.2901 28.0974 33.9951 21.5934Z" fill="#FFE8B6"/>
<path d="M30.5951 17.0005C30.5951 28.0005 24.9541 23.0005 17.9951 23.0005C11.0361 23.0005 5.39508 28.0005 5.39508 17.0005C5.39508 11.2015 11.0361 4.00049 17.9951 4.00049C24.9541 4.00049 30.5951 11.2015 30.5951 17.0005Z" fill="#FFCC4D"/>
<path d="M20.9 26.9565C20.9 28.5605 18.888 30.3085 17.995 30.3085C17.101 30.3085 15.09 28.5605 15.09 26.9565C15.09 25.3515 16.877 25.0005 17.995 25.0005C19.112 25.0005 20.9 25.3515 20.9 26.9565Z" fill="#EA596E"/>
<path d="M35.51 29.3035C30.265 26.1575 23.155 27.1285 22.854 27.1705C22.84 27.1725 22.831 27.1815 22.817 27.1835C22.736 27.1985 22.664 27.2315 22.589 27.2645C22.543 27.2855 22.496 27.2995 22.455 27.3265C22.394 27.3655 22.348 27.4185 22.297 27.4705C22.256 27.5115 22.213 27.5465 22.18 27.5935C22.144 27.6455 22.124 27.7045 22.098 27.7635C22.071 27.8255 22.04 27.8845 22.027 27.9525C22.023 27.9685 22.012 27.9805 22.009 27.9975C22 28.0525 22.015 28.1025 22.015 28.1565C22.014 28.2055 21.999 28.2515 22.006 28.3025C22.008 28.3185 22.018 28.3295 22.021 28.3445C22.034 28.4135 22.062 28.4745 22.088 28.5375C22.112 28.5975 22.132 28.6575 22.167 28.7105C22.195 28.7545 22.234 28.7865 22.268 28.8255C22.321 28.8835 22.372 28.9395 22.436 28.9835C22.474 29.0095 22.519 29.0245 22.561 29.0455C22.635 29.0815 22.707 29.1155 22.79 29.1325C22.805 29.1355 22.816 29.1455 22.831 29.1485C22.887 29.1585 28.467 30.1255 31.195 33.7615C31.391 34.0245 31.691 34.1615 31.996 34.1615C32.205 34.1615 32.415 34.0965 32.595 33.9615C33.037 33.6305 33.127 33.0035 32.795 32.5625C31.687 31.0835 30.222 29.9965 28.77 29.1935C30.65 29.4355 32.712 29.9585 34.481 31.0195C34.642 31.1165 34.82 31.1625 34.995 31.1625C35.335 31.1625 35.666 30.9895 35.8531 30.6775C36.1371 30.2015 35.983 29.5875 35.51 29.3035ZM13.824 28.7075C13.8581 28.6555 13.877 28.5965 13.901 28.5385C13.927 28.4745 13.956 28.4145 13.969 28.3455C13.972 28.3295 13.982 28.3175 13.985 28.3015C13.992 28.2485 13.977 28.1985 13.976 28.1475C13.976 28.0965 13.99 28.0475 13.981 27.9965C13.979 27.9805 13.9681 27.9695 13.965 27.9535C13.95 27.8845 13.92 27.8225 13.891 27.7595C13.866 27.7025 13.846 27.6445 13.811 27.5945C13.779 27.5475 13.736 27.5125 13.696 27.4715C13.6451 27.4185 13.597 27.3665 13.536 27.3255C13.496 27.3005 13.449 27.2865 13.405 27.2655C13.33 27.2315 13.257 27.1995 13.175 27.1845C13.161 27.1815 13.151 27.1725 13.137 27.1705C12.8361 27.1285 5.72505 26.1565 0.481049 29.3035C0.00704911 29.5875 -0.145951 30.2015 0.138049 30.6755C0.326049 30.9875 0.657049 31.1605 0.996049 31.1605C1.17105 31.1605 1.34905 31.1145 1.51005 31.0175C3.27805 29.9565 5.34005 29.4345 7.21905 29.1925C5.76805 29.9945 4.30405 31.0825 3.19605 32.5605C2.86405 33.0015 2.95405 33.6285 3.39605 33.9595C3.57605 34.0945 3.78705 34.1595 3.99505 34.1595C4.29905 34.1595 4.59905 34.0215 4.79605 33.7595C7.51305 30.1375 13.106 29.1555 13.162 29.1465C13.177 29.1435 13.187 29.1345 13.202 29.1305C13.279 29.1145 13.346 29.0815 13.416 29.0485C13.464 29.0265 13.515 29.0095 13.558 28.9795C13.617 28.9395 13.662 28.8865 13.71 28.8355C13.749 28.7935 13.7921 28.7565 13.824 28.7075Z" fill="#C1694F"/>
<path d="M9.99506 19.0005C9.99506 19.0005 9.99506 17.0005 11.9951 17.0005C13.9951 17.0005 13.9951 19.0005 13.9951 19.0005V21.0005C13.9951 21.0005 13.9951 23.0005 11.9951 23.0005C9.99506 23.0005 9.99506 21.0005 9.99506 21.0005V19.0005ZM21.9951 19.0005C21.9951 19.0005 21.9951 17.0005 23.9951 17.0005C25.9951 17.0005 25.9951 19.0005 25.9951 19.0005V21.0005C25.9951 21.0005 25.9951 23.0005 23.9951 23.0005C21.9951 23.0005 21.9951 21.0005 21.9951 21.0005V19.0005Z" fill="#272B2B"/>
</svg>
