<svg width="34" height="36" viewBox="0 0 34 36" fill="none" xmlns="http://www.w3.org/2000/svg">
<path d="M27.3219 31.3555C25.0929 31.3555 18.8539 32.1405 17.2539 33.1875C15.6529 32.1405 9.41394 31.3555 7.18494 31.3555C4.62094 31.3555 6.02394 32.3945 6.02394 33.6775C6.02394 34.9605 4.62094 36.0005 7.18494 36.0005C9.41394 36.0005 15.6529 35.2155 17.2539 34.1685C18.8549 35.2155 25.0939 36.0005 27.3219 36.0005C29.8869 36.0005 28.4829 34.9605 28.4829 33.6785C28.4829 32.3955 29.8879 31.3555 27.3219 31.3555Z" fill="#FFAC33"/>
<path d="M30.9839 15.8665C29.7339 13.3675 27.8319 10.8715 26.0419 9.14349C23.5909 3.71149 20.0129 0.000488281 17.2539 0.000488281C14.4949 0.000488281 10.9169 3.71049 8.46592 9.14349C6.67492 10.8725 4.77292 13.3675 3.52292 15.8675C1.08492 20.7435 0.40692 27.2935 1.44492 27.8115C2.31792 28.2485 3.76892 26.2595 5.65292 22.7295C5.92092 33.6045 12.6999 33.6785 17.2539 33.6785C21.8069 33.6785 28.5869 33.6055 28.8549 22.7315C30.7389 26.2595 32.1899 28.2485 33.0619 27.8115C34.0999 27.2925 33.4229 20.7425 30.9839 15.8665Z" fill="#292F33"/>
<path d="M20.9289 6.94348C20.0789 7.55048 18.7569 8.12948 17.2539 8.12948C15.7509 8.12948 14.4289 7.55148 13.5789 6.94448C10.2769 9.08148 7.96393 14.0045 7.96393 19.7425C7.96393 27.4375 12.1229 33.6785 17.2539 33.6785C22.3859 33.6785 26.5449 27.4385 26.5449 19.7425C26.5449 14.0045 24.2319 9.08048 20.9289 6.94348Z" fill="#F5F8FA"/>
<path d="M27.7059 6.0005H21.8979C18.0509 6.0005 17.2539 5.2205 17.2539 4.2575C17.2539 3.2955 16.8899 2.5155 20.7369 2.5155C26.5449 2.5165 28.8669 6.0005 27.7059 6.0005Z" fill="#FFAC33"/>
<path d="M16.0929 3.48351C16.0929 4.12551 15.5729 4.64551 14.9319 4.64551C14.2899 4.64551 13.7709 4.12451 13.7709 3.48351C13.7709 2.84251 14.2909 2.32251 14.9319 2.32251C15.5729 2.32251 16.0929 2.84251 16.0929 3.48351Z" fill="#F5F8FA"/>
</svg>
