<svg width="37" height="33" viewBox="0 0 37 33" fill="none" xmlns="http://www.w3.org/2000/svg">
<path d="M32.2643 8.89336C34.3863 6.77136 37.2643 23.2054 29.2643 29.8934C26.5073 32.1984 23.2643 32.8624 21.2643 32.8624C18.8933 32.8624 11.2353 32.8934 8.26428 32.8934C1.08428 32.8934 0.264282 27.9684 0.264282 21.8934C0.264282 15.8184 1.08428 10.8934 8.26428 10.8934C14.2643 10.8934 18.2643 12.8934 21.2643 14.8894C26.2413 18.2014 27.2563 18.7504 29.2643 16.8934C32.4773 13.9234 30.2643 10.8934 32.2643 8.89336Z" fill="#3B88C3"/>
<path d="M34.2673 19.8934C33.8023 23.6204 32.2263 27.4164 29.2643 29.8934C26.5073 32.1984 23.2643 32.8624 21.2643 32.8624C18.8933 32.8624 11.2353 32.8934 8.26426 32.8934C4.22926 32.8934 2.20226 31.3384 1.20226 28.8974C0.421256 26.9954 4.26426 29.8934 15.2643 29.8934C29.2643 29.8934 32.2643 24.8934 34.2673 19.8934Z" fill="#55ACEE"/>
<path d="M32.2643 10.8934C36.3873 10.8934 36.2643 5.89335 36.2643 3.89335C36.2643 1.89335 34.2643 4.89335 31.2643 5.89335C28.2643 6.89335 24.2643 3.89335 25.2643 5.89335C26.2643 7.89335 28.2643 10.8934 32.2643 10.8934Z" fill="#3B88C3"/>
<path d="M10.2643 3.89335C10.2643 6.10235 9.36828 9.89335 8.26428 9.89335C7.16028 9.89335 6.26428 6.10235 6.26428 3.89335C6.26428 1.68435 7.16028 1.89335 8.26428 1.89335C9.36828 1.89335 10.2643 1.68435 10.2643 3.89335Z" fill="#55ACEE"/>
<path d="M8.26428 1.89339C8.26428 -1.10661 2.26428 -0.106609 2.26428 1.89339C2.26428 3.89339 5.26428 2.89339 6.26428 4.89339C7.26428 6.89339 8.26428 1.89339 8.26428 1.89339ZM8.26428 1.89339C8.26428 -1.10661 14.2643 -0.106609 14.2643 1.89339C14.2643 3.89339 11.2643 2.89339 10.2643 4.89339C9.26428 6.89339 8.26428 1.89339 8.26428 1.89339Z" fill="#55ACEE"/>
<path d="M6.76428 23.8934C7.59271 23.8934 8.26428 23.2219 8.26428 22.3934C8.26428 21.565 7.59271 20.8934 6.76428 20.8934C5.93586 20.8934 5.26428 21.565 5.26428 22.3934C5.26428 23.2219 5.93586 23.8934 6.76428 23.8934Z" fill="#292F33"/>
</svg>
