<svg width="37" height="33" viewBox="0 0 37 33" fill="none" xmlns="http://www.w3.org/2000/svg">
<path d="M11.3233 3.90144C9.68732 0.764439 5.09432 -0.709561 4.23932 0.583439C3.38432 1.87644 4.94632 10.7354 5.99632 10.5504C7.04732 10.3654 11.3233 3.90144 11.3233 3.90144Z" fill="#99AAB5"/>
<path d="M10.4963 5.95952C9.22633 3.27952 5.80033 1.13952 5.19233 2.21452C4.75733 2.98552 5.31433 7.47752 5.94933 9.91052L10.4963 5.95952Z" fill="#292F33"/>
<path d="M25.9393 3.90144C27.5753 0.764439 32.1673 -0.709561 33.0233 0.583439C33.8793 1.87644 32.3153 10.7354 31.2653 10.5504C30.2143 10.3654 25.9393 3.90144 25.9393 3.90144Z" fill="#99AAB5"/>
<path d="M27.0153 5.95944C28.2463 3.27344 31.5163 1.10544 32.0853 2.17344C32.5013 2.95344 31.9073 7.59844 31.2703 9.99844L27.0153 5.95944Z" fill="#292F33"/>
<path d="M33.7853 11.6015C31.2023 8.43749 24.7373 0.000488281 18.6303 0.000488281C12.5233 0.000488281 6.05932 8.43749 3.47632 11.6015C0.33832 15.4455 0.425321 19.8985 1.22832 22.4785C2.03332 25.0655 4.38332 27.5165 10.4893 29.9095C12.5543 30.7185 16.1943 32.3025 18.6313 32.3025C21.0683 32.3025 24.7073 30.7195 26.7733 29.9095C32.8793 27.5165 35.2303 25.0665 36.0343 22.4785C36.8363 19.8985 36.9243 15.4455 33.7853 11.6015Z" fill="#99AAB5"/>
<path d="M18.6313 12.6934C18.6313 7.78044 14.5533 7.83844 12.0893 8.12144C7.57732 8.63844 0.731323 14.8824 0.731323 18.8544C0.731323 20.2444 0.891323 21.4854 1.22732 22.4784C1.81132 24.2044 3.10232 25.4934 6.26132 27.7444C9.75132 19.3934 18.6313 16.4984 18.6313 12.6934Z" fill="#E1E8ED"/>
<path d="M18.6313 14.0625C18.6313 11.6635 14.2423 11.0225 11.9823 11.3845C7.09829 12.1675 1.24229 18.9185 1.22729 22.3555V22.3685C1.22929 22.3745 1.22829 22.4795 1.22829 22.4795C1.22829 22.4795 1.6123 23.8805 2.85129 25.2945C3.7183 26.2855 5.19729 27.3625 6.18429 27.8785L6.19429 27.8675C9.14629 24.0065 13.0713 21.4515 16.2163 20.2505C17.9793 19.5775 18.6313 16.7505 18.6313 14.0625Z" fill="#292F33"/>
<path d="M14.0514 17.3014C14.8947 17.3014 15.5784 16.6178 15.5784 15.7744C15.5784 14.9311 14.8947 14.2474 14.0514 14.2474C13.208 14.2474 12.5244 14.9311 12.5244 15.7744C12.5244 16.6178 13.208 17.3014 14.0514 17.3014Z" fill="#99AAB5"/>
<path d="M18.6313 12.6934C18.6313 7.78044 22.7093 7.83844 25.1733 8.12144C29.6843 8.63944 36.5303 14.8834 36.5303 18.8554C36.5303 20.2454 36.3703 21.4864 36.0343 22.4794C35.4503 24.2054 34.1593 25.4944 31.0003 27.7454C27.5113 19.3934 18.6313 16.4984 18.6313 12.6934Z" fill="#E1E8ED"/>
<path d="M18.6313 14.0625C18.6313 11.6635 23.0203 11.0225 25.2803 11.3845C30.1643 12.1675 36.0203 18.9185 36.0353 22.3555V22.3685C36.0333 22.3745 36.0343 22.4795 36.0343 22.4795C36.0343 22.4795 35.6503 23.8805 34.4113 25.2945C33.5433 26.2855 32.0643 27.3625 31.0783 27.8785L31.0683 27.8675C28.1163 24.0065 24.1913 21.4515 21.0463 20.2505C19.2833 19.5775 18.6313 16.7505 18.6313 14.0625Z" fill="#292F33"/>
<path d="M23.2104 17.3014C24.0537 17.3014 24.7374 16.6178 24.7374 15.7744C24.7374 14.9311 24.0537 14.2474 23.2104 14.2474C22.367 14.2474 21.6833 14.9311 21.6833 15.7744C21.6833 16.6178 22.367 17.3014 23.2104 17.3014Z" fill="#99AAB5"/>
<path d="M21.4013 20.3875C20.4783 19.3145 19.6513 1.35254 18.6313 1.35254C17.6113 1.35254 16.7843 19.3145 15.8613 20.3875H21.4013Z" fill="#66757F"/>
<path d="M25.5703 22.4695C23.9343 20.4095 21.4063 18.7645 18.6303 18.7645C15.8543 18.7645 13.3263 20.4105 11.6903 22.4695C10.3023 24.2175 10.3023 25.5305 10.7653 26.6955C11.2473 27.9095 12.1533 29.5165 14.9293 30.6815C15.8683 31.0755 17.5233 31.8465 18.6303 31.8465C19.7383 31.8465 21.3923 31.0755 22.3313 30.6815C25.1073 29.5165 26.0133 27.9095 26.4953 26.6955C26.9583 25.5305 26.9583 24.2175 25.5703 22.4695Z" fill="#E1E8ED"/>
<path d="M22.2693 26.6575C21.5803 26.0955 20.6403 26.8415 18.6303 26.8415C16.6203 26.8415 15.6803 26.0955 14.9913 26.6575C14.3023 27.2195 15.5763 28.9655 18.6303 28.9655C21.6843 28.9655 22.9583 27.2195 22.2693 26.6575Z" fill="#292F33"/>
<path d="M13.8203 23.0545C13.6873 23.0545 13.5523 23.0195 13.4293 22.9475C10.4273 21.1555 5.07232 22.0345 3.76532 22.6615C3.38732 22.8455 2.93032 22.6845 2.74632 22.3045C2.56432 21.9235 2.72432 21.4675 3.10432 21.2855C4.84832 20.4475 10.7283 19.5605 14.2113 21.6355C14.5733 21.8525 14.6923 22.3205 14.4753 22.6825C14.3333 22.9215 14.0803 23.0545 13.8203 23.0545Z" fill="#66757F"/>
<path d="M2.79633 27.9875C2.62833 27.9875 2.45933 27.9315 2.31833 27.8185C1.99033 27.5545 1.93833 27.0745 2.20233 26.7455C3.65733 24.9385 7.09833 21.8575 13.7833 21.5295C14.2023 21.4945 14.5623 21.8335 14.5833 22.2545C14.6043 22.6755 14.2793 23.0335 13.8583 23.0545C7.76933 23.3535 4.68733 26.0955 3.39133 27.7035C3.24033 27.8905 3.01933 27.9875 2.79633 27.9875ZM34.4653 27.9875C34.2423 27.9875 34.0223 27.8905 33.8713 27.7035C32.5763 26.0955 29.4943 23.3535 23.4043 23.0545C22.9843 23.0335 22.6593 22.6755 22.6793 22.2545C22.7003 21.8345 23.0623 21.4915 23.4793 21.5295C30.1643 21.8575 33.6033 24.9385 35.0593 26.7455C35.3233 27.0745 35.2723 27.5545 34.9443 27.8185C34.8033 27.9315 34.6343 27.9875 34.4653 27.9875Z" fill="#66757F"/>
<path d="M23.4424 23.0544C23.1824 23.0544 22.9284 22.9215 22.7854 22.6815C22.5694 22.3195 22.6884 21.8515 23.0494 21.6345C26.5314 19.5585 32.4154 20.4465 34.1564 21.2845C34.5374 21.4665 34.6974 21.9225 34.5144 22.3025C34.3324 22.6835 33.8784 22.8465 33.4964 22.6605C32.1864 22.0325 26.8324 21.1554 23.8324 22.9464C23.7094 23.0204 23.5754 23.0544 23.4424 23.0544Z" fill="#66757F"/>
<path d="M22.2693 20.5295C22.2693 22.2945 19.7303 23.7525 18.6303 23.7525C17.5303 23.7525 14.9913 22.2945 14.9913 20.5295C14.9913 18.7645 16.6203 18.7195 18.6303 18.7195C20.6403 18.7195 22.2693 18.7645 22.2693 20.5295Z" fill="#292F33"/>
</svg>
