<svg width="37" height="36" viewBox="0 0 37 36" fill="none" xmlns="http://www.w3.org/2000/svg">
<path d="M36.143 21.0005C36.143 26.0005 33.143 30.0005 25.143 32.0005C18.081 33.7665 4.14301 31.0665 4.14301 30.0005C4.14301 28.8715 6.64601 28.6295 10.955 28.8755C21.893 29.5005 24.705 25.0185 22.955 23.6255C19.893 21.1885 16.518 24.0005 10.893 23.5005C3.92501 22.8815 0.143005 17.4725 0.143005 16.0005C0.143005 14.0005 11.859 8.00049 20.143 8.00049C28.427 8.00049 36.143 12.2505 36.143 21.0005Z" fill="#66757F"/>
<path d="M15.143 12.5005C15.143 13.3295 14.472 14.0005 13.643 14.0005C12.814 14.0005 12.143 13.3295 12.143 12.5005C12.143 11.6715 12.814 12.0005 13.643 12.0005C14.472 12.0005 15.143 11.6715 15.143 12.5005Z" fill="#292F33"/>
<path d="M14.143 9.00049C16.143 4.00049 19.434 0.000488281 22.101 0.000488281C24.768 0.000488281 21.143 2.00049 26.143 10.0005C31.143 18.0005 14.143 9.00049 14.143 9.00049ZM3.14301 30.0005C3.14301 26.0005 2.10301 24.0005 3.28901 24.0005C4.47501 24.0005 9.30001 28.0315 9.30001 30.2405C9.30001 32.4495 4.47401 36.0005 3.28901 36.0005C2.10301 36.0005 3.14301 34.0005 3.14301 30.0005Z" fill="#66757F"/>
<path d="M27.064 22.5005L35.06 30.0005C35.06 30.0005 31.818 31.8335 27.064 22.5005Z" fill="#292F33"/>
<path d="M27.064 22.5005L32.601 18.6675C32.601 18.6675 36.476 28.5845 35.06 30.0005C32.477 29.0005 27.064 22.5005 27.064 22.5005Z" fill="#66757F"/>
<path d="M9.14301 20.3075C9.14301 20.8005 8.63501 22.9805 8.14301 22.9805C7.65101 22.9805 7.14301 20.8005 7.14301 20.3075V18.5285C7.14301 18.0355 7.65101 19.4175 8.14301 19.4175C8.63501 19.4175 9.14301 18.0355 9.14301 18.5285V20.3075ZM12.143 20.3075C12.143 20.8005 11.635 22.9805 11.143 22.9805C10.651 22.9805 10.143 20.8005 10.143 20.3075V18.5285C10.143 18.0355 10.651 19.4175 11.143 19.4175C11.635 19.4175 12.143 18.0355 12.143 18.5285V20.3075ZM15.143 19.3075C15.143 19.8005 14.635 21.9805 14.143 21.9805C13.651 21.9805 13.143 19.8005 13.143 19.3075V17.5285C13.143 17.0355 13.651 18.4175 14.143 18.4175C14.635 18.4175 15.143 17.0355 15.143 17.5285V19.3075ZM18.143 19.3075C18.143 19.8005 17.635 21.9805 17.143 21.9805C16.651 21.9805 16.143 19.8005 16.143 19.3075V17.5285C16.143 17.0355 16.651 18.4175 17.143 18.4175C17.635 18.4175 18.143 17.0355 18.143 17.5285V19.3075Z" fill="white"/>
<path d="M6.14301 20.0005L13.143 19.0005H19.143V17.0005H6.14301V20.0005Z" fill="#66757F"/>
<path d="M18.56 19.1675C14.56 17.0845 5.17501 19.1565 3.64301 20.6805C4.11201 21.0405 4.63101 21.3875 5.19001 21.7085C11.299 18.4275 19.272 19.5395 18.56 19.1675Z" fill="#292F33"/>
</svg>
