<svg width="35" height="32" viewBox="0 0 35 32" fill="none" xmlns="http://www.w3.org/2000/svg">
<path d="M14.1641 7.49636C14.6391 9.82236 13.9821 11.7324 11.2431 12.1344C8.50208 12.5374 4.54308 16.0324 2.39508 10.3364C1.15008 7.03736 0.398084 0.233361 1.93408 0.00836078C3.47108 -0.217639 13.6901 5.17036 14.1641 7.49636Z" fill="#66757F"/>
<path d="M12.0901 7.85038C12.9551 9.24238 9.88505 11.6834 8.24605 12.4184C6.60705 13.1544 5.33106 11.7584 4.07306 8.31838C3.52306 6.81538 2.83905 2.78638 3.43905 2.51638C4.03805 2.24838 11.2241 6.45838 12.0901 7.85038Z" fill="#CCD6DD"/>
<path d="M20.6781 7.49632C20.2201 9.82232 20.8541 11.7323 23.4961 12.1343C26.1401 12.5373 29.9601 16.0323 32.0321 10.3363C33.2331 7.03632 33.9591 0.233324 32.4771 0.00732423C30.9941 -0.217676 21.1351 5.17032 20.6781 7.49632Z" fill="#66757F"/>
<path d="M22.6791 7.85038C21.8441 9.24238 24.8061 11.6834 26.3871 12.4184C27.9681 13.1544 29.1991 11.7584 30.4131 8.31838C30.9441 6.81538 31.6031 2.78638 31.0241 2.51638C30.4471 2.24838 23.5151 6.45838 22.6791 7.85038Z" fill="#CCD6DD"/>
<path d="M31.6531 24.9113C31.6531 24.4573 31.4651 23.8203 31.2461 23.2243C31.8311 23.2523 32.7651 23.4153 34.0161 24.0413C34.0081 23.5053 33.8981 23.0573 33.7431 22.6483C33.7841 22.6683 33.8181 22.6823 33.8591 22.7033C32.7551 19.3933 30.5501 17.1863 30.5501 17.1863H32.7561C30.4251 12.5233 27.7911 9.17133 24.6811 7.62733C23.2911 6.75433 20.9931 6.28933 17.3081 6.28833H17.3051C13.6091 6.28833 11.3091 6.75633 9.92008 7.63433C6.81608 9.18133 4.18608 12.5303 1.85908 17.1863H4.06608C4.06608 17.1863 1.85908 19.3923 0.755077 22.7033L0.839077 22.6643C0.638077 23.0563 0.532077 23.5113 0.557077 24.0413C1.82008 23.4093 2.77408 23.2493 3.37008 23.2233C3.18108 23.7363 3.02708 24.2673 2.98408 24.6983C2.86108 25.0693 2.79308 25.5103 2.84908 26.0413C6.05608 24.5833 7.55608 24.7913 9.30608 25.6663C10.5191 29.2893 13.5121 31.9993 17.3071 31.9993C21.1001 31.9993 24.0531 29.2053 25.2651 25.5833C26.7231 24.3333 28.9731 24.7083 31.6811 25.9993C31.7471 25.5863 31.7171 25.2263 31.6451 24.9063L31.6531 24.9113Z" fill="#66757F"/>
<path d="M33.8591 22.7033C33.4221 21.3903 30.1941 19.6023 26.8861 18.1903C27.1461 17.5263 27.3061 16.7893 27.3061 15.9993C27.3061 13.2383 25.5151 10.9993 23.3061 10.9993C21.0971 10.9993 19.3061 13.2383 19.3061 15.9993C19.3061 18.9993 23.3061 25.9993 17.3051 27.1173C12.1801 26.1623 14.3511 20.9163 15.0931 17.5373C15.1651 17.2613 15.2181 16.9783 15.2511 16.6843C15.2851 16.4393 15.3061 16.2083 15.3061 15.9993C15.3061 13.2383 13.5151 10.9993 11.3061 10.9993C9.09709 10.9993 7.30609 13.2383 7.30609 15.9993C7.30609 16.7893 7.46609 17.5263 7.72709 18.1903C4.41909 19.6023 1.19209 21.3903 0.754089 22.7033C2.96109 21.5993 4.06509 21.5993 4.06509 21.5993C4.06509 21.5993 2.96109 23.8073 2.96109 24.9113C5.63109 23.1313 8.30009 22.7893 10.3901 24.4593C11.6031 28.0823 13.3061 30.9993 17.3071 28.1233C21.3061 30.9993 23.0071 28.0833 24.2191 24.4613C26.3111 22.7883 28.9821 23.1313 31.6531 24.9113C31.6531 23.8073 30.5501 21.5993 30.5501 21.5993C30.5501 21.5993 31.6531 21.6003 33.8591 22.7033Z" fill="#CCD6DD"/>
<path d="M10.3061 14.9993C10.3061 14.9993 10.3061 13.4993 11.8061 13.4993C13.3061 13.4993 13.3061 14.9993 13.3061 14.9993V16.4993C13.3061 16.4993 13.3061 17.9993 11.8061 17.9993C10.3061 17.9993 10.3061 16.4993 10.3061 16.4993V14.9993ZM21.3061 14.9993C21.3061 14.9993 21.3061 13.4993 22.8061 13.4993C24.3061 13.4993 24.3061 14.9993 24.3061 14.9993V16.4993C24.3061 16.4993 24.3061 17.9993 22.8061 17.9993C21.3061 17.9993 21.3061 16.4993 21.3061 16.4993V14.9993ZM14.2451 24.1553C13.2241 24.3633 16.2861 28.1233 17.3071 28.1233C18.3271 28.1233 21.3891 24.3633 20.3691 24.1553C19.3491 23.9473 15.2661 23.9473 14.2451 24.1553Z" fill="#292F33"/>
</svg>
