<svg width="36" height="36" viewBox="0 0 36 36" fill="none" xmlns="http://www.w3.org/2000/svg">
<path d="M22.5781 23.1409C22.5781 23.1409 23.9521 24.7759 25.3111 33.1879C25.4541 34.0709 25.5121 34.9629 25.5281 35.8659H35.2951V7.31394C30.9081 3.84094 24.8961 3.12494 17.6171 5.55594C17.6171 5.55594 12.2091 2.55594 11.4701 1.81694C10.7511 1.09694 9.61305 0.260942 10.2351 2.16694C10.5991 3.27894 10.9991 4.53994 12.5931 7.02894C9.15705 9.06494 8.08006 11.7089 4.03505 20.3699C0.947055 26.9859 -0.624945 29.1349 0.232055 31.6629C1.36205 34.9999 5.54805 37.2579 9.07605 34.6839C10.9951 33.2839 11.3221 30.7709 15.3011 28.4609C18.9541 28.3959 22.5781 26.8569 22.5781 23.1409Z" fill="#C1694F"/>
<path d="M35.295 5.87793C26.96 0.166934 13.649 1.33893 15.204 6.05593C24.805 4.19393 31.065 7.59693 35.295 13.2239V5.87793Z" fill="#292F33"/>
<path d="M18.958 5.62895C16.08 5.86195 11.801 7.22395 9.66205 9.59595C9.66205 9.59595 9.53305 4.44895 13.228 3.98195C19.4 3.20295 19.037 4.34495 19.037 4.34495L18.958 5.62895Z" fill="#292F33"/>
<path d="M15.652 0.92199C16.21 2.07699 19.658 2.71199 20.708 6.95099C21.759 11.191 17.574 9.90199 16.352 7.80599C14.991 5.47199 14.524 3.64399 14.485 2.12699C14.464 1.32599 14.524 -1.41101 15.652 0.92199Z" fill="#C1694F"/>
<path d="M15.8911 2.70399C16.9941 3.67199 18.3391 5.17599 18.5411 6.65899C18.7431 8.14199 17.4161 7.64699 16.8051 6.28699C16.1931 4.92799 16.0521 3.50799 15.6711 3.05399C15.2911 2.59999 15.8911 2.70399 15.8911 2.70399Z" fill="#662113"/>
<path d="M16.235 15.391C16.235 16.078 15.678 16.635 14.99 16.635C14.303 16.635 13.746 16.078 13.746 15.391C13.746 14.703 14.303 14.146 14.99 14.146C15.678 14.147 16.235 14.704 16.235 15.391Z" fill="#292F33"/>
<path d="M3.51707 29.783C3.51707 30.664 2.98507 31.377 2.33007 31.377C1.67507 31.377 1.14307 30.664 1.14307 29.783C1.14307 28.901 1.67507 28.187 2.33007 28.187C2.98507 28.187 3.51707 28.901 3.51707 29.783Z" fill="#662113"/>
<path d="M9.64907 9.78999C9.61607 9.77299 9.57407 9.77599 9.53807 9.76599C7.99507 11.799 6.61807 14.868 4.04807 20.37C2.69207 23.273 1.62807 25.316 0.932068 26.908C2.56007 27.134 4.21707 25.466 4.87707 23.637C5.55007 21.771 8.09207 17.985 9.80407 15.859C11.5161 13.732 11.3651 10.715 9.64907 9.78999Z" fill="#D99E82"/>
</svg>
