<svg width="37" height="36" viewBox="0 0 37 36" fill="none" xmlns="http://www.w3.org/2000/svg">
<path d="M36.1388 19.6828C33.6568 9.75185 25.1448 1.73785 16.1698 6.66085C16.1698 6.66085 11.6478 5.16485 10.9958 4.71285C10.3608 4.27285 9.36084 3.80885 10.0838 5.14885C10.5068 5.93085 10.9588 6.82085 12.4868 8.46585C8.13884 12.7868 9.41784 18.0908 7.88184 21.5788C6.57784 24.5408 5.30484 26.3118 6.57184 28.5548C7.88884 30.8848 11.3008 32.0168 13.5898 29.6148C14.8338 28.3078 14.0608 27.6778 16.7218 25.4128C19.4448 24.8698 21.1158 23.6218 21.1158 21.0378C21.1158 21.0378 21.9108 20.6558 22.9418 27.0468C23.3978 29.8648 22.7848 32.6788 22.9028 35.8298H36.1388V19.6828Z" fill="#C1CDD5"/>
<path d="M32.0448 5.89094C32.5758 7.20294 32.8928 9.60094 32.6398 11.2089C32.4898 7.28594 29.4518 4.62794 28.2638 4.01594C26.0618 2.87894 23.8918 3.03694 21.4648 3.24394C21.5758 3.41194 21.8678 4.05794 21.7848 4.79094C21.3058 3.91594 20.1808 3.37094 19.4518 3.51994C18.0918 3.79694 16.8908 4.19694 15.9768 4.67594C15.4728 4.77794 14.7278 5.08894 13.6048 5.77694C11.6938 6.94794 9.4298 10.1149 6.8678 9.28794C7.9098 11.7879 10.4988 11.1329 10.4988 11.1329C11.7058 9.18294 14.5658 7.35394 16.6668 6.68094C24.2858 4.93594 29.2808 10.1199 32.0978 16.0789C32.8658 17.7039 34.7088 23.2109 36.1388 26.3709V10.7849C35.3898 9.74694 34.8578 7.76694 32.0448 5.89094Z" fill="#60379A"/>
<path d="M13.9278 3.49086C14.5008 4.27886 17.1638 4.28486 18.5238 7.31086C19.8828 10.3369 16.5808 9.94086 15.3838 8.54086C14.0498 6.97986 13.4528 5.67786 13.2188 4.54886C13.0948 3.95286 12.7678 1.89986 13.9278 3.49086Z" fill="#C1CDD5"/>
<path d="M14.3478 4.79089C15.3038 5.36389 16.5118 6.30589 16.8648 7.38689C17.2158 8.46789 16.1578 8.27789 15.5158 7.34489C14.8748 6.41089 14.5758 5.36989 14.2308 5.08189C13.8848 4.79289 14.3478 4.79089 14.3478 4.79089Z" fill="#758795"/>
<path d="M15.3938 15.3399C15.9163 15.3399 16.3398 14.9163 16.3398 14.3939C16.3398 13.8714 15.9163 13.4479 15.3938 13.4479C14.8714 13.4479 14.4478 13.8714 14.4478 14.3939C14.4478 14.9163 14.8714 15.3399 15.3938 15.3399Z" fill="#292F33"/>
<path d="M8.7688 26.7059C8.8878 27.3639 8.5878 27.9689 8.0988 28.0569C7.6088 28.1459 7.1148 27.6849 6.9948 27.0269C6.8758 26.3679 7.1768 25.7619 7.6658 25.6729C8.1558 25.5849 8.6498 26.0459 8.7688 26.7059Z" fill="#53626C"/>
<path d="M13.9828 7.95289L13.9858 7.95089L13.9808 7.94389L13.9648 7.92989C13.9568 7.92289 13.9538 7.91089 13.9458 7.90489C13.9368 7.89789 13.9248 7.89389 13.9148 7.88689C12.7598 6.90689 1.07181 -0.666109 0.357814 0.047891C-0.371185 0.776891 10.5818 9.57089 11.2878 10.1089L11.2988 10.1149L11.8398 10.5539C11.8478 10.5609 11.8498 10.5719 11.8578 10.5779C11.8708 10.5879 11.8858 10.5929 11.8998 10.6019L11.9468 10.6399L11.9378 10.6239C12.5028 10.9849 13.3648 10.7379 13.9168 10.0319C14.4758 9.31689 14.4938 8.40689 13.9828 7.95289Z" fill="#EE7C0E"/>
<path d="M4.81582 2.07883L4.82482 2.05383C4.52382 1.87983 4.23082 1.71283 3.94682 1.55383C3.93082 1.59183 3.92482 1.62283 3.90582 1.66383C3.79382 1.90683 3.64982 2.14783 3.47682 2.37983C3.31082 2.60383 3.12782 2.80383 2.93582 2.97483C2.91582 2.99283 2.89982 3.00083 2.87982 3.01783C3.11782 3.23783 3.36882 3.46383 3.62482 3.69383C3.85882 3.48383 4.08082 3.24483 4.27882 2.97683C4.49282 2.68983 4.67382 2.38783 4.81582 2.07883ZM7.09082 5.02383C7.39682 4.61383 7.61182 4.20183 7.75082 3.81183C7.45882 3.63083 7.16682 3.45183 6.87482 3.27383C6.79882 3.57183 6.62782 3.97283 6.28882 4.42583C5.97882 4.84283 5.67582 5.10683 5.42482 5.27083C5.68382 5.49383 5.94482 5.71583 6.20382 5.93583C6.51782 5.69183 6.82282 5.38383 7.09082 5.02383ZM10.0088 7.14883C10.3738 6.65883 10.6178 6.16583 10.7428 5.71183L9.83682 5.12583C9.81382 5.42183 9.66482 5.93583 9.20582 6.55083C8.79382 7.10483 8.38482 7.39783 8.10582 7.52883L8.91982 8.19983C9.30082 7.94383 9.68082 7.58883 10.0088 7.14883Z" fill="#C43512"/>
</svg>
