<svg width="36" height="35" viewBox="0 0 36 35" fill="none" xmlns="http://www.w3.org/2000/svg">
<path d="M34.9994 21.0005H0.99939C0.44739 21.0005 -0.000610352 20.5535 -0.000610352 20.0005C-0.000610352 19.4475 0.44739 19.0005 0.99939 19.0005H34.9994C35.5524 19.0005 35.9994 19.4475 35.9994 20.0005C35.9994 20.5535 35.5524 21.0005 34.9994 21.0005ZM12.8224 19.0005L12.7534 18.9985C12.6614 18.9915 3.53939 18.2845 2.01939 10.7635C1.91039 10.2215 2.26039 9.69451 2.80139 9.58551C3.34439 9.47251 3.87039 9.82651 3.97939 10.3675C5.20039 16.4115 12.8124 16.9985 12.8894 17.0035C13.4404 17.0415 13.8564 17.5185 13.8194 18.0695C13.7834 18.5965 13.3434 19.0005 12.8224 19.0005ZM2.99939 31.0005C2.85739 31.0005 2.71339 30.9705 2.57639 30.9065C2.07639 30.6725 1.86039 30.0775 2.09439 29.5765C5.26039 22.8065 13.1324 21.8555 13.4664 21.8185C14.0144 21.7625 14.5084 22.1525 14.5694 22.7005C14.6314 23.2485 14.2374 23.7435 13.6894 23.8065C13.6184 23.8145 6.59039 24.6825 3.90639 30.4235C3.73539 30.7875 3.37439 31.0005 2.99939 31.0005ZM22.7524 19.0005C22.2304 19.0005 21.7914 18.5955 21.7564 18.0665C21.7204 17.5155 22.1374 17.0395 22.6874 17.0025C22.7684 16.9975 30.8034 16.3855 32.0194 10.3665C32.1274 9.82551 32.6524 9.47151 33.1984 9.58451C33.7394 9.69351 34.0904 10.2215 33.9804 10.7625C32.4594 18.2875 23.2114 18.9725 22.8184 18.9975L22.7524 19.0005ZM33.0004 31.0005C32.6234 31.0005 32.2634 30.7875 32.0934 30.4245C29.3994 24.6615 21.9694 23.8155 21.8954 23.8075C21.3454 23.7495 20.9474 23.2575 21.0054 22.7085C21.0634 22.1585 21.5604 21.7565 22.1044 21.8185C22.4564 21.8555 30.7384 22.8015 33.9064 29.5765C34.1394 30.0775 33.9244 30.6725 33.4244 30.9065C33.2854 30.9705 33.1424 31.0005 33.0004 31.0005Z" fill="#31373D"/>
<path d="M24.9884 7.76649C24.9194 5.14049 23.7114 3.55049 21.8934 2.72649C21.9604 2.50049 21.9994 2.25749 21.9994 2.00049C21.9994 0.895488 21.3274 0.000488281 20.4994 0.000488281C19.6714 0.000488281 18.9994 0.895488 18.9994 2.00049C18.9994 2.01549 19.0024 2.02849 19.0024 2.04349C18.6744 2.01749 18.3414 2.00049 17.9994 2.00049C17.6574 2.00049 17.3244 2.01749 16.9964 2.04349C16.9964 2.02849 16.9994 2.01549 16.9994 2.00049C16.9994 0.895488 16.3284 0.000488281 15.4994 0.000488281C14.6704 0.000488281 13.9994 0.895488 13.9994 2.00049C13.9994 2.25749 14.0394 2.50049 14.1054 2.72649C12.2884 3.55049 11.0804 5.14049 11.0104 7.76649C7.97939 9.55149 5.99939 12.6625 5.99939 17.0005C5.99939 24.1595 11.3724 33.9235 17.9994 33.9235C24.6274 33.9235 29.9994 24.1595 29.9994 17.0005C29.9994 12.6625 28.0194 9.55049 24.9884 7.76649Z" fill="#31373D"/>
<path d="M16.0004 34.9595C9.56339 34.3645 4.49939 28.0645 4.49939 20.3785C4.49939 12.6935 9.56339 9.59754 15.9994 9.00054C16.3294 8.97054 16.9994 8.95454 16.9994 11.2945V33.8355C16.9994 35.0065 16.3304 34.9915 16.0004 34.9595ZM19.9984 34.9595C26.4344 34.3645 31.4994 28.0645 31.4994 20.3785C31.4994 12.6935 26.4344 9.59754 19.9994 9.00054C19.6694 8.97054 18.9994 8.95454 18.9994 11.2945V33.8355C18.9994 35.0065 19.6694 34.9915 19.9984 34.9595Z" fill="#DD2E44"/>
<path d="M12.9994 17.0005C14.104 17.0005 14.9994 16.1051 14.9994 15.0005C14.9994 13.8959 14.104 13.0005 12.9994 13.0005C11.8948 13.0005 10.9994 13.8959 10.9994 15.0005C10.9994 16.1051 11.8948 17.0005 12.9994 17.0005Z" fill="#31373D"/>
<path d="M9.99939 25.0005C11.6562 25.0005 12.9994 23.6573 12.9994 22.0005C12.9994 20.3436 11.6562 19.0005 9.99939 19.0005C8.34254 19.0005 6.99939 20.3436 6.99939 22.0005C6.99939 23.6573 8.34254 25.0005 9.99939 25.0005Z" fill="#31373D"/>
<path d="M12.9994 31.0005C14.104 31.0005 14.9994 30.1051 14.9994 29.0005C14.9994 27.8959 14.104 27.0005 12.9994 27.0005C11.8948 27.0005 10.9994 27.8959 10.9994 29.0005C10.9994 30.1051 11.8948 31.0005 12.9994 31.0005Z" fill="#31373D"/>
<path d="M24.4994 17.0005C25.8801 17.0005 26.9994 15.8812 26.9994 14.5005C26.9994 13.1198 25.8801 12.0005 24.4994 12.0005C23.1187 12.0005 21.9994 13.1198 21.9994 14.5005C21.9994 15.8812 23.1187 17.0005 24.4994 17.0005Z" fill="#31373D"/>
<path d="M22.4994 22.0005C23.3278 22.0005 23.9994 21.3289 23.9994 20.5005C23.9994 19.6721 23.3278 19.0005 22.4994 19.0005C21.671 19.0005 20.9994 19.6721 20.9994 20.5005C20.9994 21.3289 21.671 22.0005 22.4994 22.0005Z" fill="#31373D"/>
<path d="M27.9994 25.0005C29.104 25.0005 29.9994 24.1051 29.9994 23.0005C29.9994 21.8959 29.104 21.0005 27.9994 21.0005C26.8948 21.0005 25.9994 21.8959 25.9994 23.0005C25.9994 24.1051 26.8948 25.0005 27.9994 25.0005Z" fill="#31373D"/>
<path d="M23.9994 32.0005C25.6562 32.0005 26.9994 30.6573 26.9994 29.0005C26.9994 27.3436 25.6562 26.0005 23.9994 26.0005C22.3425 26.0005 20.9994 27.3436 20.9994 29.0005C20.9994 30.6573 22.3425 32.0005 23.9994 32.0005Z" fill="#31373D"/>
</svg>
