<svg width="36" height="36" viewBox="0 0 36 36" fill="none" xmlns="http://www.w3.org/2000/svg">
<path d="M11.835 7.63448C11.116 7.63448 9.54003 9.87748 8.26803 8.66348C7.82803 8.24448 10.086 7.38548 9.99503 6.64648C9.92003 6.03948 7.15303 5.12648 8.12003 4.54748C9.08703 3.96948 10.538 5.38848 11.633 5.41348C14.015 5.46848 15.845 4.56048 15.871 4.54748C16.412 4.27348 17.066 4.49548 17.335 5.04348C17.605 5.59048 17.386 6.25648 16.847 6.52948C16.716 6.59548 14.622 7.63448 11.835 7.63448Z" fill="#DD2E44"/>
<path d="M27.8131 36.0005C23.8461 36.0005 19.6311 33.0885 19.6311 27.6925C19.6311 26.3185 18.7411 26.0315 17.9941 26.0315C17.2481 26.0315 16.3581 26.3185 16.3581 27.6925C16.3581 33.0885 12.1421 36.0005 8.17606 36.0005C4.21006 36.0005 -0.00494385 33.2305 -0.00494385 27.6925C-0.00494385 14.4005 14.1771 12.5655 14.1771 14.4005C14.1771 16.2355 6.54106 13.2935 6.54106 26.5855C6.54106 28.8005 7.43106 29.3545 8.17706 29.3545C8.92406 29.3545 9.81406 29.0675 9.81406 27.6935C9.81406 22.2985 14.0291 19.3855 17.9961 19.3855C21.9621 19.3855 26.1781 22.2975 26.1781 27.6935C26.1781 29.0675 27.0681 29.3545 27.8151 29.3545C28.5621 29.3545 29.4511 29.0675 29.4511 27.6935V11.0775C29.4511 7.22249 26.0341 6.64649 23.9971 6.64649C23.9971 6.64649 20.7251 7.75449 17.4521 7.75449C14.1791 7.75449 13.0881 5.15849 13.0881 3.32349C13.0861 1.48849 17.4501 0.000488281 23.9951 0.000488281C30.5411 0.000488281 35.9951 4.45149 35.9951 11.0775V27.6925C35.9951 33.0885 31.7791 36.0005 27.8131 36.0005Z" fill="#77B255"/>
<path d="M18.9951 4.00049C19.5473 4.00049 19.9951 3.55277 19.9951 3.00049C19.9951 2.4482 19.5473 2.00049 18.9951 2.00049C18.4428 2.00049 17.9951 2.4482 17.9951 3.00049C17.9951 3.55277 18.4428 4.00049 18.9951 4.00049Z" fill="#292F33"/>
</svg>
