<svg width="36" height="36" viewBox="0 0 36 36" fill="none" xmlns="http://www.w3.org/2000/svg">
<path d="M12.4648 20.6298C12.4648 20.6298 10.0058 24.7158 10.6848 26.2818C11.0938 27.2268 11.8078 28.3458 13.0738 28.5528C13.4968 28.6218 13.6968 29.4508 13.5748 30.0578C13.4358 30.7438 12.9538 31.7038 12.6888 32.1898C12.4238 32.6768 11.9118 32.6708 11.2778 33.2308C10.8358 33.6208 10.6808 34.3058 11.4308 34.3128L14.9758 34.3418C15.6398 34.3478 16.0688 33.9438 16.2158 33.2748C16.4198 32.3468 16.9758 28.8138 16.7668 28.1288C16.6168 27.6378 16.0998 27.2428 15.7718 26.2938C15.5288 25.5908 16.1148 24.4908 16.1148 24.4908L12.4648 20.6298ZM6.7168 15.0588C6.7168 15.0588 7.5408 14.9128 7.9888 14.9978C8.4368 15.0838 9.6938 16.0168 10.0738 16.1578C10.4538 16.2988 11.3728 16.0828 11.3728 16.0828C11.3728 16.0828 12.4378 17.5188 12.3678 17.6638C12.2978 17.8088 10.7508 18.1338 10.3868 18.2428C10.0238 18.3518 8.6318 16.1618 8.2408 15.9158C7.8498 15.6698 7.2608 16.2748 6.8678 16.2568C6.4758 16.2388 6.5858 15.9588 6.8628 15.8828C6.8628 15.8828 6.3958 16.0398 6.3798 15.8638C6.3638 15.6878 6.7678 15.5828 6.7678 15.5828C6.7678 15.5828 6.3588 15.7288 6.2928 15.5568C6.2288 15.3848 6.3558 15.1768 6.7168 15.0588Z" fill="#3E701E"/>
<path d="M26.7388 29.6098C25.6378 27.5198 20.4758 25.0898 19.4148 24.1968C18.3538 23.3028 16.4028 17.5038 14.7808 16.4408C13.6198 15.6808 13.1568 14.0258 12.8388 12.4728C12.7128 11.8558 11.1668 11.1398 11.0518 10.6178C10.7568 11.1228 7.8818 12.6608 9.4278 13.0768C10.8118 13.4488 9.7948 17.3468 11.2928 19.8048C12.1998 21.2918 12.2838 23.6938 14.3878 25.8378C16.4258 27.9148 20.7708 27.1618 22.7448 29.8888C26.2778 34.7688 32.3888 34.7588 34.8738 31.3578C34.8738 31.3578 32.3308 32.1278 30.7388 32.0908C29.0538 32.0518 27.7358 31.5008 26.7388 29.6098Z" fill="#5C913A"/>
<path d="M14.1508 20.9258C14.1508 20.9258 12.6798 24.2588 13.4228 26.0338C14.1098 27.6768 15.7818 28.9858 17.3198 29.5058C17.6938 29.6318 18.4128 29.6218 18.5878 30.1638C18.7628 30.7058 18.4238 32.5068 18.1798 32.9548C17.9358 33.4028 16.6478 33.6398 16.3808 34.4608C16.2808 34.7678 16.0778 35.2098 16.6618 35.2638C17.3488 35.3268 20.9278 35.2898 21.5388 35.2958C22.1498 35.3008 22.3038 34.8218 22.3098 34.1918C22.3128 33.7938 21.6218 31.8018 21.9198 30.3888C22.0958 29.5538 22.4458 28.7628 22.9218 28.0548C23.9228 26.5658 22.9658 26.3938 21.5708 26.3938C19.3948 26.3938 17.2308 25.7828 17.2308 25.7828L14.1508 20.9258ZM6.25881 17.7838C6.25881 17.7838 7.03881 17.3598 7.51881 17.2948C7.99881 17.2308 9.57581 17.7468 10.0068 17.7608C10.4368 17.7748 11.6968 16.9108 11.6968 16.9108C11.6968 16.9108 12.8428 18.3358 12.8208 18.5058C12.7988 18.6748 11.3518 19.5218 11.0228 19.7538C10.6938 19.9858 8.87981 18.2948 8.40381 18.1788C7.92781 18.0628 7.21581 18.8248 6.81581 18.9388C6.41481 19.0528 6.43181 18.7338 6.68581 18.5638C6.68581 18.5638 6.26881 18.8788 6.19281 18.7078C6.11781 18.5368 6.48881 18.2948 6.48881 18.2948C6.48881 18.2948 6.12681 18.5798 6.00281 18.4278C5.87781 18.2758 5.93581 18.0248 6.25881 17.7838Z" fill="#77B155"/>
<path d="M10.6548 7.40277C10.7658 7.59677 9.39476 9.18877 8.97776 9.41377C8.73476 9.54777 8.18076 9.49977 7.63776 9.45077C8.36076 9.14877 8.16476 8.69977 7.83976 8.28677C8.09576 8.37277 8.29876 8.43077 8.39876 8.42577C8.80776 8.39177 10.3398 6.80977 10.6548 7.40277Z" fill="#292E32"/>
<path d="M8.97179 10.3558C8.42879 10.4978 7.75979 10.3558 7.44479 10.1138C7.19379 9.93777 7.15079 9.69977 7.51979 9.50777C7.54879 9.49577 7.57779 9.47477 7.61779 9.46177C7.62779 9.46077 7.62679 9.45077 7.63679 9.45077C8.18079 9.49977 8.73479 9.54777 8.97679 9.41377C9.39479 9.18977 10.7658 7.59677 10.6538 7.40277C10.3388 6.80977 8.80679 8.39077 8.39779 8.42477C8.29779 8.43077 8.09379 8.37177 7.83879 8.28677C7.69879 8.10477 7.53879 7.93377 7.40979 7.78077C7.40979 7.78077 7.75079 7.08977 8.74979 6.52077C9.74879 5.95177 11.4148 6.34677 12.0248 7.02277C12.6358 7.69977 9.95879 10.0988 8.97179 10.3558Z" fill="#77B155"/>
<path d="M9.04078 13.1038C8.52378 12.8918 8.36378 12.7328 7.92478 12.3878C7.63078 12.1578 7.21878 11.9428 6.68578 11.9938C5.41978 12.1148 3.21178 12.6318 2.79278 12.3158C2.37378 11.9998 2.14278 11.1208 2.44478 10.9728C2.47378 10.9608 2.53278 10.9378 2.60178 10.9138L2.60378 10.9438C2.60378 10.9438 2.56078 11.9278 2.94378 11.9758C3.32778 12.0338 6.25878 10.7418 6.95278 10.4318C7.18778 10.3278 7.34078 10.2088 7.44578 10.1128C7.76078 10.3548 8.42978 10.4968 8.97278 10.3548C9.95978 10.0978 12.6368 7.69781 12.0268 7.02181C11.4148 6.34681 9.74878 5.95281 8.74978 6.52081C7.75078 7.08981 7.40978 7.78081 7.40978 7.78081C7.53878 7.93381 7.69878 8.10481 7.83978 8.28681C7.51378 8.18581 7.11378 8.02881 6.72478 7.88081C6.89878 7.59981 7.05978 7.26981 7.05978 7.26981C7.05978 7.26981 5.88478 6.69681 5.13878 6.78981C4.39178 6.88281 1.22078 7.31681 0.914783 7.56481C0.617783 7.80281 1.16578 8.62281 1.16578 8.62281C1.19978 8.69081 1.23378 8.74881 1.26778 8.81681C1.10878 8.83581 0.989783 8.85281 0.928783 8.84681C0.444783 8.79481 0.115783 7.08981 0.332783 6.51681C0.559783 5.94281 1.54778 4.47281 3.05878 3.75381C4.57978 3.02481 5.40078 2.95981 5.81478 2.50481C5.92578 2.38581 5.94078 2.02881 6.46878 1.86681C7.03978 1.69181 8.01778 1.74681 8.75978 1.06981C10.9758 -0.95219 11.3158 0.43381 12.6248 0.86481C14.2728 1.40781 15.1648 0.30481 16.5808 4.00181C17.6728 6.85281 15.9178 8.34681 17.8718 10.1338C17.8718 10.1338 19.5388 11.6768 20.8128 12.3288C29.5468 16.7958 25.8288 26.0468 30.2998 29.3398C34.3798 32.3448 35.0818 27.6338 34.2768 26.1948C34.1408 25.9528 34.3908 25.6048 34.7578 25.9518C35.6498 26.7928 35.9268 28.6488 35.6758 29.8068C35.0158 32.8588 32.1778 33.3868 29.4078 33.0378C24.9818 32.4808 22.8328 25.3658 18.6448 27.5238C16.4428 28.6588 15.0978 23.7808 13.5478 21.4528C12.1768 19.3948 10.4988 14.3488 10.2178 13.4188C10.1738 13.2698 9.58578 13.3268 9.04078 13.1038Z" fill="#77B155"/>
<path d="M7.05977 7.26975C7.05977 7.26975 6.89877 7.59975 6.72477 7.88075C6.59477 8.06875 6.47377 8.22575 6.38477 8.25075C6.31477 8.25475 6.23877 7.96875 6.19277 7.70075L6.18277 7.70175L6.11577 7.23475C6.11577 7.23475 6.08777 7.43675 6.04977 7.65875C5.97677 7.94375 5.87477 8.26075 5.73577 8.27875C5.67577 8.28175 5.47377 7.91275 5.32777 7.64075C5.24877 7.48475 5.19177 7.36775 5.19177 7.36775C5.19177 7.36775 5.18977 7.50775 5.17977 7.68875C5.16677 7.98075 5.14977 8.38275 5.09077 8.39575C5.03077 8.39975 4.82277 8.09075 4.67877 7.84875L4.53377 7.59675L4.53077 7.88775C4.52777 8.18775 4.51177 8.60975 4.45277 8.63275C4.38277 8.63675 4.15277 8.29975 3.98877 8.05875C3.91077 7.92275 3.84577 7.82675 3.84577 7.82675C3.84577 7.82675 3.84277 7.94675 3.82177 8.10875C3.80877 8.40975 3.76377 8.84375 3.68477 8.85775C3.60477 8.86275 3.39577 8.53375 3.25077 8.28175C3.15077 8.11675 3.08277 7.98075 3.08277 7.98075C3.08277 7.98075 3.10177 8.13975 3.11277 8.32975C3.14977 8.62775 3.17377 9.03775 3.08477 9.06275C2.99677 9.09775 2.73577 8.74275 2.56977 8.48175C2.47177 8.33675 2.39477 8.21075 2.39477 8.21075C2.39477 8.21075 2.42177 8.33975 2.45177 8.50775C2.49877 8.80575 2.54377 9.23375 2.46577 9.26875C2.38777 9.30375 2.14577 8.92675 1.97877 8.64575L1.97777 8.63575C1.87777 8.47075 1.79977 8.33575 1.79977 8.33575L1.81977 8.68575C1.83677 8.98575 1.83977 9.38575 1.78177 9.41975C1.70377 9.46475 1.48977 9.21575 1.26577 8.81875C1.23377 8.74875 1.19977 8.69075 1.16577 8.62275C1.16577 8.62275 0.617772 7.80275 0.914772 7.56475C1.22077 7.31675 4.39277 6.88275 5.13877 6.78975C5.88477 6.69675 7.05977 7.26975 7.05977 7.26975ZM7.63377 9.74175C7.63377 9.74175 7.63277 9.90175 7.44477 10.1137C7.33977 10.2097 7.18677 10.3287 6.95177 10.4327C6.25877 10.7438 3.32677 12.0347 2.94277 11.9767C2.55877 11.9288 2.60277 10.9448 2.60277 10.9448L2.60077 10.9148C2.54877 10.3568 2.60477 9.94275 2.71477 9.93575C2.80477 9.93075 3.06277 10.5768 3.12377 10.7638C3.13577 10.7928 3.14677 10.8128 3.14677 10.8128C3.14677 10.8128 3.14577 10.7927 3.15277 10.7527C3.16977 10.5317 3.25377 9.72475 3.37277 9.70775C3.49277 9.70075 3.68077 10.3618 3.73477 10.5988C3.74777 10.6478 3.75977 10.6777 3.75977 10.6777C3.75977 10.6777 3.75777 10.6478 3.77477 10.5868C3.80077 10.3348 3.88777 9.59875 4.00677 9.57175C4.12577 9.54475 4.32177 10.1647 4.39677 10.4207L4.43277 10.5287C4.43277 10.5287 4.44077 10.4878 4.44577 10.4078C4.48877 10.1148 4.58477 9.34775 4.68377 9.32175C4.78177 9.27575 5.05577 10.0317 5.12677 10.2177C5.13877 10.2467 5.13877 10.2568 5.13877 10.2568L5.13577 10.2068C5.15377 9.99575 5.18777 9.20175 5.28677 9.18575C5.35677 9.18175 5.59177 9.60875 5.72877 9.89175C5.79677 10.0277 5.84277 10.1257 5.84277 10.1257C5.84277 10.1257 5.84377 9.97575 5.83377 9.79575C5.83577 9.50475 5.83477 9.13475 5.89377 9.12075C5.93377 9.11875 6.06577 9.32075 6.18777 9.52475C6.32077 9.74775 6.44477 9.97075 6.44477 9.97075C6.44477 9.97075 6.44777 9.66975 6.46277 9.40875C6.47277 9.22775 6.49277 9.06675 6.52177 9.04475C6.56077 9.02275 6.68077 9.19575 6.78177 9.39075C6.90277 9.58375 7.00577 9.79875 7.00577 9.79875C7.00577 9.79875 7.01477 9.60775 7.05277 9.40475C7.07277 9.22375 7.11177 9.04075 7.15977 8.99775C7.21677 8.94475 7.37277 9.21575 7.48577 9.43975C7.50777 9.46875 7.51877 9.48775 7.51977 9.50775C7.58777 9.64475 7.63377 9.74175 7.63377 9.74175Z" fill="#F4900C"/>
<path d="M2.45177 8.5088C2.28477 8.5678 2.12677 8.6068 1.97877 8.6358L1.97977 8.6458L1.82077 8.6848C1.60377 8.7478 1.41577 8.7888 1.26777 8.8168C1.23377 8.7488 1.19977 8.6908 1.16577 8.6228C1.16577 8.6228 0.617772 7.8028 0.914772 7.5648C1.22077 7.3168 4.39277 6.8828 5.13877 6.7898C5.88477 6.6968 7.05977 7.2698 7.05977 7.2698C7.05977 7.2698 6.89877 7.5998 6.72477 7.8808C6.54077 7.8208 6.35577 7.7518 6.19277 7.7008L6.18277 7.7018C6.13177 7.6848 6.09177 7.6768 6.04977 7.6588C5.81577 7.5928 5.62377 7.5538 5.52477 7.5798C5.48477 7.5918 5.41577 7.6058 5.32777 7.6408C5.28877 7.6528 5.23877 7.6658 5.17977 7.6898C5.04177 7.7278 4.87477 7.7768 4.67877 7.8488L4.53077 7.8868C4.36277 7.9368 4.18677 7.9968 3.98977 8.0588C3.94077 8.0718 3.88177 8.0948 3.82177 8.1088C3.63477 8.1698 3.43777 8.2308 3.25077 8.2818C3.20077 8.2948 3.15177 8.3078 3.11277 8.3298C2.92577 8.3808 2.74777 8.4308 2.57077 8.4818C2.53177 8.4938 2.49177 8.5058 2.45177 8.5088ZM5.11177 4.2468C7.38277 3.4848 6.12277 3.1968 7.28077 2.5888C7.89377 2.2718 8.73877 2.3338 8.89477 2.7758C9.05377 3.2778 9.01277 3.9508 7.82277 4.3508C7.13477 4.5808 5.11177 4.2468 5.11177 4.2468ZM8.97177 10.3558C8.42877 10.4978 7.75977 10.3558 7.44477 10.1138C7.33977 10.2098 7.18677 10.3288 6.95177 10.4328C6.25877 10.7438 3.32677 12.0348 2.94277 11.9768C2.55877 11.9288 2.60277 10.9448 2.60277 10.9448L2.60077 10.9148L3.12277 10.7648C3.13277 10.7638 3.14277 10.7638 3.15177 10.7528C3.32977 10.7028 3.52677 10.6508 3.73377 10.5988C3.74377 10.5978 3.76377 10.5968 3.77277 10.5868C3.97977 10.5348 4.19677 10.4718 4.39477 10.4208C4.41477 10.4198 4.42477 10.4188 4.44377 10.4078C4.71077 10.3418 4.94677 10.2688 5.12377 10.2178L5.13277 10.2068C5.18177 10.1938 5.23177 10.1808 5.27077 10.1688C5.45777 10.1078 5.59177 9.9998 5.72577 9.8918C5.76377 9.8598 5.79177 9.8278 5.83077 9.7958C5.94477 9.6888 6.04977 9.5928 6.18577 9.5248C6.26277 9.4698 6.35077 9.4348 6.45977 9.4088C6.50877 9.3958 6.55877 9.3928 6.61877 9.3898C6.66877 9.3868 6.71877 9.3838 6.77877 9.3908C6.85877 9.3958 6.94977 9.4008 7.04977 9.4048C7.17977 9.4068 7.33177 9.4288 7.48277 9.4398C7.53277 9.4468 7.58377 9.4538 7.63377 9.4508C8.17777 9.4998 8.73177 9.5478 8.97377 9.4138C9.39177 9.1898 10.7628 7.5968 10.6508 7.4028C10.3358 6.8098 8.80377 8.3908 8.39477 8.4248C8.29477 8.4308 8.09077 8.3718 7.83577 8.2868C7.69877 8.1048 7.53877 7.9338 7.40977 7.7808C7.40977 7.7808 7.75077 7.0898 8.74977 6.5208C9.74877 5.9518 11.4148 6.3468 12.0248 7.0228C12.6358 7.6998 9.95877 10.0988 8.97177 10.3558Z" fill="#77B155"/>
<path d="M7.82276 4.3508C7.13476 4.5808 5.11176 4.2468 5.11176 4.2468C7.38276 3.4848 6.12276 3.1968 7.28076 2.5888C7.89375 2.2718 8.73876 2.3338 8.89476 2.7758C9.05376 3.2778 9.01276 3.9508 7.82276 4.3508Z" fill="#3E701E"/>
<path d="M7.6618 3.89476C7.9291 3.89476 8.14579 3.67806 8.14579 3.41076C8.14579 3.14345 7.9291 2.92676 7.6618 2.92676C7.39449 2.92676 7.1778 3.14345 7.1778 3.41076C7.1778 3.67806 7.39449 3.89476 7.6618 3.89476Z" fill="#292F33"/>
<path d="M20.3778 13.8388C20.2508 14.0838 19.9488 14.1788 19.7038 14.0518C19.4588 13.9248 19.3638 13.6228 19.4908 13.3778C19.6178 13.1328 19.9198 13.0378 20.1648 13.1648C20.4098 13.2918 20.5048 13.5938 20.3778 13.8388ZM21.6238 16.9898C21.4428 17.3388 21.0128 17.4738 20.6638 17.2928C20.3148 17.1118 20.1798 16.6818 20.3608 16.3328C20.5418 15.9838 20.9718 15.8488 21.3208 16.0298C21.6698 16.2118 21.8048 16.6418 21.6238 16.9898ZM22.1608 14.7798C22.0648 14.9648 21.8358 15.0378 21.6508 14.9408C21.4658 14.8438 21.3928 14.6158 21.4898 14.4298C21.5868 14.2438 21.8148 14.1718 22.0008 14.2688C22.1868 14.3658 22.2578 14.5948 22.1608 14.7798ZM23.2228 16.2178C23.1318 16.3928 22.9158 16.4618 22.7398 16.3698C22.5648 16.2788 22.4958 16.0628 22.5878 15.8868C22.6788 15.7118 22.8948 15.6438 23.0708 15.7348C23.2458 15.8268 23.3138 16.0428 23.2228 16.2178ZM26.2278 23.7508C26.1588 23.8838 25.9948 23.9358 25.8618 23.8668C25.7288 23.7978 25.6768 23.6338 25.7458 23.5008C25.8148 23.3678 25.9788 23.3158 26.1118 23.3858C26.2448 23.4558 26.2968 23.6178 26.2278 23.7508ZM25.0118 18.3808C24.8428 18.7048 24.4438 18.8308 24.1188 18.6628C23.7948 18.4938 23.6688 18.0948 23.8368 17.7698C24.0058 17.4458 24.4048 17.3198 24.7298 17.4878C25.0548 17.6568 25.1808 18.0568 25.0118 18.3808Z" fill="#3E701E"/>
<path d="M24.3647 23.4068C24.5989 23.4068 24.7887 23.217 24.7887 22.9828C24.7887 22.7487 24.5989 22.5588 24.3647 22.5588C24.1306 22.5588 23.9407 22.7487 23.9407 22.9828C23.9407 23.217 24.1306 23.4068 24.3647 23.4068Z" fill="#3E701E"/>
<path d="M22.8508 18.7218C23.0849 18.7218 23.2748 18.5319 23.2748 18.2978C23.2748 18.0636 23.0849 17.8738 22.8508 17.8738C22.6166 17.8738 22.4268 18.0636 22.4268 18.2978C22.4268 18.5319 22.6166 18.7218 22.8508 18.7218Z" fill="#3E701E"/>
<path d="M25.6357 22.1118C25.8699 22.1118 26.0597 21.922 26.0597 21.6878C26.0597 21.4536 25.8699 21.2638 25.6357 21.2638C25.4016 21.2638 25.2117 21.4536 25.2117 21.6878C25.2117 21.922 25.4016 22.1118 25.6357 22.1118Z" fill="#3E701E"/>
<path d="M24.0547 20.9638C24.401 20.9638 24.6817 20.6831 24.6817 20.3368C24.6817 19.9906 24.401 19.7098 24.0547 19.7098C23.7085 19.7098 23.4277 19.9906 23.4277 20.3368C23.4277 20.6831 23.7085 20.9638 24.0547 20.9638Z" fill="#3E701E"/>
</svg>
