<svg width="22" height="36" viewBox="0 0 22 36" fill="none" xmlns="http://www.w3.org/2000/svg">
<path d="M13 32.2155C13 33.3985 12.041 34.3585 10.857 34.3585C9.67299 34.3585 8.71399 33.3985 8.71399 32.2155C8.71399 31.0315 9.67399 30.0715 10.857 30.0715C12.04 30.0715 13 31.0315 13 32.2155Z" fill="#E1E8ED"/>
<path d="M20.5 15.6435C20.5 10.3175 16.181 6.00049 10.857 6.00049C5.53101 6.00049 1.21401 10.3175 1.21401 15.6435C1.21401 21.0005 0.143005 32.2155 0.143005 32.2155C0.143005 33.3985 1.10201 34.3585 2.28601 34.3585C3.46901 34.3585 4.42901 33.3985 4.42901 32.2155C4.42901 33.3985 5.38901 34.3585 6.57201 34.3585C7.75501 34.3585 8.71401 33.3985 8.71401 32.2155H13C13 33.3985 13.96 34.3585 15.144 34.3585C16.327 34.3585 17.287 33.3985 17.287 32.2155C17.287 33.3985 18.246 34.3585 19.43 34.3585C20.614 34.3585 21.573 33.3985 21.573 32.2155C21.571 32.2155 20.5 21.0005 20.5 15.6435Z" fill="#E1E8ED"/>
<path d="M12.857 3.00049C12.857 5.20949 11.41 9.00049 10.857 9.00049C10.305 9.00049 8.857 5.20949 8.857 3.00049C8.857 0.791488 10.305 0.000488281 10.857 0.000488281C11.41 0.000488281 12.857 0.791488 12.857 3.00049ZM8.492 33.0005C8.492 30.3885 10.203 25.0005 10.857 25.0005C11.51 25.0005 13.222 30.3885 13.222 33.0005C13.222 35.6125 11.509 36.0005 10.857 36.0005C10.203 36.0005 8.492 35.6125 8.492 33.0005Z" fill="#DD2E44"/>
<path d="M10.857 27.0005C14.723 27.0005 17.857 24.9858 17.857 22.5005C17.857 20.0152 14.723 18.0005 10.857 18.0005C6.991 18.0005 3.85699 20.0152 3.85699 22.5005C3.85699 24.9858 6.991 27.0005 10.857 27.0005Z" fill="#F4900C"/>
<path d="M17.857 22.5005C17.857 24.0005 3.85699 24.0005 3.85699 22.5005C3.85699 21.0005 8.64799 18.0005 10.857 18.0005C13.066 18.0005 17.857 21.0005 17.857 22.5005Z" fill="#FFAC33"/>
<path d="M4.35699 20.0005C5.18542 20.0005 5.85699 19.3289 5.85699 18.5005C5.85699 17.6721 5.18542 17.0005 4.35699 17.0005C3.52857 17.0005 2.85699 17.6721 2.85699 18.5005C2.85699 19.3289 3.52857 20.0005 4.35699 20.0005Z" fill="#292F33"/>
<path d="M17.357 20.0005C18.1854 20.0005 18.857 19.3289 18.857 18.5005C18.857 17.6721 18.1854 17.0005 17.357 17.0005C16.5286 17.0005 15.857 17.6721 15.857 18.5005C15.857 19.3289 16.5286 20.0005 17.357 20.0005Z" fill="#292F33"/>
</svg>
