<svg width="35" height="33" viewBox="0 0 35 33" fill="none" xmlns="http://www.w3.org/2000/svg">
<path d="M28.1492 17.5556C28.1492 23.4606 23.3652 28.2436 17.4612 28.2436C11.5582 28.2436 6.77319 23.4606 6.77319 17.5556C6.77319 11.6526 11.5592 6.86658 17.4612 6.86658C23.3652 6.86758 28.1492 11.6526 28.1492 17.5556Z" fill="#6D6E71"/>
<path d="M25.4612 30.7436H9.46118C7.79618 30.7436 6.98218 29.4046 6.69818 28.4336L4.03418 28.3776C3.88118 28.3746 3.73718 28.3006 3.64518 28.1776C3.55318 28.0556 3.52218 27.8966 3.56218 27.7476L4.15618 25.5316L1.71018 24.8806C1.55818 24.8396 1.43418 24.7306 1.37518 24.5846C1.31618 24.4386 1.32918 24.2736 1.41018 24.1396L2.60918 22.1466L0.453177 20.9546C0.314177 20.8776 0.220177 20.7386 0.199177 20.5806C0.179177 20.4236 0.235177 20.2656 0.350177 20.1546L2.07918 18.5076L0.350177 16.8616C0.235177 16.7516 0.179177 16.5936 0.199177 16.4356C0.220177 16.2776 0.314177 16.1386 0.453177 16.0616L2.60918 14.8676L1.40918 12.8736C1.32818 12.7386 1.31518 12.5736 1.37418 12.4286C1.43318 12.2826 1.55718 12.1736 1.70918 12.1326L4.15518 11.4826L3.56118 9.26457C3.52118 9.11657 3.55218 8.95757 3.64418 8.83457C3.73618 8.71157 3.88018 8.63857 4.03418 8.63457L6.60918 8.58157L6.66718 6.27957C6.67118 6.13057 6.74118 5.99057 6.85918 5.89857C6.97718 5.80657 7.13018 5.77157 7.27518 5.80457L9.79618 6.36557L10.5132 4.13157C10.5582 3.99257 10.6612 3.88057 10.7952 3.82357C10.9312 3.76757 11.0832 3.77257 11.2122 3.83757L13.4962 4.97657L14.8372 2.96757C14.9172 2.84857 15.0452 2.76857 15.1872 2.74957C15.3322 2.73057 15.4742 2.77357 15.5812 2.86857L17.4612 4.50157L19.3412 2.86557C19.4502 2.77157 19.5922 2.72857 19.7362 2.74757C19.8792 2.76657 20.0052 2.84657 20.0862 2.96557L21.4262 4.97457L23.7122 3.83557C23.8422 3.77057 23.9952 3.76657 24.1292 3.82157C24.2642 3.87857 24.3662 3.99057 24.4112 4.12957L25.1272 6.36357L27.6482 5.80257C27.7942 5.77057 27.9462 5.80457 28.0642 5.89657C28.1822 5.98857 28.2522 6.12857 28.2562 6.27757L28.3142 8.57957L30.8882 8.63257C31.0412 8.63557 31.1852 8.70957 31.2772 8.83257C31.3702 8.95557 31.4002 9.11457 31.3602 9.26257L30.7652 11.4796L33.2142 12.1296C33.3662 12.1696 33.4902 12.2796 33.5502 12.4256C33.6092 12.5716 33.5962 12.7366 33.5152 12.8706L32.3142 14.8646L34.4692 16.0586C34.6092 16.1356 34.7022 16.2746 34.7232 16.4326C34.7442 16.5906 34.6872 16.7486 34.5722 16.8586L32.8432 18.5046L34.5722 20.1516C34.6872 20.2616 34.7442 20.4206 34.7232 20.5776C34.7022 20.7356 34.6092 20.8746 34.4692 20.9516L32.3152 22.1436L33.5152 24.1366C33.5962 24.2716 33.6092 24.4366 33.5502 24.5816C33.4902 24.7276 33.3662 24.8366 33.2152 24.8776L30.7652 25.5286L31.3602 27.7446C31.4002 27.8926 31.3702 28.0516 31.2782 28.1746C31.1852 28.2976 31.0422 28.3716 30.8882 28.3746L28.2252 28.4306C27.9402 29.4046 27.1262 30.7436 25.4612 30.7436Z" fill="#662113"/>
<path d="M15.6492 26.0676C15.6272 26.0676 15.6052 26.0666 15.5832 26.0636C15.4402 26.0446 15.3132 25.9646 15.2332 25.8446L14.1752 24.2596L12.3702 25.1586C12.2392 25.2226 12.0872 25.2286 11.9522 25.1726C11.8182 25.1156 11.7152 25.0036 11.6702 24.8636L11.1062 23.1066L9.11615 23.5486C8.96815 23.5796 8.81715 23.5456 8.69915 23.4536C8.58115 23.3616 8.51115 23.2226 8.50715 23.0726L8.46215 21.2686L6.43315 21.2256C6.28015 21.2226 6.13615 21.1486 6.04415 21.0256C5.95215 20.9036 5.92115 20.7446 5.96115 20.5956L6.42515 18.8636L4.50515 18.3536C4.35315 18.3126 4.22915 18.2036 4.17015 18.0576C4.11115 17.9116 4.12415 17.7466 4.20515 17.6126L5.14215 16.0556L3.45415 15.1216C3.31415 15.0446 3.22015 14.9056 3.20015 14.7476C3.18015 14.5896 3.23615 14.4316 3.35115 14.3216L4.70315 13.0326L3.35115 11.7456C3.23615 11.6356 3.18015 11.4776 3.20015 11.3196C3.22115 11.1616 3.31515 11.0226 3.45415 10.9456L5.14315 10.0106L4.20615 8.45257C4.12515 8.31756 4.11215 8.15257 4.17115 8.00757C4.23015 7.86157 4.35415 7.75257 4.50615 7.71157L6.42815 7.20057L5.96215 5.46857C5.92215 5.32057 5.95315 5.16157 6.04515 5.03857C6.13715 4.91557 6.28115 4.84257 6.43515 4.83857L8.46415 4.79657L8.50915 2.99157C8.51315 2.84257 8.58315 2.70257 8.70115 2.61057C8.81815 2.51857 8.97115 2.48357 9.11715 2.51657L11.1072 2.95857L11.6712 1.20257C11.7162 1.06357 11.8192 0.951566 11.9532 0.894566C12.0892 0.839566 12.2402 0.843566 12.3712 0.908566L14.1762 1.80757L15.2342 0.223566C15.3142 0.104566 15.4412 0.024566 15.5842 0.00556601C15.7282 -0.015434 15.8712 0.029566 15.9792 0.124566L17.4612 1.41557L18.9452 0.124566C19.0542 0.029566 19.1982 -0.013434 19.3402 0.00556601C19.4832 0.024566 19.6092 0.104566 19.6902 0.223566L20.7472 1.80657L22.5542 0.906566C22.6842 0.842566 22.8372 0.837566 22.9712 0.893566C23.1062 0.950566 23.2082 1.06257 23.2532 1.20157L23.8152 2.95757L25.8062 2.51557C25.9522 2.48257 26.1062 2.51757 26.2222 2.60957C26.3402 2.70157 26.4102 2.84157 26.4142 2.99157L26.4592 4.79557L28.4872 4.83757C28.6402 4.84057 28.7842 4.91457 28.8762 5.03757C28.9692 5.16057 28.9992 5.31957 28.9592 5.46757L28.4942 7.20157L30.4182 7.71257C30.5702 7.75357 30.6942 7.86257 30.7542 8.00857C30.8132 8.15457 30.8002 8.31957 30.7192 8.45357L29.7812 10.0116L31.4702 10.9466C31.6102 11.0236 31.7032 11.1626 31.7242 11.3206C31.7452 11.4786 31.6882 11.6366 31.5732 11.7466L30.2202 13.0336L31.5732 14.3226C31.6882 14.4326 31.7452 14.5906 31.7242 14.7486C31.7032 14.9066 31.6092 15.0446 31.4702 15.1226L29.7822 16.0566L30.7202 17.6136C30.8012 17.7486 30.8142 17.9136 30.7552 18.0586C30.6952 18.2036 30.5712 18.3136 30.4202 18.3546L28.4952 18.8666L28.9602 20.5986C29.0002 20.7466 28.9702 20.9056 28.8782 21.0286C28.7852 21.1516 28.6422 21.2256 28.4882 21.2286L26.4602 21.2716L26.4152 23.0756C26.4112 23.2246 26.3412 23.3646 26.2232 23.4566C26.1062 23.5486 25.9522 23.5826 25.8072 23.5516L23.8162 23.1096L23.2542 24.8666C23.2092 25.0056 23.1072 25.1186 22.9722 25.1756C22.8382 25.2336 22.6882 25.2286 22.5552 25.1616L20.7492 24.2626L19.6912 25.8476C19.6112 25.9676 19.4842 26.0466 19.3412 26.0666C19.1992 26.0846 19.0552 26.0426 18.9462 25.9476L17.4612 24.6506L15.9782 25.9446C15.8862 26.0246 15.7692 26.0676 15.6492 26.0676Z" fill="#8A4B38"/>
<path d="M12.9612 24.2955H21.9612C25.4822 24.2955 28.4612 26.8705 28.4612 28.7955C28.4612 30.4455 27.1112 30.7955 25.4612 30.7955H9.46118C7.81118 30.7955 6.46118 30.4455 6.46118 28.7955C6.46118 26.8705 9.45118 24.2955 12.9612 24.2955Z" fill="#8A4B38"/>
<path d="M25.6832 20.0226C25.6832 24.1106 22.0032 27.4206 17.4612 27.4206C12.9192 27.4206 9.2392 24.1106 9.2392 20.0226C9.2392 15.9356 12.9192 12.6226 17.4612 12.6226C22.0032 12.6226 25.6832 15.9356 25.6832 20.0226Z" fill="#D99E82"/>
<path d="M20.7502 23.7226C20.7502 25.7656 19.2772 27.4216 17.4612 27.4216C15.6452 27.4216 14.1722 25.7656 14.1722 23.7226C14.1722 21.6796 15.6442 20.0236 17.4612 20.0236C19.2782 20.0236 20.7502 21.6786 20.7502 23.7226Z" fill="#E6E7E8"/>
<path d="M19.1062 24.9545C19.1062 25.8625 18.3702 26.5995 17.4612 26.5995C16.5522 26.5995 15.8162 25.8635 15.8162 24.9545C15.8162 24.0465 16.5522 23.3125 17.4612 23.3125C18.3702 23.3125 19.1062 24.0465 19.1062 24.9545ZM14.1722 18.7885C14.1722 19.4705 13.6202 20.0225 12.9392 20.0225C12.2582 20.0225 11.7062 19.4695 11.7062 18.7885C11.7062 18.1085 12.2582 17.5565 12.9392 17.5565C13.6202 17.5555 14.1722 18.1085 14.1722 18.7885ZM23.2162 18.7885C23.2162 19.4705 22.6642 20.0225 21.9842 20.0225C21.3022 20.0225 20.7512 19.4695 20.7512 18.7885C20.7512 18.1085 21.3032 17.5565 21.9842 17.5565C22.6642 17.5555 23.2162 18.1085 23.2162 18.7885Z" fill="#231F20"/>
<path d="M10.8832 15.0896C10.8832 15.0896 14.9942 13.4456 15.8162 15.0896C16.6392 16.7336 17.4612 16.7336 17.4612 16.7336V11.7996C17.4612 11.8006 10.8832 11.8006 10.8832 15.0896ZM24.0382 15.0896C24.0382 15.0896 19.9282 13.4456 19.1052 15.0896C18.2832 16.7336 17.4612 16.7336 17.4612 16.7336V11.7996C17.4612 11.8006 24.0382 11.8006 24.0382 15.0896Z" fill="#C1694F"/>
<path d="M11.7062 15.4996C11.7062 16.6356 10.7862 17.5556 9.65115 17.5556C8.51515 17.5556 7.59515 16.6356 7.59515 15.4996C7.59515 14.3646 8.51515 13.4446 9.65115 13.4446C10.7862 13.4446 11.7062 14.3646 11.7062 15.4996ZM27.3272 15.4996C27.3272 16.6356 26.4072 17.5556 25.2712 17.5556C24.1362 17.5556 23.2152 16.6356 23.2152 15.4996C23.2152 14.3646 24.1362 13.4446 25.2712 13.4446C26.4072 13.4446 27.3272 14.3646 27.3272 15.4996ZM10.4612 32.2436C8.46115 32.2436 8.46115 28.2436 12.4612 28.2436C16.4612 28.2436 16.5232 32.2436 14.4612 32.2436H10.4612ZM20.4612 32.2436C18.4612 32.2436 18.4612 28.2436 22.4612 28.2436C26.4612 28.2436 26.5232 32.2436 24.4612 32.2436H20.4612Z" fill="#D99E82"/>
</svg>
