<svg width="37" height="35" viewBox="0 0 37 35" fill="none" xmlns="http://www.w3.org/2000/svg">
<path d="M3.57105 6.5719C2.52205 5.4859 2.03605 3.6689 3.77105 1.4659C5.50605 -0.737097 12.9151 -1.4041 12.3811 6.4049C12.3141 8.2399 11.6131 11.0099 9.77805 14.7809C9.31105 15.7489 8.51005 17.3169 8.17605 19.6199C9.14405 18.8189 12.0801 17.3839 15.0841 17.7849C18.0871 18.1849 33.1381 24.9269 36.1411 22.0899C36.2411 23.2579 32.5041 34.8709 17.5861 34.8709C2.66805 34.8709 0.266052 27.3619 0.266052 23.9589C0.266052 20.5559 1.13405 18.7859 3.63705 16.4169C6.14005 14.0479 9.97905 8.4079 8.24305 5.9049C7.87605 6.5719 5.47405 8.5409 3.57105 6.5719Z" fill="#E1E8ED"/>
<path d="M10.3461 26.0949C9.77906 28.2309 13.3131 32.6839 19.0561 32.7029C27.4411 32.7309 31.9371 27.9979 34.4401 21.9569C32.0041 20.8889 20.6141 18.7029 17.3111 20.0379C14.0081 21.3729 13.6441 21.6209 10.0131 23.5579C11.1801 23.7589 10.3131 26.0949 10.3461 26.0949Z" fill="#CCD6DD"/>
<path d="M5.61907 6.91492C5.71707 6.82992 5.77407 6.72792 5.77407 6.60592C5.77407 5.63792 5.84107 4.10292 6.17407 3.70292C6.95907 3.78592 7.29207 2.96792 6.79207 2.43392C6.29207 1.89992 5.37407 2.50092 5.44007 3.06792C4.02607 2.69092 2.99807 2.92592 2.65607 3.97992C2.55207 5.04592 2.95807 5.93692 3.57107 6.57192C3.86607 6.87692 5.34707 6.99892 5.61907 6.91492Z" fill="#292F33"/>
<path d="M7.86304 4.29993C7.85904 5.28593 7.12304 6.44893 5.61904 6.91393C5.46004 7.04993 5.19004 7.13693 4.86804 7.18193C4.99904 7.26993 5.13604 7.34693 5.27904 7.41193C6.68904 7.50793 7.98304 6.37993 8.24404 5.90493C8.25004 5.91293 8.25204 5.92293 8.25704 5.93093C8.28704 5.04093 7.86304 4.29993 7.86304 4.29993Z" fill="#CCD6DD"/>
<path d="M9.44504 23.6248C9.47804 22.1568 10.813 16.2498 18.522 16.0828C26.231 15.9158 26.832 20.7548 32.938 15.6158C32.838 16.9168 30.669 30.6328 19.089 30.6328C9.87904 30.6328 9.41104 25.0928 9.44504 23.6248Z" fill="#E1E8ED"/>
<path d="M0.898051 10.1089C1.74805 9.84493 4.67305 8.14093 5.74105 6.93893C6.04105 6.60493 4.24605 4.53393 2.57705 4.29993C2.67705 4.83393 2.63705 6.87193 1.00205 8.67393C0.568051 9.00793 -0.0239487 10.2759 0.898051 10.1089Z" fill="#F4900C"/>
</svg>
