<svg width="33" height="36" viewBox="0 0 33 36" fill="none" xmlns="http://www.w3.org/2000/svg">
<path d="M16.2165 32.3026C16.1195 32.1226 15.9665 32.0006 15.7995 31.9116C14.2025 30.2056 15.3365 28.2046 15.3365 28.2046C15.3365 27.6516 16.3365 26.2046 15.3365 26.2046L14.3365 27.2046C13.3365 28.2046 13.3365 31.2046 13.3365 31.2046H11.3365C10.7835 31.2046 10.3365 31.6516 10.3365 32.2046C10.3365 32.7576 10.7835 33.2046 11.3365 33.2046H12.4445L12.2225 33.3246C11.7365 33.5876 11.5555 34.1936 11.8185 34.6796C12.0815 35.1656 12.6875 35.3466 13.1745 35.0836L15.8135 33.6566C16.2985 33.3946 16.4795 32.7886 16.2165 32.3026ZM22.3365 31.2046H20.3365C20.3365 31.2046 20.3365 28.2046 19.3365 27.2046L18.3365 26.2046C17.3365 26.2046 18.3365 27.6516 18.3365 28.2046C18.3365 28.2046 19.4715 30.2056 17.8745 31.9116C17.7065 32.0006 17.5545 32.1226 17.4565 32.3026C17.1935 32.7886 17.3745 33.3956 17.8605 33.6576L20.4995 35.0846C20.9855 35.3476 21.5925 35.1666 21.8555 34.6806C22.1185 34.1946 21.9375 33.5876 21.4515 33.3256L21.2295 33.2046H22.3365C22.8895 33.2046 23.3365 32.7576 23.3365 32.2046C23.3365 31.6516 22.8895 31.2046 22.3365 31.2046Z" fill="#FFAC33"/>
<path d="M32.8365 23.2046C31.8365 21.2046 29.8365 18.2046 28.8365 13.2046H28.8285C28.8295 13.1526 28.8365 13.1026 28.8365 13.0506C28.8365 7.10764 24.5125 2.18664 18.8405 1.23164C20.0295 0.97164 20.8715 0.72264 19.8365 0.20464C18.7215 -0.35336 17.6065 0.33364 16.8375 1.05064H16.8355C16.0665 0.33364 14.9525 -0.35336 13.8365 0.20464C12.8015 0.72264 13.6435 0.97164 14.8325 1.23064C9.16151 2.18564 4.83651 7.10664 4.83651 13.0506C4.83651 13.1026 4.84351 13.1526 4.84451 13.2046H4.83651C3.83651 18.2046 1.83651 21.2046 0.836513 23.2046C0.389513 24.0996 0.836513 26.2046 2.83651 25.2046C4.02751 24.6086 5.21351 23.2926 6.19351 21.4896C7.73851 26.1446 10.9025 30.2046 16.8365 30.2046C22.7705 30.2046 25.9345 26.1446 27.4795 21.4896C28.4595 23.2926 29.6455 24.6086 30.8365 25.2046C32.8365 26.2046 33.2835 24.0996 32.8365 23.2046Z" fill="#FFCC4D"/>
<path d="M19.8365 13.2046C19.8365 14.8616 18.4935 15.2046 16.8365 15.2046C15.1795 15.2046 13.8365 14.8616 13.8365 13.2046C13.8365 11.5476 15.1795 10.2046 16.8365 10.2046C18.4935 10.2046 19.8365 11.5476 19.8365 13.2046Z" fill="#F4900C"/>
<path d="M10.3365 12.2046C11.1649 12.2046 11.8365 11.533 11.8365 10.7046C11.8365 9.87616 11.1649 9.20459 10.3365 9.20459C9.50806 9.20459 8.83649 9.87616 8.83649 10.7046C8.83649 11.533 9.50806 12.2046 10.3365 12.2046Z" fill="#662113"/>
<path d="M23.3365 12.2046C24.1649 12.2046 24.8365 11.533 24.8365 10.7046C24.8365 9.87616 24.1649 9.20459 23.3365 9.20459C22.5081 9.20459 21.8365 9.87616 21.8365 10.7046C21.8365 11.533 22.5081 12.2046 23.3365 12.2046Z" fill="#662113"/>
</svg>
