<svg width="36" height="36" viewBox="0 0 36 36" fill="none" xmlns="http://www.w3.org/2000/svg">
<path d="M9.99938 12.0005C12.9994 17.0005 9.99938 22.6925 6.99938 21.6925C3.99938 20.6925 2.99938 23.6925 5.99938 24.6925C8.99938 25.6925 15.4644 24.2275 18.9994 20.6925C19.9994 19.6925 20.9994 19.6925 20.9994 19.6925L9.99938 12.0005Z" fill="#553788"/>
<path d="M25.9994 12.0005C22.9994 17.0005 25.9994 22.6925 28.9994 21.6925C31.9994 20.6925 32.9994 23.6925 29.9994 24.6925C26.9994 25.6925 20.5344 24.2275 16.9994 20.6925C15.9994 19.6925 14.9994 19.6925 14.9994 19.6925L25.9994 12.0005Z" fill="#553788"/>
<path d="M30.1874 16.0005C27.1874 21.0005 30.1874 26.6925 33.1874 25.6925C36.1874 24.6925 37.1874 27.6925 34.1874 28.6925C31.1874 29.6925 24.7224 28.2275 21.1874 24.6925C20.1874 23.6925 19.1874 23.6925 19.1874 23.6925L30.1874 16.0005ZM5.81139 16.0005C8.81139 21.0005 5.81139 26.6925 2.81139 25.6925C-0.188612 24.6925 -1.18861 27.6925 1.81139 28.6925C4.81139 29.6925 11.2764 28.2275 14.8114 24.6925C15.8114 23.6925 16.8114 23.6925 16.8114 23.6925L5.81139 16.0005Z" fill="#744EAA"/>
<path d="M33.1874 31.3755C30.4584 32.2855 26.7624 25.7495 28.3754 20.7975C30.0214 17.5545 30.9994 13.9405 30.9994 11.0005C30.9994 3.82049 25.1794 0.000488281 17.9994 0.000488281C10.8194 0.000488281 4.99939 3.82049 4.99939 11.0005C4.99939 13.9405 5.97739 17.5545 7.62339 20.7975C9.23639 25.7495 5.54039 32.2855 2.81139 31.3755C-0.188612 30.3755 -1.18861 34.3755 1.81139 35.3755C4.81139 36.3755 10.1214 34.7485 13.8114 31.3755C16.0004 29.3755 18.0004 29.3755 18.0004 29.3755C18.0004 29.3755 20.0004 29.3755 22.1884 31.3755C25.8784 34.7485 31.1884 36.3755 34.1884 35.3755C37.1884 34.3755 36.1874 30.3755 33.1874 31.3755Z" fill="#9266CC"/>
<path d="M13.9994 23.0005C15.104 23.0005 15.9994 22.1051 15.9994 21.0005C15.9994 19.8959 15.104 19.0005 13.9994 19.0005C12.8948 19.0005 11.9994 19.8959 11.9994 21.0005C11.9994 22.1051 12.8948 23.0005 13.9994 23.0005Z" fill="#292F33"/>
<path d="M21.9994 23.0005C23.104 23.0005 23.9994 22.1051 23.9994 21.0005C23.9994 19.8959 23.104 19.0005 21.9994 19.0005C20.8948 19.0005 19.9994 19.8959 19.9994 21.0005C19.9994 22.1051 20.8948 23.0005 21.9994 23.0005Z" fill="#292F33"/>
</svg>
