<svg width="36" height="36" viewBox="0 0 36 36" fill="none" xmlns="http://www.w3.org/2000/svg">
<path d="M27.816 22.5721C28.115 21.4241 28.281 20.2541 28.281 19.1081C28.281 14.9471 26.159 12.3291 23.023 11.0731C23.44 10.0651 23.688 8.96506 23.688 7.87306C23.688 6.29206 23.193 5.37506 22.373 4.84106C23.464 4.35906 24.89 3.34106 25.4 2.83006C26.181 2.04906 26.34 0.941061 25.754 0.355061C25.168 -0.230939 24.061 -0.0729387 23.279 0.709061C22.668 1.32006 21.331 3.23906 21.056 4.32806C20.172 4.13306 19.126 4.10806 18 4.10806C16.875 4.10806 15.828 4.13306 14.945 4.32706C14.67 3.23806 13.333 1.32006 12.722 0.708061C11.941 -0.0729387 10.833 -0.231939 10.247 0.354061C9.66199 0.941061 9.81999 2.04806 10.601 2.83006C11.112 3.34106 12.538 4.35906 13.628 4.84106C12.807 5.37406 12.312 6.29206 12.312 7.87306C12.312 8.96606 12.56 10.0651 12.977 11.0731C9.84099 12.3291 7.71899 14.9471 7.71899 19.1081C7.71899 20.2541 7.88599 21.4251 8.18399 22.5721V22.5951L8.18999 22.5921C9.39899 27.2131 12.833 31.4391 17.002 32.0321L17 32.1081C17 33.7651 17.448 35.1081 18 35.1081C18.553 35.1081 19 33.7651 19 32.1081C19 32.0821 18.998 32.0591 18.997 32.0331C23.166 31.4401 26.601 27.2141 27.81 22.5931L27.816 22.5961V22.5721Z" fill="#31373D"/>
<path d="M14.624 18.108H21.376C19.914 16.684 18.761 15.227 18.27 14.108H17.73C17.239 15.227 16.086 16.684 14.624 18.108ZM9.24602 22.108C8.88502 22.295 8.53102 22.457 8.18402 22.596C8.50402 23.815 8.98302 25.003 9.58502 26.108H26.415C27.017 25.003 27.497 23.815 27.816 22.596C27.469 22.457 27.115 22.295 26.753 22.108H9.24602ZM12.839 30.108C14.357 31.342 16.117 32.108 18 32.108C19.884 32.108 21.643 31.342 23.162 30.108H12.839Z" fill="#FFCC4D"/>
<path d="M18 12.6131C18 15.2601 10.142 21.1971 6 21.1971C1.858 21.1971 0 18.7541 0 16.1071C0 13.4611 1.858 11.6121 6 11.6121C10.143 11.6131 18 9.96809 18 12.6131ZM18 12.6131C18 15.2601 25.857 21.1971 30 21.1971C34.143 21.1971 36 18.7541 36 16.1071C36 13.4611 34.143 11.6121 30 11.6121C25.857 11.6121 18 9.96809 18 12.6131Z" fill="#CCD6DD"/>
<path d="M2 18.1081C1.448 18.1081 1 17.6611 1 17.1081C1 16.5571 1.446 16.1091 1.998 16.1081C2.046 16.1081 6.947 16.0381 15.594 12.1941C16.099 11.9671 16.69 12.1961 16.914 12.7011C17.139 13.2061 16.911 13.7971 16.407 14.0211C7.317 18.0611 2.213 18.1081 2 18.1081ZM34 18.1081C33.787 18.1081 28.684 18.0611 19.594 14.0221C19.089 13.7981 18.863 13.2071 19.086 12.7021C19.311 12.1981 19.903 11.9701 20.406 12.1951C29.054 16.0381 33.954 16.1081 34.003 16.1081C34.554 16.1111 35 16.5601 34.999 17.1111C34.997 17.6621 34.551 18.1081 34 18.1081Z" fill="#99AAB5"/>
</svg>
