<svg width="35" height="35" viewBox="0 0 35 35" fill="none" xmlns="http://www.w3.org/2000/svg">
<path d="M1.88133 8.17182C0.308332 8.17182 -0.477668 8.95782 0.308332 9.74482C1.88133 11.3178 3.45333 11.3178 4.23933 10.5308L1.88133 8.17182ZM8.17133 1.88182C8.17133 0.308821 8.95733 -0.477179 9.74433 0.308821C11.3173 1.88182 11.3173 3.45382 10.5303 4.23982L8.17133 1.88182ZM3.45433 11.3168C3.45433 11.3168 12.0013 25.7498 18.3933 27.8288C21.7373 28.9158 24.0853 28.4278 26.2563 26.2558C28.4273 24.0838 28.6623 21.8088 27.8293 18.3928C26.4373 12.6888 11.3163 3.45482 11.3163 3.45482L3.45433 11.3168Z" fill="#A78E81"/>
<path d="M15.6293 26.3529C19.8603 31.7129 24.4223 34.1599 26.0943 32.8719C27.7183 31.6219 25.7703 30.2939 23.9203 25.9179C21.9843 21.3379 13.3943 23.5209 15.6293 26.3529ZM26.3503 15.5709C31.7103 19.8019 34.1533 24.4289 32.8663 26.1009C31.6163 27.7249 30.2883 25.7769 25.9123 23.9269C21.3313 21.9909 23.5183 13.3359 26.3503 15.5709Z" fill="#A78E81"/>
<path d="M16.5083 21.0648C17.2073 19.7778 15.5943 17.7018 14.0043 17.7508C12.8323 17.7868 10.3873 19.6848 8.1213 17.0048C7.9123 17.2138 7.8173 17.5008 7.8103 17.8338C8.9683 19.4108 10.2823 21.0758 11.6583 22.5988C13.3143 23.0778 15.5713 22.7908 16.5083 21.0648ZM17.7503 14.0048C17.7013 15.5938 19.7783 17.2078 21.0643 16.5088C22.7763 15.5788 23.0713 13.3498 22.6083 11.6988C21.0633 10.3268 19.3623 8.99577 17.7573 7.81677C17.4573 7.83677 17.1973 7.92977 17.0043 8.12277C19.6833 10.3878 17.7863 12.8328 17.7503 14.0048Z" fill="#846659"/>
<path d="M12.8413 16.3958C14.4303 16.3468 16.0443 18.4238 15.3453 19.7098C14.2253 21.7708 11.2103 21.7958 9.60531 20.8928C7.81531 19.8858 5.87331 16.7358 6.95931 15.6498C9.22431 18.3298 11.6683 16.4328 12.8413 16.3958ZM16.3943 12.8428C16.3453 14.4318 18.4223 16.0458 19.7083 15.3468C21.7693 14.2268 21.7943 11.2118 20.8913 9.60678C19.8843 7.81678 16.7343 5.87478 15.6483 6.96078C18.3273 9.22578 16.4303 11.6708 16.3943 12.8428Z" fill="#CAB8AC"/>
<path d="M27.0424 23.8978C30.5164 27.3718 35.7734 34.0368 34.9054 34.9058C34.0374 35.7738 27.3714 30.5168 23.8974 27.0428C20.4234 23.5688 19.8834 21.6208 20.7524 20.7528C21.6204 19.8838 23.5684 20.4238 27.0424 23.8978ZM12.1034 2.6678C14.2744 4.8388 13.6574 7.4038 10.5304 10.5308C7.40336 13.6578 4.83836 14.2748 2.66736 12.1038C0.496363 9.9328 0.327362 6.5808 3.45436 3.4548C6.58136 0.328804 9.93136 0.496804 12.1034 2.6678Z" fill="#A78E81"/>
<path d="M13.2383 3.80377C14.4613 5.02677 15.2293 8.97677 12.1023 12.1038C8.97531 15.2308 5.02631 14.4628 3.80231 13.2398C1.87231 11.3098 5.02531 8.17277 6.59831 6.59977C8.17131 5.02677 11.3083 1.87377 13.2383 3.80377Z" fill="#CAB8AC"/>
<path d="M8.95734 5.81282C9.82534 6.68082 9.82534 8.08982 8.95734 8.95782C8.08934 9.82582 6.68034 9.82582 5.81234 8.95782C4.94434 8.08982 5.73034 7.46782 6.59934 6.59982C7.46834 5.73182 8.08934 4.94482 8.95734 5.81282Z" fill="#292F33"/>
<path d="M4.24036 10.0698C4.8545 10.0698 5.35236 9.57197 5.35236 8.95782C5.35236 8.34368 4.8545 7.84583 4.24036 7.84583C3.62622 7.84583 3.12836 8.34368 3.12836 8.95782C3.12836 9.57197 3.62622 10.0698 4.24036 10.0698Z" fill="#292F33"/>
<path d="M8.95734 5.35278C9.57148 5.35278 10.0693 4.85492 10.0693 4.24078C10.0693 3.62664 9.57148 3.12878 8.95734 3.12878C8.3432 3.12878 7.84534 3.62664 7.84534 4.24078C7.84534 4.85492 8.3432 5.35278 8.95734 5.35278Z" fill="#292F33"/>
<path d="M10.1553 9.9018C9.72932 9.9018 9.33532 9.8008 9.02332 9.5938C8.83432 9.4688 8.78232 9.2138 8.90732 9.0238C9.03232 8.8338 9.28732 8.7818 9.47732 8.9078C9.92932 9.2068 10.8163 9.0958 11.4963 8.6548C11.7723 8.4758 12.4023 7.9808 12.2813 7.2558C12.2443 7.0318 12.3953 6.8198 12.6193 6.7828C12.8443 6.7468 13.0553 6.8968 13.0923 7.1208C13.2313 7.9568 12.8013 8.7888 11.9423 9.3448C11.3773 9.7128 10.7373 9.9018 10.1553 9.9018Z" fill="#A78E81"/>
<path d="M7.43135 13.1198C7.32835 13.1198 7.22435 13.1108 7.12135 13.0938C6.89735 13.0558 6.74535 12.8448 6.78335 12.6208C6.82135 12.3968 7.03435 12.2458 7.25635 12.2828C7.97835 12.4038 8.47635 11.7738 8.65535 11.4968C9.09635 10.8158 9.20835 9.92877 8.90835 9.47777C8.78335 9.28877 8.83435 9.03377 9.02435 8.90777C9.21335 8.78177 9.46935 8.83377 9.59435 9.02377C10.0834 9.76277 9.98135 10.9628 9.34535 11.9438C8.85735 12.6968 8.15835 13.1198 7.43135 13.1198Z" fill="#A78E81"/>
<path d="M25.1353 28.4049C24.1143 26.7709 23.6343 24.8419 24.2373 24.2389C24.8503 23.6259 26.3103 23.4939 28.4233 25.1169C27.0753 23.8309 24.6663 22.4219 24.2373 20.0729C24.3603 22.2369 23.8183 24.6979 20.1123 24.1159C22.1943 24.7299 25.1353 28.4049 25.1353 28.4049Z" fill="#846659"/>
<path d="M2.42831 15.2308C2.40031 15.2308 2.37131 15.2288 2.34231 15.2228C2.07831 15.1758 1.90231 14.9228 1.94931 14.6588C2.35631 12.3898 3.74231 10.7678 5.65631 10.3208C5.91731 10.2608 6.17931 10.4228 6.24031 10.6838C6.30131 10.9458 6.13931 11.2068 5.87731 11.2678C4.35331 11.6238 3.24331 12.9568 2.90631 14.8318C2.86431 15.0648 2.66031 15.2308 2.42831 15.2308Z" fill="#67757F"/>
<path d="M4.57234 15.4748C4.31934 15.4748 4.10634 15.2798 4.08834 15.0238C4.00934 13.9458 4.58134 12.5258 5.67434 12.0158C5.91834 11.9028 6.20734 12.0068 6.32034 12.2508C6.43334 12.4938 6.32934 12.7838 6.08534 12.8968C5.41434 13.2098 5.00534 14.2318 5.05734 14.9528C5.07734 15.2208 4.87634 15.4538 4.60834 15.4728C4.59534 15.4748 4.58434 15.4748 4.57234 15.4748ZM10.7803 6.26582C10.7433 6.26582 10.7063 6.26182 10.6693 6.25282C10.4073 6.19182 10.2453 5.92982 10.3063 5.66882C10.7543 3.75482 12.3763 2.36982 14.6443 1.96182C14.9083 1.91482 15.1613 2.09082 15.2083 2.35482C15.2553 2.61882 15.0803 2.87182 14.8153 2.91882C12.9403 3.25582 11.6083 4.36582 11.2513 5.88982C11.2013 6.11482 11.0013 6.26582 10.7803 6.26582Z" fill="#67757F"/>
<path d="M12.4443 6.37783C12.3753 6.37783 12.3053 6.36283 12.2393 6.33183C11.9953 6.21883 11.8913 5.92883 12.0043 5.68583C12.5143 4.59283 13.9233 4.02183 15.0123 4.09983C15.2803 4.11883 15.4813 4.35283 15.4613 4.61983C15.4423 4.88683 15.2133 5.08783 14.9413 5.06883C14.2293 5.02083 13.1993 5.42583 12.8853 6.09683C12.8023 6.27383 12.6273 6.37783 12.4443 6.37783Z" fill="#67757F"/>
</svg>
