<svg width="36" height="32" viewBox="0 0 36 32" fill="none" xmlns="http://www.w3.org/2000/svg">
<path d="M8.61467 10.3458C8.50367 11.9978 10.3827 13.4718 7.90268 13.3048C5.42268 13.1378 0.0666746 10.7718 0.134675 9.77479C0.202675 8.77779 3.84267 7.01779 6.32267 7.18479C8.80268 7.35079 8.72668 8.69279 8.61467 10.3458ZM28.7367 26.3948C28.5347 26.3628 28.3447 26.4098 28.1727 26.4898C25.8477 26.7218 24.9477 24.6048 24.9477 24.6048C24.5087 24.2688 23.9667 22.5958 23.3587 23.3898L23.5457 24.7918C23.7327 26.1938 26.1157 28.0158 26.1157 28.0158L24.9007 29.6048C24.5647 30.0438 24.6487 30.6708 25.0877 31.0068C25.5267 31.3428 26.1537 31.2588 26.4897 30.8198L27.1627 29.9398L27.1237 30.1888C27.0367 30.7348 27.4087 31.2468 27.9547 31.3338C28.5007 31.4208 29.0127 31.0488 29.0997 30.5028L29.5697 27.5398C29.6547 26.9938 29.2827 26.4818 28.7367 26.3948ZM22.4587 27.0178C22.2627 26.9598 22.0687 26.9808 21.8867 27.0358C19.5517 26.9538 18.9427 24.7358 18.9427 24.7358C18.5527 24.3438 18.2397 22.6128 17.5307 23.3188L17.5277 24.7328C17.5247 26.1468 19.6427 28.2718 19.6427 28.2718L18.2257 29.6838C17.8337 30.0738 17.8327 30.7068 18.2227 31.0978C18.6127 31.4898 19.2457 31.4908 19.6367 31.1008L20.4217 30.3188L20.3487 30.5608C20.1897 31.0898 20.4897 31.6468 21.0187 31.8068C21.5477 31.9658 22.1057 31.6658 22.2647 31.1368L23.1267 28.2638C23.2887 27.7338 22.9887 27.1768 22.4587 27.0178Z" fill="#FFAC33"/>
<path d="M34.7077 4.19486C34.3247 4.02486 33.9497 4.13786 33.6577 4.43886C33.6037 4.49486 29.4327 10.7449 19.1257 9.38286C18.7857 9.33786 22.2647 21.3509 22.3247 21.3449C22.4487 21.3309 25.3947 20.9769 28.4647 18.7919C31.2827 16.7869 34.7487 12.8009 35.2617 5.19386C35.2897 4.77586 35.0907 4.36586 34.7077 4.19486Z" fill="#DD2E44"/>
<path d="M34.1757 18.5738C33.9717 18.2378 33.5857 18.0138 33.1967 18.1028C31.9037 18.3978 29.9997 18.6458 28.6667 18.5558C22.3097 18.1278 19.3057 14.4268 19.2747 14.3958C18.9997 14.1138 19.7407 25.9478 20.0907 25.9718C29.2847 26.5918 33.9527 19.9448 34.1477 19.6618C34.3697 19.3358 34.3807 18.9108 34.1757 18.5738Z" fill="#DD2E44"/>
<path d="M24.2847 16.4819C23.9137 21.9919 25.6007 26.3429 20.0907 25.9709C14.5807 25.5999 9.94567 21.0509 10.3167 15.5399C10.6877 10.0289 24.6567 10.9719 24.2847 16.4819Z" fill="#DD2E44"/>
<path d="M22.9557 9.87779C22.6027 15.1128 19.0337 19.1348 13.7997 18.7818C8.5647 18.4288 4.6067 13.8998 4.9597 8.66479C5.3127 3.42979 9.7917 0.22079 15.0267 0.57379C19.0277 0.84279 23.2667 5.25679 22.9557 9.87779Z" fill="#DD2E44"/>
<path d="M10.3687 8.45483C11.4732 8.45483 12.3687 7.5594 12.3687 6.45483C12.3687 5.35026 11.4732 4.45483 10.3687 4.45483C9.26408 4.45483 8.36865 5.35026 8.36865 6.45483C8.36865 7.5594 9.26408 8.45483 10.3687 8.45483Z" fill="#292F33"/>
<path d="M17.8777 14.1108C17.8777 14.1108 25.5077 19.7588 30.2647 9.65181C30.6607 8.80981 31.9497 10.4448 30.3637 13.8138C28.7777 17.1828 22.1887 20.2538 18.3237 15.3498C17.5087 14.3148 17.8777 14.1108 17.8777 14.1108Z" fill="#A0041E"/>
<path d="M15.0257 0.572845C15.0257 0.572845 21.2717 0.826845 22.8237 0.0958451C24.3757 -0.635155 22.9597 3.02785 19.5617 3.88485C16.1637 4.74185 15.0257 0.572845 15.0257 0.572845Z" fill="#DD2E44"/>
<path d="M17.1267 3.25383C17.1267 3.25383 21.6277 3.38983 23.1807 2.65983C24.7337 1.92983 23.3167 5.59183 19.9187 6.44883C16.5197 7.30583 17.1267 3.25383 17.1267 3.25383Z" fill="#DD2E44"/>
</svg>
