<svg width="37" height="36" viewBox="0 0 37 36" fill="none" xmlns="http://www.w3.org/2000/svg">
<path d="M23.4104 23.1405C23.4104 23.1405 24.7844 24.7755 26.1434 33.1875C26.2864 34.0705 26.3444 34.9625 26.3604 35.8655H36.1274V7.31345C31.7404 3.84045 25.7284 3.12445 18.4494 5.55545C18.4494 5.55545 13.0414 2.55545 12.3024 1.81645C11.5834 1.09645 10.4454 0.260454 11.0674 2.16645C11.4314 3.27845 11.8314 4.53945 13.4254 7.02845C9.98939 9.06445 8.91239 11.7085 4.86739 20.3695C1.77939 26.9855 0.207391 29.1345 1.06439 31.6625C2.19439 34.9995 6.38039 37.2575 9.90839 34.6835C11.8274 33.2835 12.1544 30.7705 16.1334 28.4605C19.7864 28.3955 23.4104 26.8565 23.4104 23.1405Z" fill="#E1E8ED"/>
<path d="M36.1274 5.87745C27.7924 0.166446 14.4814 1.33845 16.0364 6.05545C25.6374 4.19345 31.8974 7.59645 36.1274 13.2234V5.87745Z" fill="#292F33"/>
<path d="M19.7904 5.62846C16.9124 5.86146 12.5104 7.39346 10.3704 9.76546C10.3704 9.76546 10.3654 4.44846 14.0594 3.98146C20.2314 3.20246 19.8684 4.34446 19.8684 4.34446L19.7904 5.62846Z" fill="#292F33"/>
<path d="M16.4844 0.921502C17.0424 2.0765 20.4904 2.7115 21.5404 6.9505C22.5914 11.1905 18.4064 9.9015 17.1844 7.8055C15.8234 5.4715 15.3564 3.6435 15.3174 2.1265C15.2964 1.3255 15.3564 -1.4115 16.4844 0.921502Z" fill="#E1E8ED"/>
<path d="M16.7234 2.7035C17.8264 3.6715 19.1714 5.1755 19.3734 6.6585C19.5754 8.1415 18.2484 7.6465 17.6374 6.2865C17.0254 4.9275 16.8844 3.5075 16.5034 3.0535C16.1234 2.5995 16.7234 2.7035 16.7234 2.7035Z" fill="#66757F"/>
<path d="M17.0674 15.3905C17.0674 16.0775 16.5104 16.6345 15.8224 16.6345C15.1354 16.6345 14.5784 16.0775 14.5784 15.3905C14.5784 14.7025 15.1354 14.1455 15.8224 14.1455C16.5104 14.1465 17.0674 14.7035 17.0674 15.3905Z" fill="#292F33"/>
<path d="M10.4813 9.7895C10.4483 9.7725 10.4063 9.7755 10.3703 9.7655C8.82734 11.7985 7.45034 14.8675 4.88034 20.3695C3.52434 23.2725 2.46034 25.3155 1.76434 26.9075C3.39234 27.1335 5.04934 25.4655 5.70934 23.6365C6.38234 21.7705 8.92434 17.9845 10.6363 15.8585C12.3483 13.7315 12.1973 10.7145 10.4813 9.7895Z" fill="#E1E8ED"/>
<path d="M28.3154 6.17749C28.3154 6.17749 26.0194 13.1245 26.0134 15.1245C26.0024 18.9275 23.3264 22.9255 23.3264 22.9255L24.6684 26.3475C24.6684 26.3475 27.9184 23.3075 28.6064 16.1195C29.1774 10.1465 31.1724 8.45249 31.1724 8.45249L28.3154 6.17749ZM34.1894 9.30349C34.1894 9.30349 31.1834 12.9385 30.1274 18.8655C28.6894 26.9275 25.2704 28.6115 25.2704 28.6115L25.7524 31.0525C25.7524 31.0525 31.0334 27.9965 32.3844 21.9375C34.0024 14.6775 36.1274 13.2235 36.1274 13.2235L34.1894 9.30349ZM3.37737 23.3035C4.06537 22.5895 6.39437 27.1115 7.90737 28.1875C9.49637 29.3175 13.3764 29.1225 13.6084 30.3495C11.9404 32.0535 10.8454 34.6225 8.76837 35.3375C6.69037 36.0535 3.05837 36.0145 1.53037 32.6905C0.00236839 29.3655 1.12737 27.9905 1.75237 26.5535C2.37737 25.1165 3.21037 23.6155 3.37737 23.3035Z" fill="#292F33"/>
<path d="M4.34934 29.7825C4.34934 30.6635 3.81734 31.3765 3.16234 31.3765C2.50734 31.3765 1.97534 30.6635 1.97534 29.7825C1.97534 28.9005 2.50734 28.1865 3.16234 28.1865C3.81734 28.1865 4.34934 28.9005 4.34934 29.7825Z" fill="#66757F"/>
<path d="M26.0814 32.8105C26.0814 32.8105 30.6894 31.2405 32.1894 29.4275C33.6894 27.6145 36.1274 23.8655 36.1274 23.8655V30.2405C36.1274 30.2405 34.9394 31.8655 32.4394 33.1785C30.8534 34.0105 26.3474 35.4295 26.3474 35.4295L26.0814 32.8105ZM25.1374 5.94552C25.1374 5.94552 24.1904 8.86552 23.9404 11.8655C23.6904 14.8655 22.8154 16.7405 22.0024 18.0535C22.3144 13.8035 21.3144 12.1785 21.8774 9.92852C22.4404 7.67852 22.7474 5.60852 22.7474 5.60852C22.7474 5.60852 23.3774 5.24052 24.0024 5.30352C24.6274 5.36652 25.1374 5.94552 25.1374 5.94552ZM4.88037 20.3695C4.88037 20.3695 8.81437 19.9905 10.6274 21.2405C12.4404 22.4905 15.9594 28.5635 15.9594 28.5635L14.8254 29.3165C14.8254 29.3165 13.1284 24.6775 10.0654 23.2405C7.00237 21.8035 4.06537 22.0525 4.06537 22.0525L4.88037 20.3695Z" fill="#292F33"/>
<path d="M5.73236 18.5436C5.73236 18.5436 11.2484 18.1856 12.6904 20.0526C15.4404 23.6146 16.5214 25.0626 17.1374 28.4016L18.9224 28.0946C18.1284 25.1776 16.3154 19.9906 13.0034 17.8026C9.69136 15.6146 6.75336 16.1146 6.75336 16.1146L5.73236 18.5436ZM18.0024 12.5536C17.3774 13.2416 20.0024 15.8656 19.1274 18.0536C18.2524 20.2416 18.7524 23.3036 19.2524 24.6786C19.7524 26.0536 20.5124 27.5176 20.5124 27.5176L22.1344 26.3716C22.1344 26.3716 21.8774 24.8656 21.1274 22.6786C20.3774 20.4916 20.4394 20.4286 20.7524 18.2406C21.0654 16.0526 18.6274 11.8656 18.0024 12.5536ZM15.1724 6.69456C15.1724 6.69456 16.3144 8.74056 16.2524 9.74056C16.1904 10.7406 16.1904 12.4286 15.6274 12.8026C15.0644 13.1766 14.8154 10.8026 14.4394 9.74056C14.0634 8.67856 13.3754 7.48256 13.3754 7.48256C13.3754 7.48256 14.8444 6.05456 15.1724 6.69456ZM11.6284 8.48456C11.6284 8.48456 13.4214 9.88256 13.3584 10.8826C13.2954 11.8826 14.5024 13.4896 13.9394 13.8646C13.3764 14.2396 12.0014 12.6146 11.6274 11.5526C11.2534 10.4906 10.3704 9.76556 10.3704 9.76556C10.3704 9.76556 11.2994 7.84456 11.6284 8.48456ZM9.06536 11.6776C9.06536 11.6776 10.5874 12.6586 11.0034 13.4276C11.4184 14.1956 13.1134 14.8146 12.9414 15.3026C12.7684 15.7906 10.9644 15.2046 10.2534 14.5526C9.54236 13.9006 7.90836 13.9736 7.90836 13.9736L9.06536 11.6776Z" fill="#292F33"/>
</svg>
