<svg width="35" height="36" viewBox="0 0 35 36" fill="none" xmlns="http://www.w3.org/2000/svg">
<path d="M6.28906 12.0005C9.60277 12.0005 12.2891 9.3142 12.2891 6.00049C12.2891 2.68678 9.60277 0.000488281 6.28906 0.000488281C2.97535 0.000488281 0.289062 2.68678 0.289062 6.00049C0.289062 9.3142 2.97535 12.0005 6.28906 12.0005Z" fill="#FFCC4D"/>
<path d="M17.2891 36.0005C20.6028 36.0005 23.2891 33.3142 23.2891 30.0005C23.2891 26.6868 20.6028 24.0005 17.2891 24.0005C13.9754 24.0005 11.2891 26.6868 11.2891 30.0005C11.2891 33.3142 13.9754 36.0005 17.2891 36.0005Z" fill="#FFCC4D"/>
<path d="M17.2891 34.0005C19.4982 34.0005 21.2891 32.2096 21.2891 30.0005C21.2891 27.7913 19.4982 26.0005 17.2891 26.0005C15.0799 26.0005 13.2891 27.7913 13.2891 30.0005C13.2891 32.2096 15.0799 34.0005 17.2891 34.0005Z" fill="#DD2E44"/>
<path d="M28.2891 12.0005C31.6028 12.0005 34.2891 9.3142 34.2891 6.00049C34.2891 2.68678 31.6028 0.000488281 28.2891 0.000488281C24.9754 0.000488281 22.2891 2.68678 22.2891 6.00049C22.2891 9.3142 24.9754 12.0005 28.2891 12.0005Z" fill="#FFCC4D"/>
<path d="M6.28906 10.0005C8.4982 10.0005 10.2891 8.20963 10.2891 6.00049C10.2891 3.79135 8.4982 2.00049 6.28906 2.00049C4.07992 2.00049 2.28906 3.79135 2.28906 6.00049C2.28906 8.20963 4.07992 10.0005 6.28906 10.0005Z" fill="#E6AAAA"/>
<path d="M28.2891 10.0005C30.4982 10.0005 32.2891 8.20963 32.2891 6.00049C32.2891 3.79135 30.4982 2.00049 28.2891 2.00049C26.0799 2.00049 24.2891 3.79135 24.2891 6.00049C24.2891 8.20963 26.0799 10.0005 28.2891 10.0005Z" fill="#E6AAAA"/>
<path d="M33.2891 22.0005C33.2891 29.0005 28.3661 29.0005 28.3661 29.0005H6.21206C6.21206 29.0005 1.28906 29.0005 1.28906 22.0005C1.28906 22.0005 2.52006 0.000488281 17.2891 0.000488281C32.0591 0.000488281 33.2891 22.0005 33.2891 22.0005Z" fill="#FFCC4D"/>
<path d="M10.2891 17.0005C10.2891 17.0005 10.2891 15.0005 12.2891 15.0005C14.2891 15.0005 14.2891 17.0005 14.2891 17.0005V19.0005C14.2891 19.0005 14.2891 21.0005 12.2891 21.0005C10.2891 21.0005 10.2891 19.0005 10.2891 19.0005V17.0005ZM20.2891 17.0005C20.2891 17.0005 20.2891 15.0005 22.2891 15.0005C24.2891 15.0005 24.2891 17.0005 24.2891 17.0005V19.0005C24.2891 19.0005 24.2891 21.0005 22.2891 21.0005C20.2891 21.0005 20.2891 19.0005 20.2891 19.0005V17.0005Z" fill="#272B2B"/>
<path d="M22.967 23.0005C20.565 23.0005 18.466 23.9535 17.289 25.3785C16.112 23.9535 14.012 23.0005 11.61 23.0005C1.28905 23.0005 1.33204 23.4215 1.28904 26.1825C1.20204 31.7925 7.91905 33.0825 11.61 33.0005C14.011 32.9475 16.112 32.0115 17.289 30.6035C18.466 32.0115 20.565 32.9485 22.967 33.0005C26.658 33.0825 33.376 31.7925 33.288 26.1825C33.245 23.4215 33.288 23.0005 22.967 23.0005Z" fill="white"/>
<path d="M32.949 25.2425C33.153 25.5215 33.282 25.8305 33.288 26.1815C33.3181 28.0865 32.543 29.4845 31.373 30.5085L26.288 31.0005L32.949 25.2425ZM14.289 25.0005C13.289 26.0005 16.289 29.0005 17.289 29.0005C18.289 29.0005 21.289 26.0005 20.289 25.0005C19.289 24.0005 15.289 24.0005 14.289 25.0005ZM9.28905 3.00049C11.956 5.00049 17.289 7.00049 17.289 7.00049C17.289 7.00049 22.622 5.00049 25.289 3.00049L17.289 4.00049L9.28905 3.00049ZM17.289 2.00049C17.289 2.00049 18.941 1.38049 20.865 0.486488C19.769 0.178488 18.584 0.000488281 17.289 0.000488281C15.994 0.000488281 14.808 0.178488 13.713 0.486488C15.637 1.38049 17.289 2.00049 17.289 2.00049ZM10.289 9.00049C13.289 11.0005 17.289 13.0005 17.289 13.0005C17.289 13.0005 21.289 11.0005 24.289 9.00049L17.289 10.0005L10.289 9.00049ZM30.934 11.2855L26.289 15.0005L32.295 15.7505C31.9611 14.3495 31.518 12.8225 30.934 11.2855ZM32.845 18.4445L27.289 24.0005H33.124C33.226 23.4055 33.2891 22.7495 33.2891 22.0005C33.2891 22.0005 33.208 20.5705 32.845 18.4445ZM1.73305 18.4445C1.37105 20.5705 1.28905 22.0005 1.28905 22.0005C1.28905 22.7485 1.35205 23.4055 1.45405 24.0005H7.28905L1.73305 18.4445ZM1.62805 25.2425C1.42405 25.5215 1.29505 25.8305 1.28905 26.1825C1.25905 28.0875 2.03405 29.4855 3.20505 30.5095L8.28905 31.0005L1.62805 25.2425ZM8.28905 15.0005L3.64505 11.2855C3.06105 12.8225 2.61705 14.3495 2.28405 15.7515L8.28905 15.0005Z" fill="#272B2B"/>
</svg>
