<svg width="37" height="32" viewBox="0 0 37 32" fill="none" xmlns="http://www.w3.org/2000/svg">
<path d="M36.5318 20.0005C36.5318 27.4565 28.4728 32.0005 18.5318 32.0005C8.5908 32.0005 0.531799 27.4565 0.531799 20.0005C0.531799 12.5445 8.5908 5.00049 18.5318 5.00049C28.4728 5.00049 36.5318 12.5445 36.5318 20.0005Z" fill="#C6E5B3"/>
<path d="M32.2868 10.6765C33.6548 9.57649 34.5318 7.89149 34.5318 6.00049C34.5318 2.68749 31.8448 0.000488281 28.5318 0.000488281C25.6708 0.000488281 23.2818 2.00449 22.6808 4.68549C21.3928 4.20249 19.9978 3.92749 18.5318 3.92749C17.0668 3.92749 15.6708 4.20249 14.3828 4.68549C13.7818 2.00449 11.3928 0.000488281 8.5318 0.000488281C5.2188 0.000488281 2.5318 2.68749 2.5318 6.00049C2.5318 7.89149 3.4088 9.57649 4.7768 10.6765C2.1318 13.3565 0.531799 16.6855 0.531799 20.0005C0.531799 27.4565 8.5908 21.0005 18.5318 21.0005C28.4728 21.0005 36.5318 27.4565 36.5318 20.0005C36.5318 16.6855 34.9318 13.3565 32.2868 10.6765Z" fill="#77B255"/>
<path d="M8.0318 9.00049C9.9648 9.00049 11.5318 7.43349 11.5318 5.50049C11.5318 3.56749 9.9648 2.00049 8.0318 2.00049C6.0988 2.00049 4.5318 3.56749 4.5318 5.50049C4.5318 7.43349 6.0988 9.00049 8.0318 9.00049Z" fill="white"/>
<path d="M8.0318 7.00049C8.86023 7.00049 9.5318 6.32892 9.5318 5.50049C9.5318 4.67206 8.86023 4.00049 8.0318 4.00049C7.20337 4.00049 6.5318 4.67206 6.5318 5.50049C6.5318 6.32892 7.20337 7.00049 8.0318 7.00049Z" fill="#292F33"/>
<path d="M29.0318 9.00049C30.9648 9.00049 32.5318 7.43349 32.5318 5.50049C32.5318 3.56749 30.9648 2.00049 29.0318 2.00049C27.0988 2.00049 25.5318 3.56749 25.5318 5.50049C25.5318 7.43349 27.0988 9.00049 29.0318 9.00049Z" fill="white"/>
<path d="M29.0318 7.00049C29.8602 7.00049 30.5318 6.32892 30.5318 5.50049C30.5318 4.67206 29.8602 4.00049 29.0318 4.00049C28.2034 4.00049 27.5318 4.67206 27.5318 5.50049C27.5318 6.32892 28.2034 7.00049 29.0318 7.00049Z" fill="#292F33"/>
<path d="M14.5318 19.0005C15.0841 19.0005 15.5318 18.5528 15.5318 18.0005C15.5318 17.4482 15.0841 17.0005 14.5318 17.0005C13.9795 17.0005 13.5318 17.4482 13.5318 18.0005C13.5318 18.5528 13.9795 19.0005 14.5318 19.0005Z" fill="#5C913B"/>
<path d="M22.5318 19.0005C23.0841 19.0005 23.5318 18.5528 23.5318 18.0005C23.5318 17.4482 23.0841 17.0005 22.5318 17.0005C21.9795 17.0005 21.5318 17.4482 21.5318 18.0005C21.5318 18.5528 21.9795 19.0005 22.5318 19.0005Z" fill="#5C913B"/>
</svg>
