<svg width="37" height="33" viewBox="0 0 37 33" fill="none" xmlns="http://www.w3.org/2000/svg">
<path d="M34.488 12.1499C34.875 11.7789 35.221 11.3549 35.507 10.8699C37.193 8.01592 35.777 0.577918 34.915 0.0699182C34.22 -0.341082 29.386 1.11992 26.669 3.20192C24.171 1.70492 21.326 0.820918 18.295 0.820918C15.274 0.820918 12.439 1.69992 9.94604 3.18792C7.22504 1.11392 2.41404 -0.340082 1.71904 0.0699182C0.858044 0.577918 -0.556956 8.01692 1.12704 10.8699C1.40504 11.3409 1.74204 11.7539 2.11604 12.1189C0.961044 14.6709 0.295044 17.4609 0.295044 20.2999C0.295044 30.2889 8.30604 32.8209 18.295 32.8209C28.284 32.8209 36.295 30.2889 36.295 20.2999C36.295 17.4719 35.635 14.6939 34.488 12.1499Z" fill="#F4ABBA"/>
<path d="M7.69305 4.78594C5.52705 3.51894 3.29105 2.70594 2.89305 2.94094C2.32305 3.27794 1.81005 7.93894 2.54105 11.2059C3.81405 8.72294 5.58105 6.52394 7.69305 4.78594ZM34.048 11.2049C34.781 7.93794 34.2671 3.27694 33.6971 2.93994C33.299 2.70494 31.062 3.51794 28.896 4.78494C31.01 6.52394 32.776 8.72294 34.048 11.2049ZM28.295 21.9459C28.295 26.4329 25.198 31.3209 18.295 31.3209C11.3911 31.3209 8.29505 26.4329 8.29505 21.9459C8.29505 17.4589 11.3911 16.3209 18.295 16.3209C25.198 16.3209 28.295 17.4589 28.295 21.9459Z" fill="#EA596E"/>
<path d="M15.295 23.421C15.295 25.278 14.955 25.821 13.795 25.821C12.635 25.821 12.295 25.278 12.295 23.421C12.295 21.565 12.635 21.022 13.795 21.022C14.955 21.022 15.295 21.564 15.295 23.421ZM24.295 23.421C24.295 25.278 23.955 25.821 22.795 25.821C21.635 25.821 21.295 25.278 21.295 23.421C21.295 21.565 21.635 21.022 22.795 21.022C23.955 21.022 24.295 21.564 24.295 23.421Z" fill="#662113"/>
<path d="M7.29504 17.8209C8.39961 17.8209 9.29504 16.9255 9.29504 15.8209C9.29504 14.7164 8.39961 13.8209 7.29504 13.8209C6.19047 13.8209 5.29504 14.7164 5.29504 15.8209C5.29504 16.9255 6.19047 17.8209 7.29504 17.8209Z" fill="#292F33"/>
<path d="M29.295 17.8209C30.3996 17.8209 31.295 16.9255 31.295 15.8209C31.295 14.7164 30.3996 13.8209 29.295 13.8209C28.1905 13.8209 27.295 14.7164 27.295 15.8209C27.295 16.9255 28.1905 17.8209 29.295 17.8209Z" fill="#292F33"/>
</svg>
