<svg width="37" height="36" viewBox="0 0 37 36" fill="none" xmlns="http://www.w3.org/2000/svg">
<path d="M27.8191 7.35228C26.6671 4.29828 25.1691 0.552278 19.5201 0.437278C17.7611 0.401278 18.0001 0.976278 19.1731 1.45728C21.4211 2.37928 16.6991 6.89528 23.9321 8.85728C29.5801 10.3883 28.9711 10.4063 27.8191 7.35228Z" fill="#66757F"/>
<path d="M36.5281 3.72937C28.7911 3.72937 22.1171 6.24337 18.4231 9.48637C13.5481 13.7664 13.0431 19.7924 4.38912 25.1464C1.54212 26.9074 3.96612 32.6634 5.54212 34.7644C7.45012 37.3084 34.1591 35.0024 36.5291 25.9874L36.5281 3.72937Z" fill="#99AAB5"/>
<path d="M9.20007 29.4783C10.2111 29.9853 10.9871 30.5293 10.5181 31.4643C10.0491 32.4003 9.34507 31.7143 8.33307 31.2073C7.32107 30.6993 6.04807 31.1893 6.51707 30.2533C6.98707 29.3183 8.18907 28.9723 9.20007 29.4783ZM34.7261 6.15231C34.9641 3.58931 32.5481 1.15331 28.7761 0.246312C27.0911 -0.159688 25.4951 -0.103688 26.4311 0.724312C28.2241 2.30931 26.3491 4.73031 27.7051 7.84831C28.4331 9.52231 30.9431 11.6013 32.4241 11.6683C33.4801 11.7163 34.4781 8.82131 34.7261 6.15231Z" fill="#66757F"/>
<path d="M33.7711 6.1523C34.0091 3.5893 31.4991 0.707295 27.6011 0.145295C25.8861 -0.101705 25.3141 0.232295 26.2501 1.0593C28.0431 2.6443 25.6121 4.6863 26.9681 7.8043C27.6961 9.4783 30.3611 11.6443 31.8431 11.7113C32.8981 11.7603 33.5231 8.8213 33.7711 6.1523Z" fill="#99AAB5"/>
<path d="M3.16309 26.7244C0.611087 22.7414 -0.463913 14.7534 1.67109 9.12735C1.99209 8.28235 2.75409 8.05635 2.85009 9.25735C3.03109 11.5394 5.26709 16.0904 10.8161 20.2254C12.0571 21.1494 5.10309 29.7524 3.16309 26.7244Z" fill="#CCD6DD"/>
<path d="M13.7721 15.2133C11.7241 14.3613 10.1631 12.0243 9.6801 10.5523C9.1031 8.79433 7.5281 14.4793 10.5321 19.4443C11.7391 21.4373 15.1851 15.8003 13.7721 15.2133Z" fill="#CCD6DD"/>
<path d="M17.3131 22.8323C18.4177 22.8323 19.3131 21.9368 19.3131 20.8323C19.3131 19.7277 18.4177 18.8323 17.3131 18.8323C16.2085 18.8323 15.3131 19.7277 15.3131 20.8323C15.3131 21.9368 16.2085 22.8323 17.3131 22.8323Z" fill="#292F33"/>
<path d="M30.8171 9.23631C32.1481 9.34131 32.7711 7.49931 32.0331 4.54631C31.3891 1.97031 27.7811 1.29831 27.8061 1.47731C27.8311 1.65631 28.8631 3.02631 27.8201 4.41631C26.8061 5.76831 29.1671 9.10631 30.8171 9.23631Z" fill="#E6AAAA"/>
</svg>
