<svg width="36" height="33" viewBox="0 0 36 33" fill="none" xmlns="http://www.w3.org/2000/svg">
<path d="M19.8684 18.27C19.4424 18.27 19.0104 18.28 18.5744 18.301C18.1384 19.569 18.1064 21.048 18.5744 23.398C18.9024 25.044 21.2334 29.697 23.1584 31.331C23.8414 31.911 24.7964 32.215 25.8484 32.215C27.9924 32.215 30.5394 30.95 32.0054 28.181C35.0064 22.51 28.5314 18.27 19.8684 18.27Z" fill="#1C6399"/>
<path d="M33.5304 0C33.3264 0 33.1054 0.021 32.8674 0.066C29.6854 0.667 23.5654 5.192 18.5804 11.837C18.5804 11.837 17.7914 16.997 17.7914 18.031C17.7914 18.367 19.0554 18.531 20.8494 18.531C24.5664 18.531 30.5584 17.826 32.2734 16.49C34.1714 15.011 35.9234 6.686 35.7614 2.411C35.7154 1.236 35.0994 0 33.5304 0Z" fill="#1C6399"/>
<path d="M26.9624 11.9629L33.5914 11.5269C33.5914 11.5269 32.5364 15.1459 30.4894 16.1829C28.4424 17.2199 22.7704 17.6829 22.7704 17.6829C22.7704 17.6829 25.1004 13.4219 26.0564 12.3929C26.2934 12.1369 26.6154 11.9849 26.9624 11.9629ZM27.4824 10.0109L35.0084 1.85994C35.0084 1.85994 35.0104 7.22494 33.8024 10.4949C33.8024 10.4949 28.4194 10.8739 27.8884 10.8859C27.1854 10.9019 26.9194 10.6209 27.4824 10.0109ZM21.4144 17.6829L26.9144 9.13594C27.1024 8.91594 27.1674 8.61594 27.0854 8.33794L26.1174 5.10494L19.3954 11.7139L18.5514 17.7449L21.4144 17.6829ZM27.7264 6.90694C27.8984 7.31294 28.2424 7.40694 28.6644 7.03194C29.0864 6.65694 34.7384 0.937944 34.6644 0.813944C34.6644 0.813944 31.8324 -0.380056 26.8644 4.27694C26.8644 4.27694 27.5544 6.50094 27.7264 6.90694ZM18.8014 19.0059L24.1744 24.2339C24.3774 24.4119 24.4294 24.7069 24.2994 24.9429L21.9244 29.2769C21.9244 29.2769 17.7374 23.7979 18.8014 19.0059ZM26.0834 25.3069L31.6324 26.0479C31.6324 26.0479 30.5744 29.8929 28.2384 30.9019C24.3324 32.5899 22.9264 30.2769 22.9264 30.2769L25.2784 25.7149C25.4294 25.4169 25.7554 25.2519 26.0834 25.3069ZM20.1334 18.8809L25.5084 23.8389C25.5854 23.9049 25.6774 23.9489 25.7774 23.9679L31.8964 24.8709C31.8964 24.8709 30.6774 21.8399 27.4674 20.3399C23.7574 18.6069 20.1334 18.8809 20.1334 18.8809Z" fill="#55ACEE"/>
<path d="M19.8684 18.27C19.4424 18.27 19.0104 18.28 18.5744 18.301C18.1384 19.569 18.1064 21.048 18.5744 23.398C18.9024 25.044 21.2334 29.697 23.1584 31.331C23.8414 31.911 24.7964 32.215 25.8484 32.215C27.9924 32.215 30.5394 30.95 32.0054 28.181C35.0064 22.51 28.5314 18.27 19.8684 18.27ZM30.4054 27.596C29.0894 30.082 27.3554 31.069 25.8474 31.069C25.0804 31.069 24.1434 30.756 23.6974 30.378C22.0024 28.939 20.2604 25.798 19.4474 23.154C18.9824 21.641 19.0934 19.132 19.0934 19.132L19.7604 19.111C24.9284 19.111 29.0094 21.169 30.4864 23.623C31.2004 24.809 31.1734 26.146 30.4054 27.596Z" fill="#292F33"/>
<path d="M33.5304 1.25C33.7614 1.25 34.4654 1.25 34.5114 2.458C34.6134 5.139 33.9174 8.519 33.1144 11.34C32.5734 13.241 31.5284 14.632 31.0204 15.027C30.4604 15.463 29.1574 16.265 27.3014 16.59C25.2714 16.945 23.0944 17.423 20.8454 17.423C20.0184 17.423 19.4124 17.442 19.0514 17.402C19.1824 16.184 19.5404 13.851 19.7684 12.338C23.5364 7.398 29.4794 1.977 33.0994 1.294C33.2544 1.265 33.3994 1.25 33.5304 1.25ZM33.5304 0C33.3264 0 33.1054 0.021 32.8674 0.066C29.6854 0.667 23.5654 5.192 18.5804 11.837C18.5804 11.837 17.7914 16.997 17.7914 18.031C17.7914 18.367 19.0554 18.531 20.8494 18.531C24.5664 18.531 30.5584 17.826 32.2734 16.49C34.1714 15.011 35.9234 6.686 35.7614 2.411C35.7154 1.236 35.0994 0 33.5304 0Z" fill="#292F33"/>
<path d="M3.76643 28.181C5.23243 30.95 7.77843 32.215 9.92343 32.215C10.9754 32.215 11.9304 31.911 12.6134 31.331C14.5384 29.698 16.8694 25.045 17.1974 23.398C17.6654 21.048 17.6334 19.57 17.1974 18.301C16.7614 18.28 16.3294 18.27 15.9034 18.27C7.23843 18.27 0.764429 22.51 3.76643 28.181Z" fill="#1C6399"/>
<path d="M2.24042 0C0.671422 0 0.0544218 1.236 0.0104218 2.41C-0.151578 6.685 1.60042 15.011 3.49842 16.489C5.21342 17.825 11.2044 18.53 14.9224 18.53C16.7164 18.53 17.9804 18.366 17.9804 18.03C17.9804 16.997 17.1914 11.836 17.1914 11.836C12.2054 5.192 6.08442 0.667 2.90342 0.066C2.66542 0.021 2.44442 0 2.24042 0Z" fill="#1C6399"/>
<path d="M8.80745 11.9629L2.17945 11.5269C2.17945 11.5269 3.23445 15.1459 5.28145 16.1829C7.32845 17.2199 13.0005 17.6829 13.0005 17.6829C13.0005 17.6829 10.6705 13.4219 9.71445 12.3929C9.47745 12.1369 9.15545 11.9849 8.80745 11.9629ZM8.28845 10.0109L0.762451 1.85994C0.762451 1.85994 0.760451 7.22494 1.96845 10.4949C1.96845 10.4949 7.35145 10.8739 7.88245 10.8859C8.58545 10.9019 8.85145 10.6209 8.28845 10.0109ZM14.3565 17.6829L8.85645 9.13594C8.66845 8.91594 8.60345 8.61594 8.68545 8.33794L9.65345 5.10494L16.3755 11.7139L17.2194 17.7449L14.3565 17.6829ZM8.04345 6.90694C7.87145 7.31294 7.52745 7.40694 7.10545 7.03194C6.68345 6.65694 1.03145 0.937944 1.10545 0.813944C1.10545 0.813944 3.93745 -0.380056 8.90545 4.27694C8.90645 4.27694 8.21545 6.50094 8.04345 6.90694ZM16.9694 19.0059L11.5965 24.2339C11.3935 24.4119 11.3415 24.7069 11.4715 24.9429L13.8465 29.2759C13.8455 29.2769 18.0334 23.7979 16.9694 19.0059ZM9.68645 25.3069L4.13745 26.0479C4.13745 26.0479 5.19545 29.8929 7.53145 30.9019C11.4375 32.5899 12.8435 30.2769 12.8435 30.2769L10.4915 25.7149C10.3415 25.4169 10.0155 25.2519 9.68645 25.3069ZM15.6375 18.8809L10.2625 23.8389C10.1855 23.9049 10.0935 23.9489 9.99345 23.9679L3.87445 24.8709C3.87445 24.8709 5.09345 21.8399 8.30345 20.3399C12.0125 18.6069 15.6375 18.8809 15.6375 18.8809Z" fill="#55ACEE"/>
<path d="M3.76643 28.181C5.23243 30.95 7.77843 32.215 9.92343 32.215C10.9754 32.215 11.9304 31.911 12.6134 31.331C14.5384 29.698 16.8694 25.045 17.1974 23.398C17.6654 21.048 17.6334 19.57 17.1974 18.301C16.7614 18.28 16.3294 18.27 15.9034 18.27C7.23843 18.27 0.764429 22.51 3.76643 28.181ZM5.28443 23.622C6.76143 21.168 10.8424 19.11 16.0104 19.11L16.6774 19.131C16.6774 19.131 16.7884 21.641 16.3234 23.153C15.5104 25.797 13.7684 28.938 12.0734 30.377C11.6274 30.756 10.6904 31.068 9.92343 31.068C8.41543 31.068 6.68143 30.082 5.36543 27.595C4.59743 26.146 4.57043 24.809 5.28443 23.622Z" fill="#292F33"/>
<path d="M2.24042 1.25C2.37142 1.25 2.51642 1.265 2.67142 1.294C6.29042 1.977 12.2344 7.398 16.0024 12.338C16.2304 13.851 16.5884 16.184 16.7194 17.402C16.3584 17.442 15.7524 17.423 14.9254 17.423C12.6764 17.423 10.4994 16.945 8.46942 16.59C6.61342 16.265 5.31042 15.463 4.75042 15.027C4.24242 14.631 3.19742 13.241 2.65642 11.34C1.85342 8.519 1.15742 5.139 1.25942 2.458C1.30542 1.25 2.00842 1.25 2.24042 1.25ZM2.24042 0C0.671422 0 0.0544218 1.236 0.0104218 2.41C-0.151578 6.685 1.60042 15.011 3.49842 16.489C5.21342 17.825 11.2044 18.53 14.9224 18.53C16.7164 18.53 17.9804 18.366 17.9804 18.03C17.9804 16.997 17.1914 11.836 17.1914 11.836C12.2054 5.192 6.08442 0.667 2.90342 0.066C2.66542 0.021 2.44442 0 2.24042 0Z" fill="#292F33"/>
<path d="M21.7514 2.78904C21.5014 2.65104 21.1884 2.74204 21.0504 2.99204L18.3104 7.97204C18.2924 8.00504 18.2884 8.04004 18.2784 8.07404C18.1514 8.06704 18.0344 8.05604 17.8854 8.05604C17.7374 8.05604 17.6194 8.06604 17.4934 8.07404C17.4834 8.04004 17.4794 8.00504 17.4614 7.97204L14.7214 2.99204C14.5834 2.74204 14.2694 2.65104 14.0194 2.78904C13.7694 2.92604 13.6784 3.24004 13.8164 3.49004L16.4714 8.31604C15.2924 9.10004 17.6214 11.754 16.8524 17.52C15.8194 25.27 17.8854 27.337 17.8854 27.337C17.8854 27.337 19.9524 25.27 18.9184 17.52C18.1494 11.754 20.4784 9.10004 19.2994 8.31604L21.9554 3.49004C22.0924 3.24004 22.0014 2.92604 21.7514 2.78904Z" fill="#292F33"/>
</svg>
