<svg width="36" height="33" viewBox="0 0 36 33" fill="none" xmlns="http://www.w3.org/2000/svg">
<path d="M30.735 12.2815C28.985 8.65846 24.801 3.22846 21.204 3.22846C17.133 3.22846 12.976 10.4875 11.133 13.6065C10.957 13.9055 10.812 14.1845 10.669 14.4635C7.29803 13.2815 10.133 7.83246 10.133 4.00046C10.133 3.04346 9.99503 2.36346 9.69303 1.88146C10.182 1.27546 10.279 0.534464 9.88503 0.182464C9.47203 -0.184536 8.69003 0.019464 8.14003 0.638464C8.06003 0.727464 8.01103 0.824464 7.95103 0.918464C7.52703 0.851464 7.04803 0.816464 6.47903 0.816464C5.91403 0.816464 3.56303 1.08246 2.25003 1.60746C-0.866973 2.85646 0.133027 6.27446 1.13303 6.27446H5.13303C6.13303 6.27446 5.88903 8.58446 5.13303 11.0005C4.30303 13.6545 3.69403 16.1455 4.13303 17.6065C4.94103 20.2935 7.84503 21.1955 10.297 21.4665C11.356 24.1255 11.814 27.9215 11.77 29.4285C11.711 31.4285 13.71 31.4875 13.769 29.4875C13.805 28.2765 13.667 25.8075 13.912 23.7065C14.57 26.5395 14.847 29.8035 14.811 31.0205C14.752 33.0185 16.751 33.0775 16.81 31.0795C16.857 29.4775 16.628 24.7195 17.369 22.0975C17.876 22.1145 18.413 22.1275 18.988 22.1325C20.762 22.2225 22.714 22.2175 24.494 22.1175C25.544 23.7095 26.49 25.1085 26.476 25.5525C26.447 26.5525 25.359 29.5215 25.33 30.5215C25.301 31.5215 26.27 32.5505 27.329 30.5805C27.977 29.3755 28.653 27.1615 28.865 25.1595C29.036 25.5235 29.139 25.8155 29.134 26.0025C29.105 27.0025 28.164 29.9325 28.135 30.9325C28.106 31.9305 29.076 32.9595 30.134 30.9915C31.193 29.0205 32.132 26.0935 31.192 24.0635C30.395 22.3435 31.623 19.8985 32.016 16.1495C33.098 17.8145 33.133 19.5005 33.134 19.6085C33.134 20.1615 33.581 20.6085 34.134 20.6085C34.687 20.6085 35.134 20.1615 35.134 19.6085C35.133 19.3935 35.067 14.7585 30.735 12.2815Z" fill="#C1694F"/>
<path d="M7.42002 2.84547C7.40402 3.39747 6.94302 3.83147 6.39102 3.81547C5.83902 3.79947 5.40502 3.33847 5.42102 2.78647C5.43702 2.23447 5.89802 1.80047 6.45002 1.81647C7.00202 1.83247 7.43602 2.29347 7.42002 2.84547Z" fill="#292F33"/>
</svg>
