<svg width="29" height="29" viewBox="0 0 29 29" fill="none" xmlns="http://www.w3.org/2000/svg">
<path d="M14.6655 0.546188C10.9262 0.590319 7.35285 2.06301 4.70861 4.64969C2.06437 7.23637 0.558907 10.732 0.513794 14.3898C0.558907 18.0477 2.06437 21.5433 4.70861 24.13C7.35285 26.7166 10.9262 28.1893 14.6655 28.2335C18.4047 28.1893 21.9781 26.7166 24.6224 24.13C27.2666 21.5433 28.7721 18.0477 28.8172 14.3898C28.7721 10.732 27.2666 7.23637 24.6224 4.64969C21.9781 2.06301 18.4047 0.590319 14.6655 0.546188ZM22.7522 15.3787H15.6763V22.3005H13.6546V15.3787H6.5788V13.401H13.6546V6.47917H15.6763V13.401H22.7522V15.3787Z" fill="#0A7C00"/>
</svg>
