<svg width="38" height="34" viewBox="0 0 38 34" fill="none" xmlns="http://www.w3.org/2000/svg">
<path d="M3.30415 15.2479H36.3158C36.7536 15.2479 37.1734 15.4218 37.4829 15.7313C37.7925 16.0409 37.9664 16.4607 37.9664 16.8984C37.9664 17.3362 37.7925 17.756 37.4829 18.0656C37.1734 18.3751 36.7536 18.549 36.3158 18.549H3.30415C2.86639 18.549 2.44655 18.3751 2.13701 18.0656C1.82746 17.756 1.65356 17.3362 1.65356 16.8984C1.65356 16.4607 1.82746 16.0409 2.13701 15.7313C2.44655 15.4218 2.86639 15.2479 3.30415 15.2479Z" fill="#4D4D4D"/>
<path d="M3.98746 16.8984L17.6774 30.5851C17.9873 30.895 18.1614 31.3154 18.1614 31.7537C18.1614 32.192 17.9873 32.6124 17.6774 32.9223C17.3675 33.2322 16.9471 33.4064 16.5088 33.4064C16.0705 33.4064 15.6501 33.2322 15.3402 32.9223L0.484921 18.0671C0.331208 17.9137 0.209253 17.7316 0.126043 17.5311C0.0428321 17.3305 0 17.1156 0 16.8984C0 16.6813 0.0428321 16.4664 0.126043 16.2658C0.209253 16.0653 0.331208 15.8832 0.484921 15.7298L15.3402 0.874588C15.6501 0.564653 16.0705 0.390533 16.5088 0.390533C16.9471 0.390533 17.3675 0.564653 17.6774 0.874588C17.9873 1.18452 18.1614 1.60489 18.1614 2.0432C18.1614 2.48152 17.9873 2.90188 17.6774 3.21181L3.98746 16.8984Z" fill="#4D4D4D"/>
</svg>
