<svg width="298" height="297" viewBox="0 0 298 297" fill="none" xmlns="http://www.w3.org/2000/svg">
<path d="M49.6666 49.5H86.9166L111.75 24.75H186.25L211.083 49.5H248.333C254.919 49.5 261.236 52.1076 265.893 56.7491C270.55 61.3906 273.167 67.6859 273.167 74.25V222.75C273.167 229.314 270.55 235.609 265.893 240.251C261.236 244.892 254.919 247.5 248.333 247.5H49.6666C43.0804 247.5 36.7639 244.892 32.1068 240.251C27.4496 235.609 24.8333 229.314 24.8333 222.75V74.25C24.8333 67.6859 27.4496 61.3906 32.1068 56.7491C36.7639 52.1076 43.0804 49.5 49.6666 49.5ZM149 86.625C132.534 86.625 116.743 93.144 105.1 104.748C93.4575 116.352 86.9166 132.09 86.9166 148.5C86.9166 164.91 93.4575 180.648 105.1 192.252C116.743 203.856 132.534 210.375 149 210.375C165.465 210.375 181.257 203.856 192.899 192.252C204.542 180.648 211.083 164.91 211.083 148.5C211.083 132.09 204.542 116.352 192.899 104.748C181.257 93.144 165.465 86.625 149 86.625ZM149 111.375C158.879 111.375 168.354 115.286 175.34 122.249C182.325 129.211 186.25 138.654 186.25 148.5C186.25 158.346 182.325 167.789 175.34 174.751C168.354 181.714 158.879 185.625 149 185.625C139.121 185.625 129.646 181.714 122.66 174.751C115.674 167.789 111.75 158.346 111.75 148.5C111.75 138.654 115.674 129.211 122.66 122.249C129.646 115.286 139.121 111.375 149 111.375Z" fill="white"/>
</svg>
