<svg width="44" height="45" viewBox="0 0 44 45" fill="none" xmlns="http://www.w3.org/2000/svg">
<g clip-path="url(#clip0_180_365)">
<path d="M36.6667 11.25H20.0689L17.2456 7.27501C17.018 6.95651 16.72 6.69761 16.3759 6.51947C16.0317 6.34132 15.6513 6.24899 15.2656 6.25001H7.33336C6.68505 6.25001 6.0633 6.5134 5.60488 6.98224C5.14645 7.45108 4.88892 8.08697 4.88892 8.75001V36.25C4.88892 36.913 5.14645 37.5489 5.60488 38.0178C6.0633 38.4866 6.68505 38.75 7.33336 38.75H36.6667C37.315 38.75 37.9368 38.4866 38.3952 38.0178C38.8536 37.5489 39.1111 36.913 39.1111 36.25V13.75C39.1111 13.087 38.8536 12.4511 38.3952 11.9822C37.9368 11.5134 37.315 11.25 36.6667 11.25ZM7.33336 13.75V8.75001H15.2656L18.59 13.75H7.33336Z" fill="#FFC700"/>
</g>
<defs>
<clipPath id="clip0_180_365">
<rect width="44" height="45" fill="white"/>
</clipPath>
</defs>
</svg>
