<svg width="21" height="21" viewBox="0 0 21 21" fill="none" xmlns="http://www.w3.org/2000/svg">
<path d="M11.3834 15.4894C11.4708 15.5765 11.5401 15.68 11.5874 15.7939C11.6348 15.9079 11.6591 16.0301 11.6591 16.1534C11.6591 16.2768 11.6348 16.399 11.5874 16.513C11.5401 16.6269 11.4708 16.7304 11.3834 16.8175L10.9193 17.2816C10.0399 18.1609 8.84728 18.6549 7.60368 18.6549C6.36008 18.6549 5.16742 18.1609 4.28806 17.2816C3.4087 16.4022 2.91468 15.2095 2.91468 13.9659C2.91468 12.7223 3.4087 11.5297 4.28806 10.6503L6.17243 8.76672C7.01734 7.91972 8.15413 7.42783 9.34995 7.39181C10.5458 7.35579 11.7101 7.77836 12.6045 8.57297C12.6968 8.65505 12.7721 8.75451 12.826 8.86567C12.8799 8.97683 12.9113 9.09753 12.9186 9.22085C12.9258 9.34418 12.9087 9.46773 12.8682 9.58445C12.8278 9.70116 12.7647 9.80876 12.6826 9.9011C12.6005 9.99343 12.5011 10.0687 12.3899 10.1226C12.2787 10.1765 12.158 10.208 12.0347 10.2152C11.9114 10.2225 11.7878 10.2054 11.6711 10.1649C11.5544 10.1244 11.4468 10.0613 11.3545 9.97922C10.8182 9.50291 10.1201 9.24952 9.40315 9.27087C8.68618 9.29221 8.00446 9.58669 7.49743 10.0941L5.61462 11.9753C5.08709 12.5028 4.79072 13.2183 4.79072 13.9644C4.79072 14.7104 5.08709 15.4259 5.61462 15.9534C6.14215 16.481 6.85764 16.7773 7.60368 16.7773C8.34973 16.7773 9.06521 16.481 9.59274 15.9534L10.0568 15.4894C10.1439 15.4022 10.2473 15.3331 10.3611 15.2859C10.4749 15.2387 10.5969 15.2144 10.7201 15.2144C10.8433 15.2144 10.9653 15.2387 11.0791 15.2859C11.1929 15.3331 11.2963 15.4022 11.3834 15.4894ZM17.1709 4.39563C16.2908 3.51762 15.0984 3.02454 13.8552 3.02454C12.6121 3.02454 11.4197 3.51762 10.5396 4.39563L10.0756 4.85969C9.89944 5.03581 9.80049 5.27468 9.80049 5.52375C9.80049 5.77282 9.89944 6.01169 10.0756 6.18781C10.2517 6.36394 10.4905 6.46288 10.7396 6.46288C10.9887 6.46288 11.2276 6.36394 11.4037 6.18781L11.8677 5.72375C12.3953 5.19622 13.1108 4.89986 13.8568 4.89986C14.6029 4.89986 15.3183 5.19622 15.8459 5.72375C16.3734 6.25128 16.6698 6.96677 16.6698 7.71281C16.6698 8.45886 16.3734 9.17435 15.8459 9.70188L13.9623 11.5863C13.4548 12.0934 12.7727 12.3875 12.0556 12.4082C11.3384 12.429 10.6404 12.1749 10.1045 11.698C10.0121 11.6159 9.90453 11.5528 9.78781 11.5123C9.6711 11.4718 9.54755 11.4547 9.42422 11.462C9.30089 11.4692 9.1802 11.5007 9.06904 11.5546C8.95787 11.6085 8.85842 11.6838 8.77634 11.7761C8.69426 11.8684 8.63118 11.976 8.59068 12.0927C8.55019 12.2095 8.53308 12.333 8.54034 12.4563C8.54759 12.5797 8.57907 12.7004 8.63296 12.8115C8.68686 12.9227 8.76213 13.0221 8.85446 13.1042C9.7482 13.8987 10.9118 14.3215 12.107 14.2862C13.3023 14.2509 14.4388 13.7602 15.2842 12.9144L17.1685 11.0308C18.0476 10.1509 18.5415 8.9582 18.542 7.71447C18.5424 6.47075 18.0493 5.27767 17.1709 4.39719V4.39563Z" fill="black"/>
</svg>
