<svg width="21" height="21" viewBox="0 0 21 21" fill="none" xmlns="http://www.w3.org/2000/svg">
<path d="M11.5686 14.6719C11.656 14.759 11.7253 14.8625 11.7726 14.9764C11.82 15.0904 11.8443 15.2125 11.8443 15.3359C11.8443 15.4593 11.82 15.5815 11.7726 15.6955C11.7253 15.8094 11.656 15.9129 11.5686 16L11.1045 16.4641C10.2252 17.3434 9.03249 17.8374 7.78889 17.8374C6.54529 17.8374 5.35263 17.3434 4.47327 16.4641C3.59391 15.5847 3.09989 14.392 3.09989 13.1484C3.09989 11.9048 3.59391 10.7122 4.47327 9.83281L6.35764 7.94922C7.20255 7.10222 8.33934 6.61033 9.53516 6.57431C10.731 6.53829 11.8953 6.96086 12.7897 7.75547C12.882 7.83754 12.9573 7.937 13.0112 8.04817C13.0651 8.15933 13.0965 8.28002 13.1038 8.40335C13.1111 8.52668 13.0939 8.65023 13.0535 8.76694C13.013 8.88366 12.9499 8.99126 12.8678 9.08359C12.7857 9.17593 12.6863 9.25119 12.5751 9.30509C12.4639 9.35899 12.3432 9.39046 12.2199 9.39772C12.0966 9.40497 11.973 9.38786 11.8563 9.34737C11.7396 9.30688 11.632 9.24379 11.5397 9.16172C11.0034 8.68541 10.3053 8.43201 9.58836 8.45336C8.87139 8.47471 8.18967 8.76919 7.68264 9.27656L5.79983 11.1578C5.2723 11.6853 4.97593 12.4008 4.97593 13.1469C4.97593 13.8929 5.2723 14.6084 5.79983 15.1359C6.32736 15.6635 7.04285 15.9598 7.78889 15.9598C8.53494 15.9598 9.25042 15.6635 9.77796 15.1359L10.242 14.6719C10.3291 14.5847 10.4325 14.5156 10.5463 14.4684C10.6601 14.4212 10.7821 14.3969 10.9053 14.3969C11.0285 14.3969 11.1505 14.4212 11.2643 14.4684C11.3781 14.5156 11.4815 14.5847 11.5686 14.6719ZM17.3561 3.57812C16.476 2.70012 15.2836 2.20703 14.0405 2.20703C12.7973 2.20703 11.6049 2.70012 10.7248 3.57812L10.2608 4.04218C10.0846 4.21831 9.98571 4.45718 9.98571 4.70625C9.98571 4.95532 10.0846 5.19419 10.2608 5.37031C10.4369 5.54643 10.6758 5.64537 10.9248 5.64537C11.1739 5.64537 11.4128 5.54643 11.5889 5.37031L12.053 4.90625C12.5805 4.37872 13.296 4.08235 14.042 4.08235C14.7881 4.08235 15.5036 4.37872 16.0311 4.90625C16.5586 5.43378 16.855 6.14927 16.855 6.89531C16.855 7.64135 16.5586 8.35684 16.0311 8.88437L14.1475 10.7687C13.64 11.2759 12.9579 11.57 12.2408 11.5907C11.5236 11.6115 10.8256 11.3574 10.2897 10.8805C10.1973 10.7984 10.0897 10.7353 9.97303 10.6948C9.85631 10.6543 9.73276 10.6372 9.60943 10.6445C9.4861 10.6517 9.36541 10.6832 9.25425 10.7371C9.14309 10.791 9.04363 10.8663 8.96155 10.9586C8.87947 11.0509 8.81639 11.1585 8.7759 11.2752C8.7354 11.392 8.71829 11.5155 8.72555 11.6388C8.7328 11.7622 8.76428 11.8829 8.81818 11.994C8.87207 12.1052 8.94734 12.2046 9.03968 12.2867C9.93341 13.0811 11.097 13.504 12.2922 13.4687C13.4875 13.4334 14.6241 12.9426 15.4694 12.0969L17.3537 10.2133C18.2328 9.33342 18.7267 8.14069 18.7272 6.89697C18.7276 5.65324 18.2345 4.46017 17.3561 3.57968V3.57812Z" fill="white"/>
</svg>
