<svg width="208" height="208" viewBox="0 0 208 208" fill="none" xmlns="http://www.w3.org/2000/svg">
<circle cx="103.977" cy="103.928" r="103.247" fill="#EEEEEE"/>
<path d="M138.977 110.515C142.955 110.515 146.77 112.095 149.583 114.909C152.396 117.722 153.977 121.537 153.977 125.515V130.515C153.977 150.225 135.377 170.515 103.977 170.515C72.5765 170.515 53.9765 150.225 53.9765 130.515V125.515C53.9765 121.537 55.5569 117.722 58.3699 114.909C61.183 112.095 64.9983 110.515 68.9765 110.515H138.977ZM103.977 45.5151C111.27 45.5151 118.265 48.4125 123.422 53.5697C128.579 58.727 131.477 65.7217 131.477 73.0151C131.477 80.3086 128.579 87.3033 123.422 92.4606C118.265 97.6178 111.27 100.515 103.977 100.515C96.6831 100.515 89.6883 97.6178 84.5311 92.4606C79.3738 87.3033 76.4765 80.3086 76.4765 73.0151C76.4765 65.7217 79.3738 58.727 84.5311 53.5697C89.6883 48.4125 96.6831 45.5151 103.977 45.5151Z" fill="white"/>
</svg>
