<svg width="25" height="25" viewBox="0 0 25 25" fill="none" xmlns="http://www.w3.org/2000/svg">
<path d="M20.1219 21.5267L13.8219 15.2267C13.3219 15.6267 12.7469 15.9434 12.0969 16.1767C11.4469 16.41 10.7552 16.5267 10.0219 16.5267C8.20518 16.5267 6.66785 15.8974 5.40985 14.6387C4.15185 13.38 3.52252 11.8427 3.52185 10.0267C3.52185 8.21002 4.15118 6.67269 5.40985 5.41469C6.66852 4.15669 8.20585 3.52735 10.0219 3.52669C11.8385 3.52669 13.3759 4.15602 14.6339 5.41469C15.8919 6.67335 16.5212 8.21069 16.5219 10.0267C16.5219 10.76 16.4052 11.4517 16.1719 12.1017C15.9385 12.7517 15.6219 13.3267 15.2219 13.8267L21.5219 20.1267L20.1219 21.5267ZM10.0219 14.5267C11.2719 14.5267 12.3345 14.089 13.2099 13.2137C14.0852 12.3384 14.5225 11.276 14.5219 10.0267C14.5219 8.77669 14.0842 7.71402 13.2089 6.83869C12.3335 5.96335 11.2712 5.52602 10.0219 5.52669C8.77185 5.52669 7.70918 5.96435 6.83385 6.83969C5.95852 7.71502 5.52118 8.77735 5.52185 10.0267C5.52185 11.2767 5.95952 12.3394 6.83485 13.2147C7.71018 14.09 8.77252 14.5274 10.0219 14.5267Z" fill="black"/>
</svg>
