<svg width="25" height="25" viewBox="0 0 25 25" fill="none" xmlns="http://www.w3.org/2000/svg">
<path d="M20.1219 21.0418L13.8219 14.7418C13.3219 15.1418 12.7469 15.4585 12.0969 15.6918C11.4469 15.9251 10.7552 16.0418 10.0219 16.0418C8.20518 16.0418 6.66785 15.4125 5.40985 14.1538C4.15185 12.8951 3.52252 11.3578 3.52185 9.54181C3.52185 7.72514 4.15118 6.18781 5.40985 4.92981C6.66852 3.67181 8.20585 3.04248 10.0219 3.04181C11.8385 3.04181 13.3759 3.67114 14.6339 4.92981C15.8919 6.18848 16.5212 7.72581 16.5219 9.54181C16.5219 10.2751 16.4052 10.9668 16.1719 11.6168C15.9385 12.2668 15.6219 12.8418 15.2219 13.3418L21.5219 19.6418L20.1219 21.0418ZM10.0219 14.0418C11.2719 14.0418 12.3345 13.6041 13.2099 12.7288C14.0852 11.8535 14.5225 10.7911 14.5219 9.54181C14.5219 8.29181 14.0842 7.22914 13.2089 6.35381C12.3335 5.47848 11.2712 5.04114 10.0219 5.04181C8.77185 5.04181 7.70918 5.47948 6.83385 6.35481C5.95852 7.23014 5.52118 8.29248 5.52185 9.54181C5.52185 10.7918 5.95952 11.8545 6.83485 12.7298C7.71018 13.6051 8.77252 14.0425 10.0219 14.0418Z" fill="white"/>
</svg>
