<svg width="256" height="257" viewBox="0 0 256 257" fill="none" xmlns="http://www.w3.org/2000/svg">
<path d="M208.49 192.025C210.744 194.28 212.011 197.337 212.011 200.525C212.011 203.713 210.744 206.771 208.49 209.025C206.236 211.28 203.178 212.546 199.99 212.546C196.802 212.546 193.744 211.28 191.49 209.025L128 145.515L64.49 209.005C62.2357 211.26 59.1781 212.526 55.99 212.526C52.8019 212.526 49.7443 211.26 47.49 209.005C45.2357 206.751 43.9692 203.693 43.9692 200.505C43.9692 197.317 45.2357 194.26 47.49 192.005L111 128.515L47.51 65.0052C45.2557 62.7508 43.9892 59.6933 43.9892 56.5052C43.9892 53.3171 45.2557 50.2595 47.51 48.0052C49.7643 45.7508 52.8219 44.4844 56.01 44.4844C59.1981 44.4844 62.2557 45.7508 64.51 48.0052L128 111.515L191.51 47.9952C193.764 45.7408 196.822 44.4744 200.01 44.4744C203.198 44.4744 206.256 45.7408 208.51 47.9952C210.764 50.2495 212.031 53.3071 212.031 56.4952C212.031 59.6833 210.764 62.7408 208.51 64.9952L145 128.515L208.49 192.025Z" fill="#555555"/>
</svg>
